<?xml version="1.0" encoding="utf-8"?>
<!-- Generator: Adobe Illustrator 25.0.0, SVG Export Plug-In . SVG Version: 6.00 Build 0)  -->
<svg version="1.1" id="Capa_1" xmlns="http://www.w3.org/2000/svg" xmlns:xlink="http://www.w3.org/1999/xlink" x="0px" y="0px"
	 viewBox="0 0 400 400" style="enable-background:new 0 0 400 400;" xml:space="preserve">
<style type="text/css">
	.st0{fill:#020203;}
</style>
<g id="layer1">
	<g id="g444" transform="matrix(3.1004846,0,0,3.1004846,-92.295908,-251.14057)">
		<path id="path9425" class="st0" d="M205.26,124.63c-0.99-0.99-0.51-3.12,1.36-5.99c2.5-3.83,4.11-5.58,5.88-6.38
			c1.37-0.62,2.81-0.68,16.53-0.69c8.84-0.01,15.57,0.15,16.37,0.37c1.71,0.48,3.61,2.38,6.17,6.19c2.27,3.38,2.86,5.35,1.88,6.33
			c-0.56,0.56-2.77,0.62-24.18,0.62C211.45,125.08,205.6,124.98,205.26,124.63L205.26,124.63z M213.3,109.28
			c-2.02-1.59-2.11-2.12-2.11-12.63c0-10.87,0.15-11.6,2.65-12.94c1.17-0.63,2.44-0.69,15.29-0.69c15.51,0,15.97,0.06,17.35,2.32
			c0.71,1.17,0.76,1.88,0.76,11.32c0,11.04-0.08,11.48-2.27,12.77c-0.92,0.54-2.81,0.61-15.86,0.61
			C214.66,110.06,214.28,110.05,213.3,109.28L213.3,109.28z M237.48,102.73v-1.7l-8.17,0.1l-8.17,0.1l-0.12,1.06
			c-0.25,2.17-0.41,2.13,8.37,2.13h8.09L237.48,102.73z M237.48,96.54v-1.51l-8.17,0.1l-8.17,0.1l-0.12,1.41l-0.12,1.41h8.28h8.28
			L237.48,96.54z M237.48,90.53v-1.51l-8.17,0.1l-8.17,0.1l-0.12,0.87c-0.28,1.95-0.31,1.94,8.37,1.94h8.09L237.48,90.53z
			 M179.62,99.2c-1.51-1.51-1.51-3.42,0-4.94c0.81-0.81,1.45-1.1,2.47-1.1c3.62,0,4.97,5.01,1.81,6.7
			C182.44,100.64,180.81,100.39,179.62,99.2L179.62,99.2z M191.55,99.53c-1.27-1-1.63-2.91-0.84-4.43c2.13-4.12,8.25-1.21,6.46,3.07
			c-0.3,0.72-0.89,1.5-1.31,1.72C194.65,100.54,192.61,100.37,191.55,99.53z M203.87,99.85c-1.23-0.7-1.67-1.52-1.67-3.11
			c0-1.63,0.46-2.45,1.74-3.13c2.39-1.27,5.38,0.46,5.38,3.13C209.32,99.41,206.21,101.19,203.87,99.85L203.87,99.85z M250.36,99.39
			c-0.87-0.75-1.05-1.2-1.05-2.66c0-1.46,0.18-1.91,1.05-2.66c2.81-2.42,7.03,0.33,5.88,3.83
			C255.45,100.32,252.35,101.1,250.36,99.39z M262.13,99.31c-0.76-0.76-0.99-1.36-0.98-2.53c0.01-1.67,0.46-2.49,1.75-3.17
			c2.39-1.27,5.38,0.46,5.38,3.13C268.27,99.86,264.33,101.51,262.13,99.31z M273.88,99.2c-0.81-0.81-1.1-1.45-1.1-2.47
			c0-1.02,0.28-1.66,1.1-2.47c2.94-2.94,7.37,0.45,5.62,4.29C278.59,100.55,275.57,100.9,273.88,99.2L273.88,99.2z"/>
		
			<text transform="matrix(0.1903 0 0 0.3225 174.5752 142.7305)" class="st0" style="font-family:'Arial-BoldMT'; font-size:66.1445px;">T0PL4Pv4LD1V14</text>
	</g>
</g>
<g id="layer1_1_">
	<path id="path9058" class="st0" d="M48.12,284.73l0.39-4.03l10.17-0.36l10.17-0.36l0.37-6.46c0.36-6.3,0.48-6.47,4.4-6.85
		l4.03-0.39v11.24v11.24H62.69H47.73L48.12,284.73z M149.6,282.63v-6.14l-6.51-0.38l-6.51-0.38l-0.38-5.27l-0.38-5.27h6.89h6.89
		v-6.82v-6.82h4.96h4.96v6.82v6.82h6.89h6.89l-0.38,5.27l-0.38,5.27l-6.51,0.38l-6.51,0.38v6.14v6.14h-4.96h-4.96L149.6,282.63z
		 M324.72,284.81c0.36-3.8,0.73-4.11,4.74-4.11c4,0,4.34,0.3,4.34,3.72c0,3.42-0.39,3.75-4.74,4.11
		C324.38,288.92,324.33,288.87,324.72,284.81z M339.38,284.42v-4.34h11.16h11.16v4.34v4.34h-11.16h-11.16V284.42z M230.22,276.64
		v-7.16l9.3-9.24l9.3-9.24l9.3,9.24l9.3,9.24v7.44v7.44l-9.12-9.06l-9.12-9.06l-8.51,8.78c-4.68,4.83-8.95,8.78-9.48,8.78
		C230.66,283.8,230.22,280.58,230.22,276.64L230.22,276.64z M41.69,263.34v-11.78h11.16h11.16v4.34v4.34h-7.44h-7.44v7.44v7.44
		h-3.72h-3.72L41.69,263.34z M325.38,274.35c-0.49-0.49-0.89-2.5-0.89-4.47c0-3.39,0.26-3.57,4.65-3.2c4.26,0.35,4.65,0.7,4.65,4.11
		c0,3.24-0.49,3.77-3.77,4.09C327.96,275.07,325.86,274.84,325.38,274.35L325.38,274.35z M354.26,270.78c0-4,0.3-4.34,3.72-4.34
		c3.43,0,3.72,0.34,3.72,4.34c0,4-0.3,4.34-3.72,4.34C354.56,275.12,354.26,274.77,354.26,270.78z M69.45,258.45
		c-1.46-3.79,0.1-6.27,4.19-6.66c3.85-0.37,4.02-0.21,4.02,4.03c0,4.09-0.28,4.42-3.76,4.42C71.77,260.23,69.84,259.46,69.45,258.45
		z M324.72,256.2l0.39-4.03l11.47-0.36l11.47-0.36v4.39v4.39H336.2h-11.86L324.72,256.2z M354.26,255.89c0-4,0.3-4.34,3.72-4.34
		c3.43,0,3.72,0.34,3.72,4.34c0,4-0.3,4.34-3.72,4.34C354.56,260.23,354.26,259.89,354.26,255.89z M41.69,191.39v-35.35h31.63h31.63
		v9.3v9.3H82.62H60.29v26.05v26.05h-9.3h-9.3V191.39z M148.36,217.44v-9.3l17.68-0.03c29.82-0.05,39.59-2.48,48.2-12.01
		c13.56-15.01,10.59-46.27-5.42-57.01c-8.09-5.43-15.15-6.62-39.44-6.62h-21.03v-9.3v-9.3h24.58c27.65,0,33.16,1.01,45.17,8.26
		c17.41,10.52,26.4,32.32,23.31,56.55c-2,15.7-6.43,24.78-16.69,34.22c-11.9,10.95-23.22,13.85-54.1,13.85h-22.27L148.36,217.44z
		 M343.1,184.28v-42.47l-18.31,18.28l-18.31,18.28l-32.23-32.25l-32.23-32.25h11.76h11.76l20.17,20.14l20.17,20.14l20.17-20.14
		l20.17-20.14h7.74h7.74v56.44v56.44h-9.3h-9.3L343.1,184.28z M41.69,123.17v-9.3h42.79h42.79v9.3v9.3H84.48H41.69V123.17z"/>
</g>
</svg>
