<?xml version="1.0" encoding="utf-8"?>
<!-- Generator: Adobe Illustrator 25.0.0, SVG Export Plug-In . SVG Version: 6.00 Build 0)  -->
<svg version="1.1" id="Capa_1" xmlns="http://www.w3.org/2000/svg" xmlns:xlink="http://www.w3.org/1999/xlink" x="0px" y="0px"
	 viewBox="0 0 400 400" style="enable-background:new 0 0 400 400;" xml:space="preserve">
<style type="text/css">
	.st0{fill:#020203;}
</style>
<g id="layer1">
	<g id="g444" transform="matrix(3.1004846,0,0,3.1004846,-92.295908,-251.14057)">
		<path id="path9425" class="st0" d="M205.26,124.63c-0.99-0.99-0.51-3.12,1.36-5.99c2.5-3.83,4.11-5.58,5.88-6.38
			c1.37-0.62,2.81-0.68,16.53-0.69c8.84-0.01,15.57,0.15,16.37,0.37c1.71,0.48,3.61,2.38,6.17,6.19c2.27,3.38,2.86,5.35,1.88,6.33
			c-0.56,0.56-2.77,0.62-24.18,0.62C211.45,125.08,205.6,124.98,205.26,124.63L205.26,124.63z M213.3,109.28
			c-2.02-1.59-2.11-2.12-2.11-12.63c0-10.87,0.15-11.6,2.65-12.94c1.17-0.63,2.44-0.69,15.29-0.69c15.51,0,15.97,0.06,17.35,2.32
			c0.71,1.17,0.76,1.88,0.76,11.32c0,11.04-0.08,11.48-2.27,12.77c-0.92,0.54-2.81,0.61-15.86,0.61
			C214.66,110.06,214.28,110.05,213.3,109.28L213.3,109.28z M237.48,102.73v-1.7l-8.17,0.1l-8.17,0.1l-0.12,1.06
			c-0.25,2.17-0.41,2.13,8.37,2.13h8.09L237.48,102.73z M237.48,96.54v-1.51l-8.17,0.1l-8.17,0.1l-0.12,1.41l-0.12,1.41h8.28h8.28
			L237.48,96.54z M237.48,90.53v-1.51l-8.17,0.1l-8.17,0.1l-0.12,0.87c-0.28,1.95-0.31,1.94,8.37,1.94h8.09L237.48,90.53z
			 M179.62,99.2c-1.51-1.51-1.51-3.42,0-4.94c0.81-0.81,1.45-1.1,2.47-1.1c3.62,0,4.97,5.01,1.81,6.7
			C182.44,100.64,180.81,100.39,179.62,99.2L179.62,99.2z M191.55,99.53c-1.27-1-1.63-2.91-0.84-4.43c2.13-4.12,8.25-1.21,6.46,3.07
			c-0.3,0.72-0.89,1.5-1.31,1.72C194.65,100.54,192.61,100.37,191.55,99.53z M203.87,99.85c-1.23-0.7-1.67-1.52-1.67-3.11
			c0-1.63,0.46-2.45,1.74-3.13c2.39-1.27,5.38,0.46,5.38,3.13C209.32,99.41,206.21,101.19,203.87,99.85L203.87,99.85z M250.36,99.39
			c-0.87-0.75-1.05-1.2-1.05-2.66c0-1.46,0.18-1.91,1.05-2.66c2.81-2.42,7.03,0.33,5.88,3.83
			C255.45,100.32,252.35,101.1,250.36,99.39z M262.13,99.31c-0.76-0.76-0.99-1.36-0.98-2.53c0.01-1.67,0.46-2.49,1.75-3.17
			c2.39-1.27,5.38,0.46,5.38,3.13C268.27,99.86,264.33,101.51,262.13,99.31z M273.88,99.2c-0.81-0.81-1.1-1.45-1.1-2.47
			c0-1.02,0.28-1.66,1.1-2.47c2.94-2.94,7.37,0.45,5.62,4.29C278.59,100.55,275.57,100.9,273.88,99.2L273.88,99.2z"/>
		
			<text transform="matrix(0.1903 0 0 0.3225 174.5752 142.7305)" class="st0" style="font-family:'Arial-BoldMT'; font-size:66.1445px;">T0PL4Pv4LD1V14</text>
	</g>
</g>
<g id="layer1_1_">
	<path id="path9058" class="st0" d="M465.16,406.67l0.39-4.03l10.17-0.36l10.17-0.36l0.37-6.46c0.36-6.3,0.48-6.47,4.4-6.85
		l4.03-0.39v11.24v11.24h-14.96h-14.96L465.16,406.67z M566.64,404.57v-6.14l-6.51-0.38l-6.51-0.38l-0.38-5.27l-0.38-5.27h6.89h6.89
		v-6.82v-6.82h4.96h4.96v6.82v6.82h6.89h6.89l-0.38,5.27l-0.38,5.27l-6.51,0.38l-6.51,0.38v6.14v6.14h-4.96h-4.96L566.64,404.57z
		 M741.76,406.75c0.36-3.8,0.73-4.11,4.74-4.11c4,0,4.34,0.3,4.34,3.72c0,3.42-0.39,3.75-4.74,4.11
		C741.42,410.86,741.37,410.82,741.76,406.75z M756.42,406.36v-4.34h11.16h11.16v4.34v4.34h-11.16h-11.16V406.36z M647.27,398.58
		v-7.16l9.3-9.24l9.3-9.24l9.3,9.24l9.3,9.24v7.44v7.44l-9.12-9.06l-9.12-9.06l-8.51,8.78c-4.68,4.83-8.95,8.78-9.48,8.78
		C647.71,405.74,647.27,402.52,647.27,398.58L647.27,398.58z M458.73,385.28v-11.78h11.16h11.16v4.34v4.34h-7.44h-7.44v7.44v7.44
		h-3.72h-3.72L458.73,385.28z M742.42,396.29c-0.49-0.49-0.89-2.5-0.89-4.47c0-3.39,0.26-3.57,4.65-3.2
		c4.26,0.35,4.65,0.7,4.65,4.11c0,3.24-0.49,3.77-3.77,4.09C745,397.01,742.91,396.78,742.42,396.29L742.42,396.29z M771.3,392.72
		c0-4,0.29-4.34,3.72-4.34c3.43,0,3.72,0.34,3.72,4.34c0,4-0.3,4.34-3.72,4.34C771.6,397.06,771.3,396.72,771.3,392.72z
		 M486.49,380.39c-1.46-3.79,0.1-6.27,4.19-6.66c3.85-0.37,4.02-0.21,4.02,4.03c0,4.09-0.28,4.42-3.76,4.42
		C488.81,382.18,486.88,381.4,486.49,380.39z M741.77,378.15l0.39-4.03l11.47-0.36l11.47-0.36v4.39v4.39h-11.86h-11.86
		L741.77,378.15z M771.3,377.83c0-4,0.3-4.34,3.72-4.34c3.43,0,3.72,0.34,3.72,4.34c0,4-0.3,4.34-3.72,4.34
		C771.6,382.18,771.3,381.83,771.3,377.83z M458.73,313.34v-35.35h31.63h31.63v9.3v9.3h-22.33h-22.33v26.05v26.05h-9.3h-9.3V313.34z
		 M565.4,339.38v-9.3l17.68-0.03c29.82-0.05,39.59-2.48,48.2-12.01c13.56-15.01,10.59-46.27-5.42-57.01
		c-8.09-5.43-15.15-6.62-39.44-6.62H565.4v-9.3v-9.3h24.58c27.65,0,33.16,1.01,45.17,8.26c17.41,10.52,26.4,32.32,23.31,56.55
		c-2,15.7-6.43,24.78-16.69,34.22c-11.9,10.95-23.22,13.85-54.1,13.85H565.4L565.4,339.38z M760.14,306.22v-42.47l-18.31,18.28
		l-18.31,18.28l-32.23-32.25l-32.23-32.25h11.76h11.76l20.17,20.14l20.17,20.14l20.17-20.14l20.17-20.14h7.74h7.74v56.44v56.44h-9.3
		h-9.3L760.14,306.22z M458.73,245.11v-9.3h42.79h42.79v9.3v9.3h-42.79h-42.79V245.11z"/>
</g>
<g id="layer1_2_">
	<path id="path6527" class="st0" d="M189.8,369.53c-36.45-3.64-66.68-15.5-93.57-36.71c-12.76-10.06-28.47-27.76-37.56-42.31
		C6.16,206.46,37.21,95.06,125.6,50.4c24.47-12.36,48.07-17.9,76.26-17.9c28.15,0,51.34,5.43,76,17.81
		c49,24.59,82.89,71.76,91.2,126.93c1.81,12,1.83,35.48,0.04,47.18c-8.65,56.6-42.82,103.65-93.01,128.02
		c-16.6,8.06-32.31,12.98-50.1,15.68C218.58,369.23,195.78,370.13,189.8,369.53L189.8,369.53z M215.87,357.5
		c38.79-3.88,72.53-20.12,99.07-47.68c22.94-23.82,37.3-52.98,42.47-86.21c1.78-11.42,1.78-33.76,0.01-45.15
		c-4.19-26.92-14.39-51.2-30.54-72.7c-5.75-7.65-22.65-24.53-30.18-30.13c-47.97-35.72-110.76-41.75-163.94-15.76
		c-37.81,18.48-66.97,51.97-80.06,91.97c-12.9,39.43-10.08,81.29,7.97,118.2c12.56,25.69,33.15,48.49,58.19,64.45
		c2.41,1.54,8.17,4.69,12.8,7C157.88,354.59,187.89,360.3,215.87,357.5L215.87,357.5z M201.61,350.85
		c-3.17-1.84-4.63-12.23-2.34-16.66c2.52-4.88,10.07-4.64,12.46,0.39c0.94,1.98,1.18,4.01,0.98,8.12c-0.25,4.91-0.49,5.66-2.31,7.23
		C208.2,351.82,204.03,352.25,201.61,350.85L201.61,350.85z M207.29,347.79c1.58-1.16,2.31-6.4,1.39-9.95
		c-1.24-4.78-5-4.91-6.34-0.22c-0.82,2.85,0.01,8.58,1.46,10.02C205.14,349,205.61,349.02,207.29,347.79L207.29,347.79z
		 M185.23,349.83c-2.27-1.59-3.12-5.39-2.38-10.65c1.06-7.53,4.02-10.19,9.63-8.68c2.29,0.62,3.13,1.32,3.95,3.28
		c1.47,3.51,1.33,4-1.1,4c-1.8,0-2.18-0.33-2.38-2.01c-0.18-1.54-0.67-2.06-2.12-2.23c-2.75-0.32-3.65,1.29-4.11,7.32
		c-0.33,4.34-0.18,5.55,0.75,6.32c1.6,1.33,3.65,0.78,4.52-1.21c0.53-1.21,1.24-1.61,2.56-1.46c2.21,0.26,2.13,2.28-0.19,4.78
		C192.53,351.27,187.7,351.55,185.23,349.83L185.23,349.83z M216.17,349.3c-0.57-2.64-2.6-16.34-2.6-17.56
		c0-0.72,0.88-1.22,2.52-1.41l2.52-0.29l2.71,6.46c1.49,3.55,2.95,6.61,3.24,6.79c0.29,0.18,0.77-2.87,1.07-6.79
		c0.3-3.96,0.9-7.36,1.37-7.66c1.1-0.71,4.86-0.72,4.87,0c0,0.3,0.66,4.66,1.45,9.69c0.79,5.03,1.45,9.39,1.45,9.69
		c0.01,0.77-3.47,0.69-3.96-0.1c-0.22-0.35-0.61-2.98-0.88-5.85c-0.27-2.87-0.73-5.21-1.03-5.21c-0.3,0-0.78,2.64-1.07,5.87
		c-0.42,4.71-0.8,6.02-1.92,6.62c-1.26,0.67-1.72,0.09-4.41-5.52c-1.66-3.45-3.1-6.18-3.22-6.06c-0.11,0.11,0.25,2.35,0.81,4.96
		c1.51,7.03,1.41,8.04-0.75,8.04C217.05,350.95,216.42,350.47,216.17,349.3L216.17,349.3z M238.21,346.77
		c-0.19-0.32-1.41-4.36-2.72-8.99c-1.3-4.63-2.52-8.8-2.7-9.28c-0.35-0.91,6.04-3.16,8.97-3.16c2.5,0,5.34,2.69,5.88,5.58
		c0.67,3.55-0.75,5.85-4.48,7.27l-3.09,1.18l1.01,3.35c0.55,1.84,0.92,3.42,0.82,3.5C241.17,346.84,238.49,347.24,238.21,346.77
		L238.21,346.77z M242.4,335.14c1.46-0.56,1.53-4.19,0.1-5.37c-0.58-0.48-1.82-0.77-2.74-0.64c-1.37,0.19-1.66,0.65-1.53,2.38
		C238.51,335.51,239.41,336.29,242.4,335.14L242.4,335.14z M162.66,345.53c-0.22-0.56-0.62-2.62-0.9-4.57
		c-0.66-4.59-2.2-4.66-3.51-0.17c-0.88,3.03-1.17,3.34-2.82,3.02c-1.01-0.19-1.84-0.69-1.84-1.1c0-0.41,1.32-4.96,2.94-10.1
		l2.94-9.36l4.38,1.48c4.59,1.55,6.56,3.44,6.56,6.29c0,2.37-1.92,5.83-3.51,6.34c-1.15,0.36-1.29,1.04-1.02,4.81
		c0.3,4.1,0.21,4.38-1.26,4.38C163.76,346.56,162.88,346.09,162.66,345.53L162.66,345.53z M165.09,333.94
		c2.03-2.63,1.3-5.33-1.58-5.8c-1.11-0.18-1.57,0.38-2.1,2.59c-0.53,2.18-0.45,2.97,0.32,3.46
		C163.14,335.09,164.27,335.01,165.09,333.94L165.09,333.94z M250.62,343.08c-0.3-0.5-1.58-16.2-1.58-19.48
		c0-0.76,0.73-1.65,1.62-1.98c1.43-0.53,2.4,0.34,8.23,7.39c3.64,4.39,6.61,8.17,6.61,8.4c0,0.23-0.74,0.71-1.65,1.07
		c-1.31,0.52-1.95,0.3-3.11-1.05c-1.4-1.64-1.57-1.66-4.17-0.61c-2.42,0.98-2.67,1.32-2.3,3.16c0.32,1.59,0.07,2.25-1.08,2.86
		C251.42,343.78,251.07,343.81,250.62,343.08L250.62,343.08z M255.94,333.44c0.87-0.55,0.75-1.1-0.73-3.28
		c-0.98-1.44-1.95-2.61-2.15-2.62c-0.2,0-0.25,1.48-0.11,3.29C253.21,334.11,253.91,334.72,255.94,333.44L255.94,333.44z
		 M145.74,340.03c-2.51-1.1-4.77-2.2-5.03-2.45c-0.26-0.26,1.29-4.59,3.44-9.64c4.36-10.23,3.5-9.7,10.61-6.55
		c4.06,1.8,4.37,2.16,3.3,3.85c-0.51,0.81-1.25,0.72-4.06-0.53l-3.43-1.52l-0.98,2.32c-0.97,2.31-0.96,2.33,1.87,3.6
		c2.96,1.33,3.25,1.78,2.2,3.43c-0.52,0.81-1.01,0.78-2.88-0.18c-3-1.55-3.41-1.49-4.4,0.7c-1.27,2.79-1.13,3.07,2.48,4.66
		c2.98,1.32,3.25,1.63,2.53,2.96c-0.44,0.82-0.87,1.45-0.95,1.41C150.37,342.05,148.25,341.13,145.74,340.03L145.74,340.03z
		 M132.56,333.7c-2.51-1.43-4.57-2.78-4.57-3.02c0-0.23,2.16-4.31,4.79-9.07c4.65-8.38,4.85-8.62,6.58-7.83l1.79,0.81l-4.09,7.62
		c-2.25,4.19-3.97,7.7-3.84,7.8c0.14,0.1,1.51,0.94,3.04,1.86c1.82,1.09,2.64,2.05,2.38,2.75c-0.23,0.59-0.41,1.21-0.41,1.38
		C138.23,336.7,136.9,336.16,132.56,333.7L132.56,333.7z M262.93,327.48c-2.67-4.86-4.75-8.93-4.62-9.05
		c1.48-1.27,7.99-4.05,9.49-4.05c3.04,0,5.99,3.94,5.53,7.37c-0.34,2.52-0.14,2.86,3.28,5.47l3.64,2.78l-1.95,1.02
		c-2.09,1.1-2.14,1.08-7.14-2.77c-1.68-1.29-2.08-1.37-2.43-0.46c-0.23,0.6,0.26,2.42,1.1,4.06c1.49,2.93,1.49,2.98,0.1,3.73
		c-0.78,0.42-1.58,0.76-1.78,0.76C267.96,336.32,265.61,332.34,262.93,327.48L262.93,327.48z M268.47,323.86
		c1.78-0.95,1.79-2.27,0.04-4.44c-1.21-1.5-1.6-1.6-3.29-0.83c-1.91,0.87-1.91,0.88-0.68,3.45
		C265.87,324.82,266.31,325.02,268.47,323.86L268.47,323.86z M120.97,326.68c-2.37-1.67-4.45-3.15-4.63-3.29
		c-0.69-0.55,11.17-16.99,11.94-16.55c2.69,1.52,2.61,1.84-2.27,8.84l-4.88,6.99l1.75,1.16c3.95,2.62,4.41,3.26,3.37,4.62
		C125.36,329.62,124.96,329.49,120.97,326.68L120.97,326.68z M280.06,319.82c-2.56-3.8-4.98-6.89-5.4-6.88
		c-0.41,0-1.38,0.5-2.15,1.08c-1.04,0.79-1.65,0.85-2.38,0.25c-0.54-0.45-0.97-1.06-0.97-1.36c0-0.3,2.5-2.28,5.55-4.39
		c5.01-3.47,5.66-3.73,6.69-2.71c1.02,1.02,0.94,1.3-0.89,2.88l-2.03,1.74l4.85,7l4.85,7l-1.73,1.14
		C284.72,326.71,284.66,326.65,280.06,319.82L280.06,319.82z M112.33,320.58c-1.21-0.92-1.28-1.32-0.52-3
		c0.77-1.7,0.68-2.16-0.74-3.67c-1.78-1.89-3.52-2.2-4.86-0.86c-0.66,0.66-1.29,0.63-2.71-0.13c-1.01-0.54-1.84-1.18-1.84-1.41
		c0-0.23,4.01-2.94,8.92-6.01c7.47-4.68,9.13-5.45,10.24-4.76c0.73,0.45,1.33,1.16,1.33,1.56c0.01,1.05-7.61,19.36-8.05,19.35
		C113.89,321.64,113.1,321.16,112.33,320.58L112.33,320.58z M115.79,308.87c1.68-3.52,1.64-3.55-1.7-1.35
		c-2.32,1.53-2.76,2.15-2.1,2.94C113.34,312.08,114.48,311.61,115.79,308.87L115.79,308.87z M191.99,320.15
		c-46.79-3.42-87.75-35.24-103-80.01c-4.62-13.56-5.97-22.26-5.95-38.4c0.01-16.04,0.85-21.83,5.19-35.84
		c2.68-8.66,9.19-22.67,13.46-28.97c3.02-4.46,12.01-15.86,13.44-17.05c0.84-0.7,2.4-0.62,7.33,0.36c3.45,0.68,6.27,1.46,6.27,1.72
		c0,0.26-1.84,2.27-4.09,4.47c-14.31,13.97-25.09,34.83-29.3,56.66c-1.79,9.28-1.76,28.3,0.04,37.67
		c8.48,43.86,40.81,77.06,84.17,86.44c10.54,2.28,28.51,2.61,39.5,0.72c40.16-6.89,72.21-34.27,84.89-72.53
		c2.39-7.22,15.82-30.54,16.27-28.27c0.47,2.34-1.32,15.45-3.14,22.93c-8.51,35.05-32.45,64.06-65.64,79.53
		C233.48,317.94,212.62,321.65,191.99,320.15L191.99,320.15z M287.93,311.65c-6.29-7.8-6.32-7.85-4.89-9.28
		c0.79-0.79,1.55-1.29,1.69-1.11c0.14,0.18,3.1,3.82,6.58,8.09c6.01,7.38,6.26,7.83,5.01,8.96c-0.72,0.66-1.49,1.19-1.69,1.19
		C294.42,319.5,291.41,315.97,287.93,311.65L287.93,311.65z M293.46,307.6c-3.71-3.73-6.75-7.15-6.75-7.6c0-1.22,4.87-5.27,6.96-5.8
		c2.85-0.72,5.3,0.24,8.77,3.44c3.42,3.16,5.17,6.95,4.36,9.49c-0.51,1.61-5.27,7.24-6.11,7.24
		C300.43,314.38,297.17,311.33,293.46,307.6L293.46,307.6z M302.77,307.84c1.19-2.23,0.96-2.81-2.63-6.66
		c-3.55-3.79-5.89-4.56-7.61-2.49c-0.81,0.97-0.26,1.82,3.73,5.85c2.57,2.59,4.92,4.71,5.22,4.71
		C301.77,309.25,302.36,308.62,302.77,307.84L302.77,307.84z M96.83,306.25c-1.34-1.48-1.28-1.57,4.8-7.17l6.15-5.67l-1.59-2.24
		c-1.42-1.99-1.47-2.34-0.47-3.17c0.96-0.79,1.74-0.33,5.17,3.03c4.99,4.89,5.8,6.25,4.6,7.69c-0.77,0.93-1.15,0.83-2.8-0.75
		l-1.91-1.83l-6.3,5.8C98.21,307.72,98.18,307.74,96.83,306.25L96.83,306.25z M184.53,300.83c-41.32-7.23-73.58-38.98-81.9-80.61
		c-1.93-9.66-1.74-28.85,0.38-38.75c4.1-19.13,13.59-36.68,27.35-50.57c3.33-3.36,6.64-6.42,7.36-6.81
		c0.89-0.48,3.14-0.32,6.95,0.48c3.1,0.65,6.38,1.33,7.28,1.52c0.91,0.19,1.65,0.61,1.65,0.94c0,0.33-6.86,14.73-15.25,31.99
		c-20.97,43.15-27.17,56.01-27.17,56.38c0,0.17,1.75,3.01,3.89,6.31c2.14,3.3,8.41,13.12,13.94,21.82l10.05,15.83l4.9,0.07
		c10.08,0.16,131.54,6.63,133.12,7.1c2.21,0.66-9.83,12.27-19.46,18.78c-9.48,6.41-22.86,12.02-35.31,14.81
		C214.69,301.82,192.59,302.23,184.53,300.83L184.53,300.83z M307.39,299.28c-1.3-0.64-3.68-2.6-5.3-4.36
		c-3.7-4.01-3.97-7.17-0.91-10.6c1.58-1.77,2.64-2.28,4.73-2.28c4.85,0,11.97,5.89,12.72,10.52c0.35,2.17,0.04,2.99-1.93,5.24
		C314.04,300.84,311.39,301.25,307.39,299.28L307.39,299.28z M314.36,295.94c1.5-1.5,0.98-3.11-1.87-5.88
		c-3.72-3.61-6.64-5.06-8.35-4.15c-2.44,1.3-1.59,3.96,2.4,7.55C310.27,296.82,312.71,297.59,314.36,295.94L314.36,295.94z
		 M184.81,255.47c-22.05-1.32-40.23-2.53-40.4-2.7c-0.36-0.36,7.69-28.49,8.36-29.23c0.5-0.54,88.8-17.42,89.2-17.04
		c0.2,0.19-9.31,40.08-11.63,48.81c-0.66,2.48-0.96,2.73-3.08,2.65C225.96,257.92,206.86,256.79,184.81,255.47L184.81,255.47z
		 M263.71,228.82c-16.21-23.26-19.12-27.08-20.68-27.08c-1.49,0-35.98,6.41-79.72,14.81c-4.51,0.87-8.41,1.38-8.65,1.13
		c-0.25-0.25,0.13-2.27,0.83-4.49l1.28-4.05l13.96-3.33c18.35-4.38,154.53-36.57,160.42-37.93c2.55-0.59,4.57-0.75,4.57-0.37
		c0,0.37-4.82,8.81-10.71,18.74c-5.89,9.93-17.52,29.56-25.84,43.61c-8.32,14.06-15.46,25.67-15.86,25.8
		C282.91,255.78,274.09,243.71,263.71,228.82L263.71,228.82z M127.99,231.21c-5.43-8.31-9.97-15.49-10.09-15.95
		c-0.19-0.75,6.56-14.92,33.66-70.64l8.39-17.25l7.06,1.12c3.88,0.61,7.06,1.38,7.06,1.71c0,0.33-7.26,24.2-16.12,53.07
		c-8.87,28.86-16.82,54.87-17.67,57.78c-0.85,2.92-1.74,5.3-1.98,5.3C138.06,246.34,133.42,239.53,127.99,231.21L127.99,231.21z
		 M158.72,202.65c0-0.7,0.29-1.71,0.62-2.24c0.48-0.76,80.51-32.82,86.91-34.82c1.6-0.5,1.6-0.48-0.61,7.76
		c-1.22,4.55-2.27,8.32-2.34,8.39c-0.07,0.07-9.01,2.48-19.87,5.35c-10.86,2.87-26,6.87-33.64,8.9
		C154.45,205.34,158.71,204.43,158.72,202.65L158.72,202.65z M161.64,191.76c0-2.94,26.46-87.38,27.98-89.31
		c1.04-1.31,20.45-1.21,28.19,0.16c22.1,3.89,40.9,13.71,55.99,29.26c8.17,8.41,15.6,19.46,19.8,29.43
		c4.09,9.71,4.6,8.58-4.86,10.81c-4.54,1.07-15.13,3.59-23.52,5.59c-8.4,2-15.37,3.53-15.5,3.4c-0.13-0.13,1.23-5.66,3.01-12.28
		c1.79-6.63,3.25-12.13,3.25-12.23c0.01-0.81-7.3,1.91-45.42,16.9c-23.89,9.4-44.68,17.61-46.19,18.25
		C161.92,192.77,161.64,192.77,161.64,191.76L161.64,191.76z M303.55,166.45c-8.04-19.55-13.59-28.33-25.44-40.28
		c-7.56-7.62-12.77-11.68-21.85-17.02c-16.22-9.55-31.3-13.94-50.38-14.69c-16-0.62-28.94,1.42-42.79,6.74
		c-3.42,1.32-12.14,3.6-19.38,5.07c-7.24,1.47-13.99,2.87-14.99,3.12c-1.65,0.4-1.73,0.32-0.8-0.81
		c1.69-2.05,13.82-9.88,20.55-13.26c26.66-13.39,60.37-16,88.94-6.89c30.64,9.77,56.46,31.81,70.67,60.31
		c3.27,6.57,6.62,15.45,6.25,16.57c-0.26,0.76-6.6,2.68-9.17,2.76C304.65,168.06,303.93,167.35,303.55,166.45L303.55,166.45z
		 M147.96,120.26c-13.76-2.48-25.2-4.7-25.42-4.92c-0.22-0.22,2.97-0.99,7.1-1.69c4.13-0.71,17.25-3.06,29.17-5.23
		c11.91-2.17,22.17-3.95,22.79-3.95c0.91,0,0.48,1.97-2.26,10.24c-2.91,8.79-3.6,10.23-4.87,10.16
		C173.64,124.81,161.72,122.74,147.96,120.26L147.96,120.26z M294.39,114.74c-4.46-1.83-5.71-7.33-2.63-11.64
		c5.52-7.75,14.14-8.94,16.87-2.34c1.27,3.06,0.48,5.43-3.08,9.29C301.04,114.95,298.01,116.22,294.39,114.74L294.39,114.74z
		 M301.34,108.41c3.98-3.72,4.95-5.67,3.62-7.27c-1.7-2.05-4.41-1.22-8.12,2.49c-3.78,3.78-4.25,5.15-2.4,7
		C296.24,112.42,297.47,112.02,301.34,108.41z M102.79,106.69c-7.21-7.24-7.25-7.3-5.88-8.81l1.38-1.52l6.07,6.03l6.07,6.03
		l2.58-2.5c2.44-2.36,2.65-2.43,3.83-1.24c1.19,1.19,1.04,1.48-2.76,5.27l-4.02,4.02L102.79,106.69z M283.46,104.5
		c-1.16-1.28-1.2-1.8-0.34-5.13c1.35-5.27,0.14-6.17-2.99-2.22c-2.4,3.03-2.4,3.03-3.86,1.57c-1.46-1.46-1.46-1.47,4.68-9.19
		c3.38-4.25,6.47-7.74,6.88-7.74c1.64,0,7.66,6.36,7.66,8.11c0,2.79-2.36,5.95-5.12,6.88c-2.17,0.73-2.68,1.37-3.64,4.59
		C285.34,106.01,285.06,106.28,283.46,104.5L283.46,104.5z M290.83,91.61c1.17-1.79,1.16-1.95-0.31-3.41
		c-1.31-1.31-1.71-1.39-2.71-0.56c-2.03,1.69-2.76,3.63-1.79,4.8C287.36,94.05,289.47,93.69,290.83,91.61L290.83,91.61z
		 M115.29,94.58c-2.92-8.08-3.4-10.07-2.65-10.97c0.5-0.6,1.23-1.1,1.63-1.1c0.63,0,11.99,7.6,16.47,11.02l1.64,1.25l-1.89,1.23
		c-1.72,1.13-2,1.13-3.16,0.09c-1.64-1.48-1.97-1.46-4.49,0.33c-1.83,1.3-2,1.73-1.37,3.39c0.56,1.48,0.45,2.2-0.51,3.26
		c-0.68,0.75-1.43,1.36-1.67,1.36C119.05,104.46,117.25,100.02,115.29,94.58L115.29,94.58z M119.88,90.4
		c-1.32-1.1-2.55-1.85-2.74-1.66c-0.19,0.19,0.25,1.67,0.98,3.29c1.28,2.85,1.37,2.9,2.74,1.66
		C122.25,92.43,122.23,92.37,119.88,90.4L119.88,90.4z M265.06,91c-2.94-2.94-3.16-5.17-0.94-9.75c3.9-8.06,9.18-10.4,13.92-6.17
		c2.26,2.02,3.03,5.32,1.73,7.43c-0.89,1.44-3.2-0.64-3.43-3.1c-0.18-1.85-0.61-2.43-1.95-2.62c-2.26-0.32-4.57,1.92-6.73,6.53
		c-1.96,4.19-1.48,5.99,1.69,6.38c2.14,0.26,3.43-2.16,2.05-3.83c-0.44-0.53-0.6-1.5-0.35-2.14c0.4-1.03,0.78-0.98,3.3,0.45
		c1.57,0.89,2.85,1.9,2.85,2.23c0,0.33-0.85,2.06-1.89,3.84c-1.74,2.98-2.14,3.24-4.83,3.24C268.12,93.49,267.06,93,265.06,91
		L265.06,91z M252.52,84.82c-2.51-1.13-4.73-2.21-4.94-2.42c-0.21-0.21,1.42-4.46,3.61-9.45c2.76-6.28,4.32-9.01,5.07-8.87
		c0.59,0.11,3.08,1.11,5.54,2.22c4.15,1.88,4.39,2.12,3.43,3.42c-1,1.37-1.08,1.37-4.06,0.04c-3.19-1.44-3.93-1.19-4.77,1.58
		c-0.41,1.36-0.01,1.81,2.52,2.93c2.69,1.19,2.9,1.46,2.03,2.64c-0.91,1.23-1.14,1.24-3.78,0.14c-1.54-0.65-2.87-1.07-2.95-0.95
		c-0.37,0.61-1.9,4.36-1.9,4.67c0,0.2,1.52,1.01,3.37,1.8c2.48,1.06,3.25,1.75,2.93,2.59c-0.24,0.63-0.44,1.29-0.44,1.46
		c0,0.6-1.16,0.23-5.66-1.78V84.82z M144.64,82.7c-2.16-2.27-4.94-8.8-4.94-11.59c0-2.63,1.18-4.49,3.64-5.77
		c2.93-1.51,5.31-1.39,7.6,0.41c2.34,1.84,2.41,2.56,0.34,3.67c-1.29,0.69-1.75,0.63-2.46-0.34c-1.62-2.21-5.46-1.01-5.46,1.7
		c0,1.85,4.25,10.27,5.4,10.71c0.59,0.23,1.78,0.04,2.66-0.45c1.17-0.63,1.5-1.33,1.24-2.67c-0.26-1.37,0.04-1.97,1.21-2.41
		c2.15-0.81,2.65-0.33,2.65,2.51C156.52,84.02,148.58,86.84,144.64,82.7L144.64,82.7z M241.63,80.5c-1.7-0.29-2.02-1.26-2.87-8.79
		c-0.29-2.52-0.76-4.74-1.06-4.92c-0.3-0.18-1.29,2.3-2.2,5.52c-1.51,5.3-1.81,5.81-3.21,5.38c-0.85-0.26-1.68-0.6-1.86-0.76
		c-0.18-0.16,0.94-4.69,2.48-10.07l2.8-9.79l1.98,0.69c1.85,0.65,2.05,1.14,3.04,7.79l1.06,7.1l1.99-6.33
		c1.74-5.52,2.18-6.28,3.45-5.95c0.8,0.21,1.6,0.62,1.78,0.92c0.37,0.6-4.66,18.44-5.38,19.07C243.4,80.58,242.49,80.64,241.63,80.5
		L241.63,80.5z M161.19,79.28c-0.24-0.63-1.68-5.07-3.19-9.87l-2.75-8.73l1.82-0.45c1-0.25,1.91-0.36,2.02-0.24
		c0.37,0.4,6.22,19.1,6.03,19.26c-0.1,0.09-0.93,0.39-1.84,0.67C162.12,80.28,161.5,80.09,161.19,79.28L161.19,79.28z M171.15,76.9
		c-3.64-1.42-5.04-5.36-1.91-5.36c0.96,0,1.95,0.52,2.19,1.15c0.29,0.75,1.14,1.07,2.46,0.91c1.57-0.18,2.02-0.62,2.02-1.98
		c0-1.91-0.53-2.29-5.56-4.06c-2.21-0.78-3.65-1.81-4.21-3.02c-1.27-2.79-1.04-3.88,1.3-6.22c2.79-2.79,6.64-2.94,9.23-0.34
		c2.31,2.31,2.26,3.06-0.2,3.54c-1.43,0.27-2.27,0-2.97-1.01c-1.3-1.86-4.01-0.58-3.68,1.74c0.17,1.19,1.15,1.84,4.05,2.69
		c4.47,1.32,5.85,2.51,6.46,5.59c0.35,1.73,0.06,2.68-1.26,4.16C177.36,76.6,173.3,77.74,171.15,76.9L171.15,76.9z M183.99,69.4
		c-0.26-3.04-0.66-7.75-0.9-10.47l-0.43-4.94l2.11,0c1.88,0,2.44,0.62,5.26,5.85c1.74,3.22,3.35,5.85,3.57,5.85
		c0.23,0,0.19-2.8-0.09-6.22l-0.5-6.22h2.13h2.13l0.51,8.59c0.28,4.73,0.7,9.36,0.92,10.29c0.37,1.55,0.2,1.68-2,1.46
		c-2.19-0.22-2.71-0.78-5.7-6.27c-1.81-3.32-3.37-5.95-3.47-5.85c-0.1,0.1,0.04,3.03,0.33,6.52l0.5,6.34l-1.95,0.29
		C184.48,74.93,184.46,74.88,183.99,69.4L183.99,69.4z M205.34,73.94l-2.74-0.29l0-5.26c0-2.89,0.21-7.48,0.47-10.2l0.47-4.94H207
		c5.51,0,8.03,0.72,8.03,2.29c0,1.17-0.58,1.37-4.02,1.37h-4.02v2.56c0,2.55,0.01,2.56,3.29,2.56c2.8,0,3.29,0.22,3.29,1.46
		c0,1.24-0.49,1.46-3.21,1.46c-2.71,0-3.27,0.26-3.65,1.65c-1.03,3.85-0.73,4.21,3.56,4.21c3.8,0,4.02,0.1,4.02,1.83
		c0,1.68-0.25,1.82-3.11,1.71C209.48,74.28,206.85,74.1,205.34,73.94L205.34,73.94z"/>
</g>
</svg>
