<svg xmlns:xlink="http://www.w3.org/1999/xlink" id="Laag_1" data-name="Laag 1" xmlns="http://www.w3.org/2000/svg" width="12" height="5" viewBox="0 0 478.42 206.14">
  <g fill="#FFFFFF">
    <path d="M474.55,95.69H248.48V43.34h27.68V70.47c0,2.17,1.85,3.33,6.15,3.33h3.59c4.3,0,6.15-1.15,6.15-3.33V4c0-2.19-1.85-3.33-6.15-3.33h-3.59c-4.31,0-6.15,1.14-6.15,3.33V29.63H248.48V4c0-2.19-1.85-3.33-6.15-3.33h-3.59c-4.3,0-6.15,1.14-6.15,3.33V95.7H16.87V43.35H44.55V70.48c0,2.17,1.85,3.33,6.15,3.33h3.59c4.3,0,6.15-1.15,6.15-3.33V4c0-2.19-1.85-3.33-6.15-3.33H50.7C46.39.63,44.55,1.77,44.55,4V29.63H16.87V4C16.87,1.77,15,.63,10.72.63H7.13C2.83.63,1,1.77,1,4V104.67c0,4,1.06,5.66,3.09,5.66H349.23v91.85c0,2.17,1.85,3.33,6.15,3.33H359c4.3,0,6.15-1.15,6.15-3.33V175.05H392.8v27.13c0,2.17,1.85,3.33,6.15,3.33h3.59c4.3,0,6.15-1.15,6.15-3.33V135.66c0-2.19-1.85-3.33-6.15-3.33H399c-4.31,0-6.15,1.14-6.15,3.33v25.67H365.12v-51H474.55c2,0,3.09-1.71,3.09-5.67v-3.3C477.64,97.39,477,95.69,474.55,95.69Z" fill="#FFFFFF"></path>
    <path d="M54.3,132.21H50.91c-4.3,0-6.15,1.14-6.15,3.33v44.28c0,7.27-5.74,12.58-14,12.58s-13.94-5.3-13.94-12.58V135.54c0-2.19-1.84-3.33-6.15-3.33H7.14c-4.31,0-6.15,1.14-6.15,3.33v45.31C1,196.86,12,206,30.72,206s29.73-9.14,29.73-25.15V135.54C60.44,133.35,58.6,132.21,54.3,132.21Z" fill="#FFFFFF"></path>
    <path d="M126.45,132.34H77.82c-2.16,0-3.08,1.56-3.08,5.21v3.23c0,3.65.93,5.21,3.08,5.21H94.17v56.18c0,2.19,1.85,3.34,6.17,3.34h3.59c4.32,0,6.17-1.15,6.17-3.34V146h16.34c2.16,0,3.08-1.56,3.08-5.21v-3.23C129.53,133.9,128.61,132.34,126.45,132.34Z" fill="#FFFFFF"></path>
    <path d="M191.11,178.51c-1.75-4.48-4.83-8.55-7.41-9.59v-.42c7.1-2.71,12-8.54,12-16.57,0-12.51-7.81-19.59-25.6-19.59h-20c-2.87,0-4.11,1.24-4.11,4.16v65.67c0,2.19,1.85,3.34,6.17,3.34h3.5c4.32,0,6.17-1.15,6.17-3.34V176.74h4c6.68,0,8.33,2.09,10.38,6.26l8.13,20.32c.61,1.67,3,2.19,6,2.19h4.21c4.22,0,6.17-.84,6.17-2.08a6.24,6.24,0,0,0-.52-2Zm-19.54-15.63H161.8V146h9c5.34,0,8.63,3.12,8.63,7.92C179.49,158.92,175.79,162.88,171.57,162.88Z" fill="#FFFFFF"></path>
    <path d="M258.08,191.81H232V174.88h23.2c2.17,0,3.1-1.57,3.1-5.23v-3.24c0-3.66-.93-5.23-3.1-5.23H232V146h26c2.16,0,3.1-1.56,3.1-5.22v-3.24c0-3.66-.93-5.22-3.1-5.22H220.23c-2.88,0-4.12,1.25-4.12,4.18v64.81c0,2.93,1.24,4.18,4.12,4.18h37.85c2.17,0,3.09-1.57,3.09-5.23V197C261.17,193.38,260.24,191.81,258.08,191.81Z" fill="#FFFFFF"></path>
    <path d="M326,188.36c-1.54,0-7.08,4.16-16.82,4.16-11.78,0-17.53-8.11-17.53-23.7s5.64-23.39,17.74-23.39c9.74,0,13.84,3.33,15.07,3.33,2.56,0,6.67-6.87,6.67-9.77,0-4.37-12.41-7.28-21.43-7.28-22.76,0-34.25,12.27-34.25,37,0,25.68,10.77,37.42,33.73,37.42,8.2,0,22.87-2.49,22.87-8.73C332,195.64,329.26,188.36,326,188.36Z" fill="#FFFFFF"></path>
    <path d="M474.25,132.34H425.62c-2.16,0-3.08,1.56-3.08,5.21v3.23c0,3.65.92,5.21,3.08,5.21H442v56.18c0,2.19,1.85,3.34,6.17,3.34h3.6c4.32,0,6.17-1.15,6.17-3.34V146h16.34c2.16,0,3.09-1.56,3.09-5.21v-3.23C477.33,133.9,476.41,132.34,474.25,132.34Z" fill="#FFFFFF"></path>
    <path d="M84.72,73.8h37.84c2.16,0,3.1-1.57,3.1-5.22V65.34c0-3.66-.94-5.23-3.1-5.23H96.47V43.19h23.2c2.17,0,3.1-1.58,3.1-5.23V34.71c0-3.66-.93-5.22-3.1-5.22H96.47V14.32h26c2.17,0,3.1-1.57,3.1-5.22V5.86c0-3.66-.93-5.22-3.1-5.22H84.71c-2.88,0-4.12,1.25-4.12,4.18V69.63C80.6,72.54,81.84,73.8,84.72,73.8Z" fill="#FFFFFF"></path>
    <path d="M144.56,14.28h16.35V70.46c0,2.18,1.85,3.33,6.17,3.33h3.6c4.32,0,6.17-1.15,6.17-3.33V14.28h16.34c2.16,0,3.08-1.56,3.08-5.21V5.84c0-3.65-.92-5.21-3.08-5.21H144.56c-2.16,0-3.09,1.56-3.09,5.21V9.07C141.47,12.72,142.4,14.28,144.56,14.28Z" fill="#FFFFFF"></path>
    <path d="M342.93,74.42c18.76,0,29.73-9.14,29.73-25.15V4c0-2.19-1.85-3.33-6.15-3.33h-3.39C358.82.63,357,1.77,357,4V48.24c0,7.27-5.74,12.58-14,12.58S329,55.52,329,48.24V4c0-2.19-1.84-3.33-6.15-3.33h-3.49C315,.63,313.2,1.77,313.2,4V49.27C313.2,65.28,324.17,74.42,342.93,74.42Z" fill="#FFFFFF"></path>
    <path d="M399,73.81h3.58c4.29,0,6.13-1.25,6.13-3.42V4.07c0-2.18-1.84-3.43-6.13-3.43H399c-4.29,0-6.14,1.25-6.14,3.43V70.39C392.85,72.56,394.7,73.81,399,73.81Z" fill="#FFFFFF"></path>
    <path d="M449.8,60.81c-8.2,0-13.23-4.79-15.07-4.79-2.15,0-6.36,6-6.36,9.26,0,3.53,8.51,9.14,24.1,9.14,11.17,0,23.17-5.82,23.17-23.07,0-24.42-29.63-19.64-29.63-31.49,0-2.39,1.54-6.14,9.54-6.14,6.87,0,10.05,2.61,11.38,2.61,2.46,0,5.64-6.24,5.64-9C472.57,3.84,465,0,454.12,0c-12,0-24.3,6-24.3,21.31,0,24.42,29.64,19.64,29.64,31.91C459.44,59.46,454.21,60.81,449.8,60.81Z" fill="#FFFFFF"></path>
  </g>
</svg>