<svg xmlns="http://www.w3.org/2000/svg" width="188" height="171" viewBox="0 0 188 171"><defs><style>.a{fill:#dedede;}</style></defs><path class="a" d="M150.029,265.258h1.116v1.489a3.417,3.417,0,0,1-1.414.286c-1.367,0-2.062-1.046-2.062-2.95,0-1.606.66-2.71,2.109-2.71a3.61,3.61,0,0,1,1.98.52l.672-1.168a4.538,4.538,0,0,0-2.664-.718c-2.535,0-3.756,1.665-3.756,4.124,0,2.564,1.139,4.27,3.563,4.27a6.753,6.753,0,0,0,3.026-.748V264.09h-2.652Z" transform="translate(-60.714 -108.586)"/><path class="a" d="M161.817,263.82c-1.8,0-2.757,1.32-2.757,3.049,0,2.015,1,3.067,2.757,3.067s2.763-1.069,2.763-3.067c0-1.752-.987-3.049-2.763-3.049m0,4.965c-.771,0-1.168-.549-1.168-1.916s.409-1.91,1.168-1.91,1.168.5,1.168,1.91-.386,1.916-1.168,1.916" transform="translate(-66.14 -110.174)"/><path class="a" d="M173.52,262.177a2.074,2.074,0,0,0-1.56.689l.105-.946v-2.05H170.5v8.271h.835l.286-.707a1.934,1.934,0,0,0,1.706.829c1.367,0,2.564-1.046,2.564-3.072s-.993-3.049-2.377-3.049m-.386,4.965a1.419,1.419,0,0,1-1.069-.584v-2.745a1.659,1.659,0,0,1,1.092-.467c.718,0,1.168.491,1.168,1.9s-.508,1.916-1.168,1.916" transform="translate(-70.897 -108.531)"/><path class="a" d="M181.44,265.03l.672.14V269.9h1.56V264.02H181.44Z" transform="translate(-75.447 -110.257)"/><rect class="a" width="1.583" height="1.425" transform="translate(106.618 151.368)"/><path class="a" d="M190.045,263.816c-1.881,0-2.745,1.232-2.745,3.049a2.735,2.735,0,0,0,2.921,3.072,4.726,4.726,0,0,0,2.2-.584l-.3-1.1a4.013,4.013,0,0,1-1.711.5A1.332,1.332,0,0,1,188.9,267.3h3.645v-.7c0-1.478-.707-2.8-2.482-2.8m-1.168,2.553c0-.7.315-1.4,1.092-1.4s1.057.648,1.057,1.4Z" transform="translate(-77.883 -110.17)"/><path class="a" d="M199.578,264.739h-.047c-.047-.263-.111-.514-.169-.789H198.27v5.876h1.56v-4.264a1.688,1.688,0,0,1,1.051-.4,2.587,2.587,0,0,1,.736.093c0-.444,0-.888.035-1.332a2.441,2.441,0,0,0-.672-.088,1.571,1.571,0,0,0-1.4.9" transform="translate(-82.445 -110.182)"/><path class="a" d="M208.754,263.819a2.436,2.436,0,0,0-1.857.789l-.239-.672H205.6v5.876h1.571v-4.433a1.91,1.91,0,0,1,1.034-.362c.718,0,1.057.421,1.057,1.308v3.5h1.595V266.2c0-1.489-.584-2.336-2.074-2.336" transform="translate(-85.493 -110.173)"/><path class="a" d="M219.137,263.82c-1.793,0-2.757,1.32-2.757,3.049,0,2.015,1,3.067,2.757,3.067s2.763-1.069,2.763-3.067c0-1.752-.981-3.049-2.763-3.049m0,4.965c-.765,0-1.133-.549-1.133-1.916s.409-1.91,1.133-1.91,1.168.5,1.168,1.91-.386,1.916-1.168,1.916" transform="translate(-89.975 -110.174)"/><path class="a" d="M235.879,261.719a3.505,3.505,0,0,0,.146,1.081,1.916,1.916,0,0,0-1.466-.584c-1.431,0-2.529,1.116-2.529,3.061,0,2.1,1.069,3.061,2.4,3.061a1.9,1.9,0,0,0,1.56-.765l.181.648h1.273v-8.3h-1.56Zm0,4.977a1.53,1.53,0,0,1-1.086.5c-.742,0-1.168-.526-1.168-1.928s.467-1.875,1.215-1.875a2.074,2.074,0,0,1,1.063.286Z" transform="translate(-96.483 -108.552)"/><path class="a" d="M246.045,263.816c-1.881,0-2.745,1.232-2.745,3.049a2.735,2.735,0,0,0,2.921,3.072,4.732,4.732,0,0,0,2.208-.584l-.3-1.1a4.042,4.042,0,0,1-1.717.5,1.332,1.332,0,0,1-1.507-1.449h3.645v-.7c0-1.478-.707-2.8-2.482-2.8m-1.168,2.553c0-.7.31-1.4,1.092-1.4s1.057.648,1.057,1.4Z" transform="translate(-101.169 -110.17)"/><path class="a" d="M262.147,266.932c-1.32,0-1.986-.993-1.986-2.868,0-1.752.672-2.769,2.015-2.769a3.5,3.5,0,0,1,1.992.549l.584-1.244a5.076,5.076,0,0,0-2.757-.683c-2.29,0-3.5,1.676-3.5,4.165,0,2.7,1.209,4.235,3.5,4.235a4.784,4.784,0,0,0,2.78-.864l-.5-1.262a3.761,3.761,0,0,1-2.138.742" transform="translate(-107.482 -108.549)"/><path class="a" d="M274.194,262.2a2.027,2.027,0,0,0-1.665.8,3.539,3.539,0,0,0,.152-.905V259.92H271.11v8.271h1.571v-4.433a1.922,1.922,0,0,1,1.034-.362.882.882,0,0,1,.97.946.584.584,0,0,1,.088.356v3.5h1.595V264.57c0-1.49-.479-2.336-2.173-2.336" transform="translate(-112.73 -108.552)"/><rect class="a" width="1.583" height="1.425" transform="translate(165.342 151.368)"/><path class="a" d="M281.96,265.03l.678.14V269.9h1.554V264.02H281.96Z" transform="translate(-117.243 -110.257)"/><path class="a" d="M289.778,266.55v-6.63H288.23v6.717c0,1.046.432,1.682,1.63,1.682a4.926,4.926,0,0,0,.865-.093v-1.1c-.648,0-.946-.07-.946-.584" transform="translate(-119.85 -108.552)"/><path class="a" d="M296.605,263.816c-1.881,0-2.745,1.232-2.745,3.049a2.735,2.735,0,0,0,2.921,3.072,4.72,4.72,0,0,0,2.2-.584l-.3-1.1a4.019,4.019,0,0,1-1.717.5,1.332,1.332,0,0,1-1.507-1.449h3.645v-.7c0-1.478-.707-2.8-2.483-2.8m-1.168,2.553c0-.7.31-1.4,1.092-1.4s1.057.648,1.057,1.4Z" transform="translate(-122.192 -110.17)"/><path class="a" d="M187.994,2.913V0H0V171H188V2.913ZM2.921,168.087V2.913H76.083V168.087Zm76.083,0V2.913H185.073V168.087Z"/><path class="a" d="M70.6,46.513a.532.532,0,0,0,.152-.421.432.432,0,0,0-.193-.3c-.38-.257-1.227-.771-1.227-.771l-.07-.058h-.076c-.093,0-.164.053-.28.14a2.185,2.185,0,0,1-1.431.52,3.119,3.119,0,0,1-.421-.029,4.632,4.632,0,0,1-1.063-.4c-.216-.111-.491-.234-.584-.28h-.047a5.555,5.555,0,0,0-4.556,0h-.053l-.275.123-.672.31a3.108,3.108,0,0,1-.724.239,3.037,3.037,0,0,1-.421.029,2.2,2.2,0,0,1-1.431-.52c-.117-.088-.187-.14-.275-.14h-.105s-.87.537-1.227.783a.456.456,0,0,0-.222.327.514.514,0,0,0,.152.415,5.876,5.876,0,0,1,1.332,3.5,5.121,5.121,0,0,1-.87,3.137A3.871,3.871,0,0,0,56.07,57a3.933,3.933,0,0,0,3.551,1.665c.216,0,2.167.035,2.839,1.285,0,.047.345.549.467.794l.152.3.146-.3c.129-.245.432-.736.479-.806.66-1.232,2.611-1.273,2.827-1.273a3.68,3.68,0,0,0,3.61-5.549,5.19,5.19,0,0,1-.87-3.172,5.841,5.841,0,0,1,1.332-3.5m-2.336,3.47-3.411,2.442,1.308,3.861-3.277-2.482-3.271,2.482,1.3-3.861L57.5,49.976H61.7l1.168-3.908,1.168,3.908h4.2Z" transform="translate(-23.035 -18.551)"/><path class="a" d="M51.509,28.589a4.947,4.947,0,0,0,2.868.421,2.12,2.12,0,0,0,1.168-.648c.123-.123.21-.321.391-.327a2.336,2.336,0,0,0,1.484,2.336,1.637,1.637,0,0,0,.047.234A2.137,2.137,0,0,0,59.3,32.45a.754.754,0,0,0-.2,1.127,5.114,5.114,0,0,1,3.5,0,.73.73,0,0,0,.228-.993c-.134-.263-.485-.286-.333-.321,1.869-.438,2.874-3.172,2.815-4.217a3.667,3.667,0,0,0,4.673-.193,3.34,3.34,0,0,0-.234-4.813,3.049,3.049,0,0,0-3.435.047,1.752,1.752,0,0,0-1.425-.9,3.452,3.452,0,0,0-.707-2.214c-.935-1.022-3.563-1.1-4.521,0-1.887-.473-4.34.4-4.206,3.359a5.491,5.491,0,0,0-2.792-.467,3.271,3.271,0,0,0-1.846,1.057,4.673,4.673,0,0,0-.409.654,3.09,3.09,0,0,0,1.063,3.966" transform="translate(-20.827 -7.976)"/><path class="a" d="M75.425,59.717a1.676,1.676,0,0,0-1.069-2.3,1.46,1.46,0,0,0-1.25.129h0a.782.782,0,0,0-.117.1.867.867,0,1,0,1.449.812.847.847,0,0,1,.321.409c.491,1.548-1.25,2.1-1.25,2.1a6.741,6.741,0,0,1-6.186-.829L68,59.787a1.5,1.5,0,0,1,.584-.134.544.544,0,0,0,0,.117.762.762,0,1,0,1.525,0,.707.707,0,0,0-.152-.467c-.45-.678-2-.228-2-.228a2.786,2.786,0,0,0,.053-2.185A2.1,2.1,0,0,0,65.6,55.88a1.046,1.046,0,0,0-.713.7c-.228,1.168.736,1.262.736,1.262.7.035.7-.526.7-.526.088-.543-.678-.584-.678-.584.648-1.139,2.687.73,1.355,2.377-.14.164-.269.058-.269.058a27.15,27.15,0,0,1-4.159-2.395c-.058-.648-.625-.981-.52-1.168.093-.041.432.129.619-.152a17.634,17.634,0,0,0,.35-1.863,6.741,6.741,0,0,0,4.282.584.491.491,0,0,0,.339-.485c.035-.806-2.056-5.543-2.109-7.214.987.491,1.595-1.034,1.752-1.5,1.326.584,1.782,12.9,2.8,13.312.508.2.713-.631.759-.783A40.351,40.351,0,0,0,72.44,44.9a34.329,34.329,0,0,0-1.069-7.593c-.415-1.419-1.221-4.322-3.1-4.72a1.332,1.332,0,0,0-1.53,1.367c0,.637.456.946.257,1.571a5.356,5.356,0,0,0-.584,1.314c-.111.456.292.643.164,1.127-.584-.088-.888.432-1.822.193.584-.28.613-2.015-.129-2.336-.111-.047-.239-.064-.257-.164a2.4,2.4,0,0,0,.362-.5,2.336,2.336,0,0,0,.082-2.231c.31,0,.631-.537.672-.993h0a.314.314,0,0,0,0-.035h0a2.1,2.1,0,0,1,.164-.888.23.23,0,1,0-.415-.2c-.181.391-.625.169-.438-.216a.239.239,0,0,0-.105-.31.228.228,0,0,0-.3.117c-.175.374-.584.164-.426-.21A.228.228,0,1,0,63.556,30c-.181.386-.625.169-.444-.21a.245.245,0,0,0-.105-.315.239.239,0,0,0-.3.117,1.84,1.84,0,0,1-.537.742c-.415.076-.3.549-.257.87a1.121,1.121,0,0,0-1.384.952h-.012c-.643,0-1.256.345-1.209.935a1.034,1.034,0,0,0,.584.759c.07,0-.035-.356.3-.38A.876.876,0,0,1,61,34c.064.327-.2,1.121.841,1.238v.333a2.92,2.92,0,0,0-.847,0c-.66.105-1.565.479-1.787,1.133a1.279,1.279,0,0,0-.041.5c0,.134.14.3.123.467a.864.864,0,0,1-.2.3,2.033,2.033,0,0,1-1.238.584,1.513,1.513,0,0,1-1.168-.584c-.666-.894.2-2.442.181-3.02-.041-1.536-1.98-.619-2.745-.222a7.547,7.547,0,0,0-2.36,2.056,6.478,6.478,0,0,0-.905,1.384c-.035.082-.105.093-.187.093a4.673,4.673,0,0,0,1.636.444,2.617,2.617,0,0,0,1.84-.5.438.438,0,0,1,.263-.093.426.426,0,0,1,.292.129l.222.181.245.193.14.111.4.315.076.058.432.333.4.286h0a.193.193,0,0,1,.064.105.286.286,0,0,1-.076.193s-.082.093-.2.245a8.072,8.072,0,0,0-1.022,1.752,2.365,2.365,0,0,0,1.84,1.39.964.964,0,0,0,1.122-.783l.053.058c.082-.076.467,2,.975,2.564-.473.222-1.209.97-.812,3.02a18.691,18.691,0,0,1-1.454-1.215,2.208,2.208,0,0,0-1.752-1.525,9.019,9.019,0,0,0,.783,1.752,4.982,4.982,0,0,1,.5,2.8c.485-.5.409-1.869.409-1.869a.426.426,0,0,1,.105-.047c.1,0,.584.94,1.425,1.168a10.859,10.859,0,0,0,3.5,3.814c0,.456.035,1.536-.257,1.536-.935.2-1.8-.426-2.629-.38l-.146-.064c-3.546-1.77-8.23,1.9-9.03,2.617-.409.38-.888-.14-.888-.14a1.308,1.308,0,0,0-2.015,0s-.479.52-.888.14c-.724-.672-4.971-3.96-8.44-2.839,0-.187-.479-.286-.584-.333a3.663,3.663,0,0,1-.689-.38,4.778,4.778,0,0,0-1.425-.123,1.752,1.752,0,0,1-.549-.2,5.339,5.339,0,0,1-1.542-1.262l-.251-.327a2.255,2.255,0,0,1-.391-.736,5.248,5.248,0,0,1,.2-2.114c.076-.514.058-.549.105-1.1a6.525,6.525,0,0,0,3.622-3.294,3.822,3.822,0,0,0,.187-.35h.3c.882,0,1.472-.485,2.442-.368,0,.053.129.456.754.713a3.873,3.873,0,0,0,.3,1.647,2.567,2.567,0,0,0,.169.228,6.63,6.63,0,0,0,.526-2.22.473.473,0,0,1-.076-.193,2.056,2.056,0,0,0-1.168-1.641,5.719,5.719,0,0,1-.713-.327,2.576,2.576,0,0,1-.935-.929,2.57,2.57,0,0,0,.234-.257,5.421,5.421,0,0,0,1.168-2.634c.473-.643,1.752-.391,2.278-.3a1.086,1.086,0,0,1,.444.14c.14.1.175.321.368.4a1.513,1.513,0,0,0,.689,0,1.752,1.752,0,0,1,.21.38,1.42,1.42,0,0,0,.2.257,4.977,4.977,0,0,0,1.752-.508.333.333,0,0,1-.093-.082,2.056,2.056,0,0,0-1.075-.8c-.491-.082-.584-.514-1.057-.584a1.822,1.822,0,0,0-.672-.047,12.022,12.022,0,0,1-2.728-.327c-.975-.07-.946.584-1.279,1.081a3.236,3.236,0,0,1-.421.584c-.251.245-.549.251-.853.485l-.14-.38a3.148,3.148,0,0,0-.409-.958A3.283,3.283,0,0,0,34.5,35.512a1.116,1.116,0,0,1-.386-.21.187.187,0,0,1,0-.321c.315-.181.859-.117,1.221-.28.882-.409.584-1.168.228-1.221a8.125,8.125,0,0,1-1.4-.386c-.216-.134-.584-.806-.935-.975s-.251-.736-.584-.876a1.168,1.168,0,0,0-.631.175,1.533,1.533,0,0,0-.508-1.086c-.3-.169-.4.093-.391.269s.432.362.514,1.046l-.216.134a1.355,1.355,0,0,0-.473-.888c-.3-.169-.4.093-.391.263s.38.339.5.911l-.251.222c-.584-.164-.754-.584-.9-.584s-.438.047-.3.362a1.39,1.39,0,0,0,.859.584c-.058.064-.111.129-.164.193-.689-.14-.853-.584-1.011-.619s-.444.053-.3.362c.2.438.981.584,1.051.619a.759.759,0,0,0-.158.479c-.537-.064-1.484.228-1.308.859.175.129.812-.391,1.39-.1a2.12,2.12,0,0,0,1.139.73c.216.169.245.479.35.754a6.209,6.209,0,0,0,.829,1.384c.327.5.672,1.028,1.016,1.46a.87.87,0,0,1,.058.426A13.163,13.163,0,0,1,31.3,41c-.479.45-5.093,3.966-5.672,5.491a3.242,3.242,0,0,0-.181,1.238c-.28.152-.9.391-1.092.117-.356-.5.339-.87.187-1.349a.368.368,0,0,0-.508-.187,1.548,1.548,0,0,0,.169,2.611c.8.333.911-.526,1.53-.181.146.082,1.606,1.39,1.361,2.424a1.209,1.209,0,0,1-.1.239c-.321.4-.853.707-1.221,1.081-.759.479.724,3.5.584,5.07-.088.584.491.52.847,1.449a1.069,1.069,0,0,0-.894.368.678.678,0,0,0-.152.467.759.759,0,1,0,1.519,0,.666.666,0,0,0,0-.117,1.507,1.507,0,0,1,.584.134l.672.356a6.787,6.787,0,0,1-6.186.829s-1.752-.584-1.25-2.1a.841.841,0,0,1,.321-.409.864.864,0,0,0,.345.52.875.875,0,0,0,1.133-1.32.789.789,0,0,0-.164-.152h0a1.466,1.466,0,0,0-1.256-.134,1.676,1.676,0,0,0-1.081,2.272s-1.133-.257-1.56.263a.631.631,0,0,0-.134.426h0a.94.94,0,0,0,.123.368.654.654,0,0,0,1.051.041h0a.29.29,0,0,1,.391.076c2.547,2.652,6.694,1.56,9-.216a13.966,13.966,0,0,1,2.7-2.068c.555.239,1.168.415,1.711.619a5.52,5.52,0,0,0,1.051,3.382,1.254,1.254,0,0,1-1.752.543.905.905,0,0,1-.123-1.373s.461-.386.66.093a.45.45,0,0,0-.426.444.444.444,0,1,0,.888,0,1.092,1.092,0,0,0-.362-.975A1.168,1.168,0,0,0,33,61.067c-.964.152-1.513,2.167.4,3.008,0,0,1.5.683,2.272-.432,0,0,0-.164.28.117,1.589,1.536,5.129,1.092,6.536.047a7.92,7.92,0,0,1,.748-.409,1.1,1.1,0,1,0,1.3-1.116,2.337,2.337,0,0,0-1.752.415,7.686,7.686,0,0,1-1.022.584A6.349,6.349,0,0,0,42.5,61.1c1.542.169,3.131.28,4.772.315A4.673,4.673,0,0,1,47,62.924s-.584.239-.584.648c0,0-.064.3.45.713a2.827,2.827,0,0,1,.485.736s.029.45.648.45h.234c.619,0,.648-.45.648-.45a2.856,2.856,0,0,1,.485-.736c.514-.415.45-.713.45-.713,0-.409-.584-.648-.584-.648a4.708,4.708,0,0,1-.269-1.507c1.641-.035,3.23-.146,4.772-.315a6.308,6.308,0,0,0,.748,2.179,7.821,7.821,0,0,1-1.022-.584,2.336,2.336,0,0,0-1.752-.415,1.1,1.1,0,1,0,1.3,1.116,7.926,7.926,0,0,1,.748.409c1.4,1.046,4.947,1.489,6.536-.047.286-.28.275-.117.275-.117.771,1.116,2.272.432,2.272.432,1.9-.835,1.355-2.856.4-3.008a1.168,1.168,0,0,0-1.016.275,1.092,1.092,0,0,0-.362.975.444.444,0,1,0,.888,0,.45.45,0,0,0-.426-.444c.2-.479.66-.093.66-.093a.905.905,0,0,1-.129,1.379,1.255,1.255,0,0,1-1.752-.543,5.52,5.52,0,0,0,1.051-3.376c.584-.2,1.168-.386,1.717-.625a14.019,14.019,0,0,1,2.687,2.068c2.3,1.752,6.425,2.868,9,.216.2-.21.345-.134.386-.076a.654.654,0,0,0,1.051-.041.981.981,0,0,0,.123-.368h0a.648.648,0,0,0-.134-.426c-.426-.52-1.56-.263-1.56-.263m-45.929-.537s-.129.111-.263-.058c-1.338-1.647.707-3.5,1.355-2.377,0,0-.771,0-.683.584,0,0,0,.584.707.526,0,0,.964-.1.736-1.262a1.051,1.051,0,0,0-.713-.7,2.1,2.1,0,0,0-2.407,1.011,2.8,2.8,0,0,0-.169.888,1.437,1.437,0,0,0-.66-.321,8.276,8.276,0,0,1-.514-4.416,4.468,4.468,0,0,0,3.5-3.277,1.425,1.425,0,0,1,.859,1.022c.041.35-.123.713.082,1A5.742,5.742,0,0,0,32.7,52.883a27.8,27.8,0,0,0,2.278,1.606c.269.058.438-.146.672-.105a.514.514,0,0,1,.2.128,2.757,2.757,0,0,0,.327.275,17.618,17.618,0,0,0-2,1.56s-.654.847-4.673,2.845m6.343,1.834a3.832,3.832,0,0,1-.292.864,5.683,5.683,0,0,1-.584-2.336c.426.14.847.292,1.291.415a6.806,6.806,0,0,0-.386,1.063m5.058,2.407s-2.7,1.057-4.55-.853a10.345,10.345,0,0,1,.6-2.436,38.93,38.93,0,0,0,4.673.882c-.111,1.028-.333,2.336-.765,2.412m-2.669-5.257a3.043,3.043,0,0,1,2.085-.859,1.53,1.53,0,0,1,1.419,1.489c-1.308-.187-2.5-.4-3.5-.631m2.687-1.706a6,6,0,0,0-3.382,1.536c-.812-.2-1.542-.4-2.114-.584a4.036,4.036,0,0,1,.415-.678,5.607,5.607,0,0,1,6.39-1.215c.082,0-.181.689-1.308.94m1.9,2.5c.175-1.636.292-3.014.888-3.008a1,1,0,0,1,.718.415c.514.713,1.9,1.565,2.535,2.862-1.484-.041-2.886-.129-4.141-.269m6.489.269c.637-1.3,2.021-2.15,2.535-2.862a1,1,0,0,1,.718-.415c.584,0,.713,1.373.888,3.008-1.256.146-2.658.234-4.141.269m4.714-3.7A5.605,5.605,0,0,1,60.4,56.768a3.99,3.99,0,0,1,.421.683c-.584.181-1.3.38-2.109.584a6,6,0,0,0-3.388-1.542c-1.127-.251-1.39-.911-1.308-.94m1.91,1.787a3.037,3.037,0,0,1,2.091.864c-1.016.234-2.2.45-3.5.631.222-1.513,1.425-1.5,1.425-1.5m-.584,6.1c-.432-.064-.654-1.384-.765-2.407a39.06,39.06,0,0,0,4.673-.882,10.373,10.373,0,0,1,.631,2.436c-1.857,1.91-4.55.853-4.55.853m5.35-1.542a3.9,3.9,0,0,1-.292-.864,6.975,6.975,0,0,0-.38-1.057c.438-.123.859-.269,1.285-.409a5.666,5.666,0,0,1-.584,2.336" transform="translate(-7.943 -12.252)"/><path class="a" d="M148.681,21.19h.058c.2,1.092.38,1.881.514,2.477l1.4,6.18h2.921l1.5-6.186c.134-.584.321-1.384.5-2.477h.058l.21,8.657h2.249l-.4-10.251h-3.359s-1.338,5.181-2.021,8.475h-.047c-.584-3.312-1.717-8.475-1.717-8.475h-3.417l-.4,10.251h1.822Z" transform="translate(-61.013 -8.147)"/><rect class="a" width="2.004" height="1.805" transform="translate(99.316 11.221)"/><path class="a" d="M169.5,31.852h1.974V24.41H168.64v1.244l.864.181Z" transform="translate(-70.124 -10.152)"/><path class="a" d="M178.6,26.124a2.4,2.4,0,0,1,1.308-.456c.911,0,1.338.532,1.338,1.653v4.422h2.027v-4.6c0-1.881-.748-2.991-2.629-2.991a3.084,3.084,0,0,0-2.336,1l-.3-.853H176.64v7.442H178.6Z" transform="translate(-73.45 -10.043)"/><rect class="a" width="2.004" height="1.805" transform="translate(111.969 11.221)"/><path class="a" d="M191.16,31.852h1.974V24.41H190.29v1.244l.87.181Z" transform="translate(-79.127 -10.152)"/><path class="a" d="M200.041,30.5a3.464,3.464,0,0,1-1.752-.514l-.409,1.384a4.726,4.726,0,0,0,2.231.549c1.928,0,2.921-1.046,2.921-2.4,0-2.43-3.218-2.079-3.218-3.236,0-.426.333-.683,1.016-.683a4.427,4.427,0,0,1,1.793.379l.275-1.443a5.975,5.975,0,0,0-2.1-.362c-2,0-2.839.987-2.839,2.079,0,2.535,3.172,2.1,3.172,3.435,0,.456-.438.818-1.092.818" transform="translate(-82.283 -10.052)"/><path class="a" d="M209.55,28.133c0,1.869.864,2.488,2.185,2.488a4.27,4.27,0,0,0,2-.5l-.3-1.46a2.681,2.681,0,0,1-1.139.275.748.748,0,0,1-.789-.853V24.441H213.5V23.033h-1.992V21.1l-1.957.637v1.291h-1.11v1.414h1.11Z" transform="translate(-86.674 -8.775)"/><path class="a" d="M222.217,31.891a6.1,6.1,0,0,0,2.81-.73l-.368-1.4a4.977,4.977,0,0,1-2.185.625,1.691,1.691,0,0,1-1.916-1.84h4.632v-.87c0-1.869-.882-3.54-3.125-3.54-2.383,0-3.5,1.565-3.5,3.855,0,2.459,1.367,3.89,3.662,3.89m-.275-6.285c1.034,0,1.32.818,1.32,1.752h-2.7c0-.882.409-1.752,1.4-1.752" transform="translate(-90.882 -10.04)"/><path class="a" d="M234.439,26.343a2.144,2.144,0,0,1,1.338-.5,3.341,3.341,0,0,1,.929.123l.047-1.688a3.394,3.394,0,0,0-.864-.105,1.992,1.992,0,0,0-1.752,1.168h-.047l-.21-1H232.5v7.412h1.974Z" transform="translate(-96.678 -10.052)"/><rect class="a" width="2.004" height="1.805" transform="translate(141.768 11.221)"/><path class="a" d="M242.17,31.852h1.974V24.41H241.3v1.244l.87.181Z" transform="translate(-100.338 -10.152)"/><path class="a" d="M252.225,31.9c2.22,0,3.5-1.349,3.5-3.89,0-2.185-1.244-3.855-3.5-3.855s-3.5,1.671-3.5,3.855c0,2.553,1.262,3.89,3.5,3.89m0-6.3c.929,0,1.46.625,1.46,2.412s-.485,2.43-1.46,2.43-1.443-.7-1.443-2.43.514-2.412,1.443-2.412" transform="translate(-103.423 -10.044)"/><path class="a" d="M271.571,29.841a2.412,2.412,0,0,0,1.974-.97l.228.818h1.612V19.21h-1.974v2.249a4.585,4.585,0,0,0,.181,1.367,2.418,2.418,0,0,0-1.875-.73c-1.8,0-3.207,1.414-3.207,3.873,0,2.658,1.349,3.873,3.037,3.873m.485-6.256a2.658,2.658,0,0,1,1.349.362v3.814A1.963,1.963,0,0,1,272,28.4c-.94,0-1.5-.666-1.5-2.447s.584-2.371,1.536-2.371" transform="translate(-111.649 -7.989)"/><path class="a" d="M286.5,31.891a6.1,6.1,0,0,0,2.81-.73l-.38-1.4a4.982,4.982,0,0,1-2.185.625,1.691,1.691,0,0,1-1.916-1.84h4.632v-.87c0-1.869-.882-3.54-3.131-3.54-2.383,0-3.5,1.565-3.5,3.855,0,2.459,1.367,3.89,3.662,3.89m-.275-6.285c1.034,0,1.32.818,1.32,1.752h-2.716c0-.882.409-1.752,1.4-1.752" transform="translate(-117.605 -10.04)"/><path class="a" d="M150.06,54.822c-.818,0-1.2-.093-1.2-.713v-8.4H146.9v8.5c0,1.32.543,2.126,2.068,2.126a6.22,6.22,0,0,0,1.092-.123Z" transform="translate(-61.084 -19.086)"/><path class="a" d="M156.729,53.8c-1.793,0-2.81.818-2.81,2.2a2.336,2.336,0,0,0,2.488,2.383,2.669,2.669,0,0,0,2.173-1.034l.275.882H160.2v-4.72c0-1.9-.911-2.868-3.02-2.868a7.517,7.517,0,0,0-2.921.584l.5,1.414a5.38,5.38,0,0,1,2.231-.5c.759,0,1.308.3,1.308,1.262v.38Zm1.565,2.734a2.225,2.225,0,0,1-1.32.5.987.987,0,0,1-1.11-1.092c0-.584.38-.958,1.2-.958h1.232Z" transform="translate(-64.003 -21.147)"/><path class="a" d="M169.461,56.986a3.458,3.458,0,0,1-1.752-.514l-.409,1.384a4.72,4.72,0,0,0,2.231.549c1.928,0,2.921-1.046,2.921-2.4,0-2.43-3.218-2.079-3.218-3.236,0-.426.333-.683,1.016-.683a4.422,4.422,0,0,1,1.794.38l.274-1.443a5.981,5.981,0,0,0-2.1-.362c-2,0-2.839.987-2.839,2.079,0,2.535,3.172,2.1,3.172,3.435,0,.456-.438.818-1.092.818" transform="translate(-69.567 -21.151)"/><path class="a" d="M188.745,47.59a4.287,4.287,0,0,1,2.523.713l.759-1.612a6.425,6.425,0,0,0-3.5-.864c-2.921,0-4.433,2.039-4.433,5.222,0,3.417,1.548,5.333,4.433,5.333a6.057,6.057,0,0,0,3.5-1.092l-.637-1.612a4.755,4.755,0,0,1-2.681.946c-1.671,0-2.523-1.215-2.523-3.586,0-2.249.853-3.446,2.553-3.446" transform="translate(-76.548 -19.132)"/><path class="a" d="M201.394,55.431V50.91H199.42v4.509c0,2.05.853,3.084,2.7,3.084a2.92,2.92,0,0,0,2.336-1.063l.3.911h1.308V50.91h-2.021v5.637a2.377,2.377,0,0,1-1.338.438c-.894,0-1.308-.409-1.308-1.548" transform="translate(-82.923 -21.255)"/><path class="a" d="M216.75,54.822c-.818,0-1.2-.093-1.2-.713v-8.4H213.59v8.5c0,1.32.543,2.126,2.068,2.126a6.22,6.22,0,0,0,1.092-.123Z" transform="translate(-88.815 -19.086)"/><path class="a" d="M221.43,48.243v1.291h-1.11v1.414h1.11v3.692c0,1.869.864,2.488,2.185,2.488a4.276,4.276,0,0,0,2.009-.532l-.3-1.46a2.675,2.675,0,0,1-1.139.275.748.748,0,0,1-.789-.853V50.941h2V49.533H223.4V47.6Z" transform="translate(-91.614 -19.874)"/><path class="a" d="M234.083,58.5a2.921,2.921,0,0,0,2.336-1.063l.3.911h1.308V50.91H236.01v5.637a2.377,2.377,0,0,1-1.338.438c-.894,0-1.308-.409-1.308-1.548V50.91H231.39v4.509c0,2.05.853,3.084,2.7,3.084" transform="translate(-96.217 -21.255)"/><path class="a" d="M245.52,58.252h1.974V52.843a2.144,2.144,0,0,1,1.338-.5,3.341,3.341,0,0,1,.929.123l.047-1.688a3.393,3.393,0,0,0-.865-.105,1.992,1.992,0,0,0-1.752,1.168h-.047l-.21-1h-1.378Z" transform="translate(-102.092 -21.155)"/><path class="a" d="M254.3,51.252l.5,1.414a5.374,5.374,0,0,1,2.231-.5c.759,0,1.308.3,1.308,1.262v.38h-1.565c-1.793,0-2.81.818-2.81,2.2a2.336,2.336,0,0,0,2.488,2.383,2.669,2.669,0,0,0,2.173-1.034l.275.882h1.349v-4.72c0-1.9-.911-2.868-3.02-2.868a7.523,7.523,0,0,0-2.921.584m4.042,5.257a2.22,2.22,0,0,1-1.32.5.987.987,0,0,1-1.11-1.092c0-.584.38-.958,1.2-.958h1.232Z" transform="translate(-105.605 -21.147)"/><path class="a" d="M269.461,56.994a3.464,3.464,0,0,1-1.752-.514l-.409,1.4a4.726,4.726,0,0,0,2.231.549c1.928,0,2.921-1.046,2.921-2.4,0-2.43-3.218-2.079-3.218-3.236,0-.426.333-.683,1.016-.683a4.427,4.427,0,0,1,1.793.379l.275-1.443a5.975,5.975,0,0,0-2.1-.362c-2,0-2.839.987-2.839,2.079,0,2.535,3.172,2.1,3.172,3.435,0,.456-.438.818-1.092.818" transform="translate(-111.146 -21.159)"/><path class="a" d="M280.513,60h-2v1.916l.473.228c0,.713-.2.97-.473,1.034v1.034c1.273-.134,2-.666,2-1.945Z" transform="translate(-115.808 -25.049)"/><path class="a" d="M146.9,72.21v8.5c0,1.32.549,2.126,2.068,2.126a6.222,6.222,0,0,0,1.092-.123v-1.4c-.818,0-1.2-.093-1.2-.713v-8.4Z" transform="translate(-61.084 -30.15)"/><path class="a" d="M156.729,80.3c-1.793,0-2.81.818-2.81,2.2a2.336,2.336,0,0,0,2.488,2.383,2.669,2.669,0,0,0,2.173-1.034l.275.882H160.2v-4.72c0-1.9-.911-2.868-3.02-2.868a7.517,7.517,0,0,0-2.921.584l.5,1.414a5.379,5.379,0,0,1,2.231-.5c.759,0,1.308.3,1.308,1.262v.38Zm1.565,2.734a2.225,2.225,0,0,1-1.32.5.987.987,0,0,1-1.11-1.092c0-.584.38-.958,1.2-.958h1.232Z" transform="translate(-64.003 -32.211)"/><path class="a" d="M172.432,82.494c0-2.43-3.218-2.079-3.218-3.236,0-.426.333-.683,1.016-.683a4.434,4.434,0,0,1,1.793.38l.275-1.443a5.963,5.963,0,0,0-2.1-.362c-2,0-2.839.987-2.839,2.079,0,2.535,3.172,2.1,3.172,3.435,0,.456-.438.818-1.092.818a3.458,3.458,0,0,1-1.752-.514l-.409,1.384a4.731,4.731,0,0,0,2.231.543c1.928,0,2.921-1.046,2.921-2.4" transform="translate(-69.558 -32.211)"/><path class="a" d="M189.392,72.59H186.08L183.3,82.847h1.945l.549-2.336h3.5l.532,2.336h2.231Zm-3.236,6.332,1.121-4.585h.625l1.063,4.591Z" transform="translate(-76.22 -30.309)"/><path class="a" d="M201.831,78.309h-.047l-.21-1H200.19v7.447h1.974V79.343a2.144,2.144,0,0,1,1.338-.5,3.358,3.358,0,0,1,.929.123l.047-1.688a3.382,3.382,0,0,0-.865-.105,1.992,1.992,0,0,0-1.752,1.139" transform="translate(-83.243 -32.219)"/><path class="a" d="M211.844,83.627a4.276,4.276,0,0,0,2-.5l-.3-1.46a2.675,2.675,0,0,1-1.168.275.748.748,0,0,1-.789-.853V77.441h1.992V76.033h-1.963V74.1l-1.957.637v1.291h-1.11v1.414h1.11v3.692c0,1.869.864,2.488,2.185,2.488" transform="translate(-86.719 -30.939)"/><path class="a" d="M225.275,80.68c0-1.869-.882-3.54-3.131-3.54-2.383,0-3.5,1.565-3.5,3.855,0,2.459,1.367,3.89,3.662,3.89a6.11,6.11,0,0,0,2.81-.73l-.38-1.4a4.988,4.988,0,0,1-2.19.625,1.691,1.691,0,0,1-1.916-1.84h4.65Zm-4.632-.3c0-.882.409-1.752,1.4-1.752s1.32.818,1.32,1.752Z" transform="translate(-90.915 -32.207)"/><path class="a" d="M234.361,83.5a3.458,3.458,0,0,1-1.752-.514l-.409,1.384a4.72,4.72,0,0,0,2.231.549c1.928,0,2.921-1.046,2.921-2.4,0-2.43-3.218-2.079-3.218-3.236,0-.426.333-.683,1.016-.683a4.423,4.423,0,0,1,1.794.38l.274-1.443a5.981,5.981,0,0,0-2.1-.362c-2,0-2.839.987-2.839,2.079,0,2.535,3.172,2.1,3.172,3.435,0,.456-.438.818-1.092.818" transform="translate(-96.554 -32.219)"/><path class="a" d="M253.4,77.41l-1.595,6.244h-.029l-1.583-6.244h-2.231l2.22,7.518,1.384-.245-.058.21c-.275.958-.789,1.5-1.577,1.5a2.518,2.518,0,0,1-1.384-.532h-.181l-.625,1.355a3.844,3.844,0,0,0,2.1.742c1.536,0,2.611-.789,3.248-2.921l2.3-7.623Z" transform="translate(-103.015 -32.322)"/><path class="a" d="M274.465,80.68c0-1.869-.882-3.54-3.131-3.54-2.383,0-3.5,1.565-3.5,3.855,0,2.459,1.367,3.89,3.662,3.89a6.11,6.11,0,0,0,2.81-.73l-.38-1.4a4.988,4.988,0,0,1-2.19.625,1.691,1.691,0,0,1-1.916-1.84h4.632Zm-4.632-.3c0-.882.409-1.752,1.4-1.752s1.32.818,1.32,1.752Z" transform="translate(-111.366 -32.207)"/><path class="a" d="M283.747,80.6V72.21H281.79v8.5c0,1.32.549,2.126,2.068,2.126a6.231,6.231,0,0,0,1.092-.123v-1.4c-.824,0-1.2-.093-1.2-.713" transform="translate(-117.172 -30.15)"/><path class="a" d="M150.084,99.069H147V109.32h1.992v-3.569h1.121c2.418,0,3.9-1.5,3.9-3.5,0-2.2-1.811-3.207-3.9-3.207m-.047,5.117h-1.081v-3.388h1.081c1.139,0,1.84.543,1.84,1.595a1.694,1.694,0,0,1-1.84,1.84" transform="translate(-61.126 -41.353)"/><path class="a" d="M162.549,106.8c-1.793,0-2.81.818-2.81,2.2a2.336,2.336,0,0,0,2.488,2.383,2.669,2.669,0,0,0,2.173-1.034l.275.882h1.349v-4.725c0-1.9-.911-2.868-3.02-2.868a7.523,7.523,0,0,0-2.921.584l.5,1.414a5.374,5.374,0,0,1,2.231-.5c.759,0,1.308.3,1.308,1.262v.38Zm1.565,2.734a2.22,2.22,0,0,1-1.32.5.987.987,0,0,1-1.11-1.092c0-.584.38-.958,1.2-.958h1.232Z" transform="translate(-66.423 -43.271)"/><path class="a" d="M175.814,110.127a4.276,4.276,0,0,0,2-.5l-.3-1.46a2.681,2.681,0,0,1-1.168.275.748.748,0,0,1-.789-.853v-3.645h1.992v-1.414h-1.992V100.6l-1.957.637v1.291h-1.11v1.414h1.11v3.692c0,1.869.864,2.488,2.185,2.488" transform="translate(-71.725 -42.003)"/><path class="a" d="M188.006,105.463l.047-1.688a3.394,3.394,0,0,0-.864-.105,1.992,1.992,0,0,0-1.752,1.168h-.047l-.21-1H183.8v7.442h1.974v-5.409a2.144,2.144,0,0,1,1.338-.5,3.341,3.341,0,0,1,.929.123" transform="translate(-76.428 -43.283)"/><rect class="a" width="2.004" height="1.805" transform="translate(113.336 57.503)"/><path class="a" d="M192.63,105.154l.87.181v6.016h1.974V103.91H192.63Z" transform="translate(-80.1 -43.383)"/><path class="a" d="M211.749,111.243v-4.6c0-1.881-.625-2.991-2.751-2.991a2.921,2.921,0,0,0-2.249,1.046,2.394,2.394,0,0,0-2.336-1.046,2.8,2.8,0,0,0-2.2,1.016l-.333-.864H200.54v7.442h2.021v-5.637a2.255,2.255,0,0,1,1.262-.456c.929,0,1.338.532,1.338,1.653v4.422h2v-4.6a5.258,5.258,0,0,0-.076-1.016,2.3,2.3,0,0,1,1.262-.456c.929,0,1.4.532,1.4,1.653v4.422Z" transform="translate(-83.388 -43.274)"/><path class="a" d="M228.929,107.505c0-2.185-1.244-3.855-3.5-3.855s-3.5,1.671-3.5,3.855c0,2.553,1.262,3.89,3.5,3.89s3.5-1.349,3.5-3.89m-3.5,2.43c-.97,0-1.443-.7-1.443-2.43s.514-2.412,1.443-2.412,1.46.625,1.46,2.412-.485,2.43-1.46,2.43" transform="translate(-92.279 -43.275)"/><path class="a" d="M241.084,106.821v4.422h2.021v-4.6c0-1.881-.742-2.991-2.629-2.991a3.084,3.084,0,0,0-2.336,1l-.3-.853H236.47v7.442h1.992v-5.637a2.4,2.4,0,0,1,1.308-.456c.911,0,1.338.532,1.338,1.653" transform="translate(-98.329 -43.274)"/><path class="a" d="M250.17,105.154l.864.181v6.016h1.974V103.91H250.17Z" transform="translate(-104.026 -43.383)"/><rect class="a" width="2.004" height="1.805" transform="translate(146.95 57.503)"/><path class="a" d="M261.095,103.65c-2.278,0-3.5,1.671-3.5,3.855,0,2.553,1.262,3.89,3.5,3.89s3.5-1.349,3.5-3.89c0-2.185-1.244-3.855-3.5-3.855m0,6.285c-.97,0-1.443-.7-1.443-2.43s.514-2.412,1.443-2.412,1.46.625,1.46,2.412-.485,2.43-1.46,2.43" transform="translate(-107.195 -43.275)"/></svg>