<?xml version="1.0" encoding="UTF-8" standalone="no"?>
<!-- Created with Inkscape (http://www.inkscape.org/) -->

<svg
   xmlns:dc="http://purl.org/dc/elements/1.1/"
   xmlns:cc="http://creativecommons.org/ns#"
   xmlns:rdf="http://www.w3.org/1999/02/22-rdf-syntax-ns#"
   xmlns:svg="http://www.w3.org/2000/svg"
   xmlns="http://www.w3.org/2000/svg"
   xmlns:sodipodi="http://sodipodi.sourceforge.net/DTD/sodipodi-0.dtd"
   xmlns:inkscape="http://www.inkscape.org/namespaces/inkscape"
   width="210mm"
   height="297mm"
   viewBox="0 0 210 297"
   version="1.1"
   id="svg452"
   inkscape:version="0.92.5 (2060ec1f9f, 2020-04-08)"
   sodipodi:docname="cisne_logo.svg">
  <defs
     id="defs446" />
  <sodipodi:namedview
     id="base"
     pagecolor="#ffffff"
     bordercolor="#666666"
     borderopacity="1.0"
     inkscape:pageopacity="0.0"
     inkscape:pageshadow="2"
     inkscape:zoom="0.35"
     inkscape:cx="-121.42857"
     inkscape:cy="560"
     inkscape:document-units="mm"
     inkscape:current-layer="layer1"
     showgrid="false"
     inkscape:window-width="1920"
     inkscape:window-height="1080"
     inkscape:window-x="0"
     inkscape:window-y="0"
     inkscape:window-maximized="1" />
  <metadata
     id="metadata449">
    <rdf:RDF>
      <cc:Work
         rdf:about="">
        <dc:format>image/svg+xml</dc:format>
        <dc:type
           rdf:resource="http://purl.org/dc/dcmitype/StillImage" />
        <dc:title></dc:title>
      </cc:Work>
    </rdf:RDF>
  </metadata>
  <g
     inkscape:label="Layer 1"
     inkscape:groupmode="layer"
     id="layer1">
    <path
       style="fill:#000000;stroke-width:0.23565401"
       d="M 100.78733,207.91569 C 87.92776,206.63144 77.264784,202.44788 67.776667,194.96437 63.276363,191.41479 57.73301,185.16966 54.526817,180.03733 36.004301,150.38695 46.959594,111.08996 78.140722,95.333287 86.77182,90.971806 95.09829,89.016971 105.04473,89.016971 c 9.93117,0 18.11285,1.917037 26.81119,6.282073 17.28743,8.675156 29.24267,25.314326 32.17391,44.778966 0.63755,4.23387 0.64506,12.51824 0.015,16.64267 -3.05024,19.96848 -15.10706,36.56419 -32.81061,45.16235 -5.85694,2.84459 -11.39668,4.57795 -17.67465,5.53008 -2.61761,0.397 -10.66018,0.71339 -12.77226,0.50258 z m 9.19706,-4.24393 c 13.68363,-1.36911 25.58801,-7.09869 34.94992,-16.82115 8.09267,-8.40427 13.15918,-18.68943 14.98165,-30.41272 0.62638,-4.02947 0.62794,-11.90903 0.002,-15.92669 -1.47724,-9.49828 -5.07542,-18.0634 -10.77456,-25.64734 -2.02918,-2.70036 -7.99086,-8.65258 -10.64722,-10.63029 C 121.57356,91.633579 99.42343,89.504278 80.660715,98.673647 67.321952,105.19231 57.036392,117.00803 52.418642,131.1173 c -4.552469,13.90942 -3.55703,28.67686 2.81055,41.69732 4.431618,9.06155 11.695565,17.10686 20.528962,22.73758 0.851509,0.54262 2.883498,1.6539 4.515424,2.46942 9.255382,4.62441 19.841612,6.63781 29.710042,5.65014 z m -5.02832,-2.34688 c -1.11949,-0.65086 -1.63474,-4.31422 -0.82663,-5.87687 0.89021,-1.72149 3.55408,-1.63789 4.39673,0.13768 0.33141,0.69851 0.41802,1.41596 0.34442,2.86442 -0.0876,1.7331 -0.17121,1.99578 -0.81511,2.54946 -0.77562,0.66724 -2.24585,0.82133 -3.09966,0.32491 z m 2.00069,-1.07824 c 0.5574,-0.40751 0.81517,-2.25836 0.4891,-3.51087 -0.43854,-1.6847 -1.76348,-1.7305 -2.23763,-0.0781 -0.28885,1.00711 0.005,3.02643 0.51544,3.53631 0.4771,0.47709 0.64225,0.4841 1.23319,0.0515 z m -7.77914,0.71764 c -0.80139,-0.56124 -1.10057,-1.90151 -0.83834,-3.75622 0.37547,-2.65471 1.41757,-3.59453 3.39582,-3.06177 0.80666,0.21728 1.10513,0.46459 1.39395,1.15599 0.51698,1.23725 0.46858,1.41226 -0.38949,1.41226 -0.63394,0 -0.77021,-0.11515 -0.8386,-0.70953 -0.0626,-0.54474 -0.23679,-0.72765 -0.74878,-0.78713 -0.96905,-0.1137 -1.28765,0.45557 -1.4486,2.58351 -0.11563,1.53151 -0.065,1.95634 0.26433,2.23003 0.56505,0.46908 1.286,0.27635 1.59333,-0.42603 0.18673,-0.42603 0.43655,-0.56871 0.90308,-0.51458 0.78112,0.0906 0.75268,0.80389 -0.0671,1.68765 -0.64636,0.69651 -2.34998,0.79508 -3.21957,0.18573 z m 10.91204,-0.18573 c -0.20175,-0.93301 -0.91649,-5.76553 -0.91649,-6.19517 0,-0.25531 0.31089,-0.42903 0.89005,-0.49661 l 0.89006,-0.10367 0.95519,2.27788 c 0.52541,1.25276 1.04005,2.33015 1.14368,2.39434 0.10368,0.0631 0.27284,-1.01402 0.37597,-2.39564 0.10417,-1.39659 0.31839,-2.59634 0.48209,-2.70186 0.387,-0.24882 1.71274,-0.25232 1.71705,0 10e-4,0.10718 0.23229,1.645 0.51268,3.41901 0.28036,1.77399 0.51089,3.31232 0.51275,3.4188 0.005,0.27134 -1.22588,0.2433 -1.39579,-0.035 -0.0767,-0.12466 -0.21678,-1.05297 -0.3099,-2.06413 -0.0941,-1.01126 -0.25831,-1.83864 -0.36495,-1.83864 -0.10718,0 -0.27684,0.93141 -0.37747,2.06978 -0.14718,1.66002 -0.28134,2.12209 -0.67788,2.3344 -0.44306,0.2368 -0.60606,0.03 -1.55649,-1.94807 -0.58403,-1.21692 -1.09527,-2.17931 -1.13607,-2.13842 -0.0401,0.0401 0.0872,0.82784 0.28435,1.74898 0.53141,2.47964 0.49863,2.83588 -0.26283,2.83588 -0.45455,0 -0.67648,-0.1682 -0.76554,-0.58066 z m 7.77849,-0.89246 c -0.0671,-0.11164 -0.49763,-1.53931 -0.95784,-3.17135 -0.46008,-1.63203 -0.88936,-3.10506 -0.95394,-3.27342 -0.12265,-0.31991 2.13055,-1.1131 3.16273,-1.1131 0.8817,0 1.88445,0.9505 2.07519,1.96701 0.23529,1.25376 -0.26283,2.06247 -1.57947,2.56539 l -1.08861,0.41552 0.35545,1.18103 c 0.19574,0.6494 0.3259,1.20525 0.29036,1.23523 -0.26032,0.21828 -1.20585,0.35844 -1.30392,0.19325 z m 1.47584,-4.1021 c 0.51464,-0.19725 0.53847,-1.47825 0.035,-1.89571 -0.20526,-0.17022 -0.64049,-0.27134 -0.96761,-0.22479 -0.48209,0.0681 -0.58437,0.22779 -0.53966,0.8413 0.10211,1.4077 0.41952,1.68324 1.47193,1.27939 z m -28.12938,3.66581 c -0.0762,-0.19874 -0.21927,-0.92431 -0.3174,-1.61261 -0.23128,-1.61821 -0.77782,-1.6453 -1.2397,-0.0616 -0.31138,1.06833 -0.41351,1.17757 -0.99463,1.06637 -0.35595,-0.0681 -0.64756,-0.2423 -0.64756,-0.38698 0,-0.14417 0.46659,-1.74837 1.03734,-3.56353 l 1.0373,-3.30036 1.54547,0.52185 c 1.61947,0.54697 2.31448,1.21356 2.31448,2.22016 0,0.83725 -0.67614,2.05727 -1.23914,2.23589 -0.40401,0.12815 -0.45457,0.36796 -0.35895,1.69536 0.10464,1.44499 0.0756,1.54617 -0.44305,1.54617 -0.30538,0 -0.61757,-0.1627 -0.69376,-0.36145 z m 0.85726,-4.08979 c 0.71785,-0.92765 0.45858,-1.87915 -0.55814,-2.04625 -0.39299,-0.0646 -0.55284,0.13316 -0.74213,0.91439 -0.18573,0.76801 -0.1597,1.0484 0.1137,1.22167 0.49912,0.31589 0.89566,0.28585 1.18648,-0.0897 z m 30.17418,3.22546 c -0.10609,-0.17571 -0.55569,-5.71447 -0.55784,-6.87261 -4.1e-4,-0.26733 0.25631,-0.58168 0.57026,-0.69786 0.50392,-0.18674 0.84524,0.12009 2.90276,2.60589 1.28245,1.54948 2.33166,2.88319 2.33166,2.96384 0,0.0811 -0.26132,0.24982 -0.58053,0.37647 -0.46057,0.18222 -0.68716,0.10512 -1.09666,-0.37196 -0.49462,-0.57703 -0.55545,-0.58573 -1.47253,-0.21527 -0.85402,0.34543 -0.94092,0.46457 -0.81111,1.11373 0.11164,0.5593 0.025,0.79219 -0.38099,1.00901 -0.62291,0.33341 -0.74948,0.34593 -0.90486,0.0897 z m 1.87513,-3.40274 c 0.30839,-0.19524 0.26534,-0.38647 -0.25832,-1.15539 -0.34493,-0.50677 -0.6865,-0.9222 -0.7585,-0.92314 -0.0721,-8.1e-4 -0.0891,0.52069 -0.0401,1.15929 0.0921,1.15613 0.33992,1.37206 1.05507,0.91924 z m -38.87676,2.3263 c -0.885306,-0.38647 -1.683141,-0.77561 -1.773108,-0.86557 -0.09016,-0.0906 0.456574,-1.61987 1.214916,-3.39989 1.536712,-3.60779 1.234332,-3.42092 3.741462,-2.31218 1.43383,0.63414 1.54302,0.7615 1.16444,1.35909 -0.18123,0.28586 -0.44004,0.25232 -1.43088,-0.18573 l -1.2096,-0.53496 -0.34493,0.81971 c -0.34243,0.81507 -0.33892,0.82237 0.66072,1.26999 1.044,0.46759 1.14667,0.62703 0.77766,1.2092 -0.18172,0.28686 -0.35794,0.27535 -1.01535,-0.0646 -1.05863,-0.54749 -1.2027,-0.5246 -1.55374,0.2458 -0.44907,0.98522 -0.39749,1.08149 0.87529,1.6445 1.05236,0.46558 1.14548,0.57436 0.89397,1.04425 -0.15419,0.28836 -0.30539,0.51273 -0.33593,0.49862 -0.0301,-0.0151 -0.77972,-0.34193 -1.66497,-0.72786 z m -4.647482,-2.23228 c -0.887065,-0.50277 -1.612759,-0.98152 -1.612759,-1.06403 0,-0.0825 0.760792,-1.52184 1.690597,-3.19872 1.639699,-2.95725 1.709438,-3.04024 2.320445,-2.76194 l 0.629931,0.28686 -1.441489,2.68754 c -0.792886,1.47804 -1.401695,2.71693 -1.352934,2.75288 0.05009,0.035 0.531202,0.33141 1.072083,0.65702 0.641652,0.38598 0.933015,0.72265 0.838546,0.96901 -0.07966,0.20724 -0.14468,0.42602 -0.14468,0.48509 0,0.2443 -0.469091,0.0536 -1.999691,-0.81406 z m 45.990812,-2.19718 c -0.94346,-1.71565 -1.67733,-3.15203 -1.63078,-3.19223 0.5211,-0.44957 2.81761,-1.42948 3.34953,-1.42948 1.07219,0 2.11404,1.38878 1.95137,2.60104 -0.11913,0.89056 -0.0501,1.00951 1.1571,1.9286 l 1.28435,0.97952 -0.68621,0.35945 c -0.73822,0.38698 -0.75579,0.37998 -2.52039,-0.97873 -0.59294,-0.45656 -0.73361,-0.48309 -0.85661,-0.1627 -0.0811,0.21077 0.0931,0.85493 0.38749,1.43123 0.52644,1.03189 0.527,1.05182 0.035,1.3152 -0.27484,0.14768 -0.55704,0.26733 -0.62734,0.26733 -0.0701,0 -0.89986,-1.40365 -1.84334,-3.11914 z m 1.95419,-1.27644 c 0.62869,-0.33642 0.63264,-0.8009 0.015,-1.56576 -0.42853,-0.52896 -0.5653,-0.5635 -1.15984,-0.29235 -0.67239,0.30638 -0.67304,0.30938 -0.24081,1.21625 0.46758,0.98038 0.62168,1.05187 1.38708,0.64216 z m -52.035401,0.99479 c -0.83694,-0.59009 -1.571553,-1.11294 -1.632578,-1.1617 -0.241805,-0.19324 3.941507,-5.99262 4.212292,-5.83948 0.948525,0.53662 0.92004,0.64762 -0.802396,3.11799 l -1.720494,2.46767 0.615859,0.40852 c 1.392739,0.9236 1.556791,1.14858 1.19004,1.63137 -0.315394,0.41501 -0.454571,0.36846 -1.862723,-0.62427 z m 56.122591,-2.42082 c -0.90153,-1.33932 -1.75839,-2.43153 -1.90407,-2.42697 -0.14569,0 -0.48761,0.17671 -0.75975,0.38248 -0.36695,0.27784 -0.58357,0.30087 -0.83859,0.0891 -0.18873,-0.15719 -0.34393,-0.37296 -0.34393,-0.4796 0,-0.10718 0.88144,-0.80349 1.95869,-1.54817 1.76905,-1.22298 1.99753,-1.31539 2.35864,-0.9543 0.36094,0.36096 0.3304,0.45958 -0.3154,1.01522 l -0.71524,0.61516 1.71054,2.47058 1.71057,2.47053 -0.6112,0.4005 c -0.60491,0.39649 -0.6282,0.37547 -2.25047,-2.03474 z m -59.171336,0.27034 c -0.428029,-0.3239 -0.452567,-0.46709 -0.182229,-1.06007 0.273344,-0.59949 0.240803,-0.76221 -0.259825,-1.29441 -0.626432,-0.66694 -1.243498,-0.77633 -1.715328,-0.30488 -0.233803,0.23379 -0.455078,0.22377 -0.954693,-0.045 -0.357952,-0.19125 -0.649967,-0.41553 -0.649605,-0.49763 2.41e-4,-0.0825 1.415913,-1.03693 3.145556,-2.12118 2.634837,-1.65126 3.220569,-1.9237 3.611653,-1.67949 0.25682,0.16019 0.468089,0.4085 0.469586,0.55203 0.0024,0.36896 -2.684842,6.82935 -2.841085,6.82625 -0.07109,-8.5e-4 -0.351942,-0.17121 -0.623982,-0.37696 z m 1.221265,-4.1332 c 0.592286,-1.24219 0.577272,-1.25406 -0.599347,-0.47509 -0.816965,0.54067 -0.972858,0.75814 -0.742422,1.03579 0.477093,0.57486 0.880801,0.406 1.341769,-0.56044 z m 26.882331,3.97911 c -16.50666,-1.20821 -30.955954,-12.43189 -36.336701,-28.2247 -1.63023,-4.78487 -2.106022,-7.85298 -2.100565,-13.54643 0.0049,-5.65809 0.301376,-7.70283 1.83053,-12.64319 0.945577,-3.05495 3.241736,-7.99851 4.74776,-10.22158 1.064781,-1.57191 4.236275,-5.59407 4.741611,-6.01334 0.29636,-0.2458 0.846004,-0.21877 2.587113,0.12666 1.216075,0.2413 2.211105,0.51424 2.211105,0.6061 0,0.0921 -0.64986,0.8016 -1.444145,1.57747 -5.046831,4.92859 -8.852529,12.28875 -10.335121,19.98804 -0.630184,3.27232 -0.621324,9.98274 0.01502,13.28825 2.990428,15.47352 14.395334,27.18581 29.694483,30.49457 3.71664,0.80391 10.05869,0.9201 13.93336,0.25533 14.16759,-2.43019 25.47413,-12.09121 29.94674,-25.58797 0.844,-2.54708 5.58004,-10.77362 5.74145,-9.97317 0.1662,0.82443 -0.46708,5.44903 -1.10813,8.08832 -3.00184,12.36395 -11.44731,22.59719 -23.15484,28.05629 -6.33338,2.95318 -13.69275,4.26171 -20.97217,3.729 z m 33.84339,-2.99714 c -2.21951,-2.75237 -2.22937,-2.77104 -1.72494,-3.27552 0.27884,-0.27885 0.54769,-0.45557 0.59699,-0.3925 0.0501,0.0631 1.09432,1.34773 2.32229,2.85481 2.1215,2.60379 2.20956,2.76114 1.76795,3.16084 -0.25531,0.23129 -0.52445,0.42052 -0.59739,0.42052 -0.0725,0 -1.13711,-1.2456 -2.3649,-2.7681 z m 1.95249,-1.42973 c -1.30993,-1.31534 -2.38161,-2.52243 -2.38161,-2.68239 0,-0.43053 1.71658,-1.86041 2.45595,-2.04595 1.00616,-0.25281 1.86958,0.0861 3.09361,1.21487 1.20765,1.11323 1.82291,2.45271 1.53831,3.34927 -0.18023,0.5671 -1.85767,2.55578 -2.15603,2.55578 -0.0926,0 -1.24035,-1.07609 -2.55023,-2.39158 z m 3.28584,0.0856 c 0.42153,-0.78763 0.34043,-0.99248 -0.92935,-2.35012 -1.25156,-1.33802 -2.0792,-1.6087 -2.68555,-0.8781 -0.28436,0.34293 -0.0931,0.6428 1.31559,2.06428 0.90662,0.91468 1.73476,1.66311 1.84029,1.66311 0.10561,0 0.31189,-0.22477 0.45907,-0.49912 z m -72.650724,-0.5614 c -0.471586,-0.52119 -0.451062,-0.55228 1.693505,-2.52809 l 2.171153,-2.00039 -0.56175,-0.78879 c -0.500122,-0.70252 -0.51819,-0.82492 -0.164703,-1.11845 0.336927,-0.27934 0.613468,-0.11816 1.82212,1.06758 1.75954,1.72536 2.045906,2.20411 1.622826,2.71379 -0.273344,0.32941 -0.407004,0.29337 -0.98908,-0.26484 l -0.673346,-0.64505 -2.221666,2.0458 c -2.212408,2.03724 -2.223717,2.04355 -2.699259,1.51809 z M 98.92861,183.6783 c -14.578404,-2.55207 -25.955766,-13.74967 -28.893228,-28.43652 -0.681301,-3.40619 -0.615315,-10.17761 0.133166,-13.67072 1.446401,-6.7494 4.794922,-12.94041 9.648564,-17.83856 1.173964,-1.18473 2.342713,-2.26557 2.59718,-2.40184 0.312896,-0.16771 1.107085,-0.11364 2.451208,0.16871 1.09366,0.22878 2.2497,0.47058 2.569,0.53596 0.3194,0.0666 0.58057,0.21527 0.58057,0.33292 0,0.11664 -2.42116,5.19492 -5.380397,11.28365 -7.398861,15.22361 -9.584993,19.75991 -9.584993,19.88908 0,0.0601 0.617621,1.06216 1.372414,2.22551 0.754842,1.1633 2.96754,4.62782 4.917177,7.69899 l 3.544715,5.58385 1.726951,0.025 c 3.557023,0.055 46.403833,2.34012 46.960123,2.50492 0.77902,0.23129 -3.46726,4.32865 -6.86364,6.62341 -3.34527,2.26016 -8.06335,4.23902 -12.45736,5.22451 -2.68045,0.60129 -10.47876,0.74747 -13.32145,0.2498 z m 43.34193,-0.54568 c -0.45807,-0.22578 -1.29993,-0.91729 -1.87068,-1.53656 -1.30447,-1.41517 -1.3998,-2.53035 -0.3194,-3.7394 0.55804,-0.62459 0.93045,-0.804 1.66942,-0.804 1.71038,0 4.22131,2.07658 4.48645,3.71037 0.12365,0.76399 0.015,1.0533 -0.68105,1.84884 -0.93927,1.06968 -1.87148,1.21748 -3.28469,0.52075 z m 2.45841,-1.17742 c 0.52786,-0.52785 0.34743,-1.09721 -0.65797,-2.07398 -1.31184,-1.27484 -2.34247,-1.78662 -2.94653,-1.46332 -0.85981,0.46007 -0.56259,1.39573 0.84577,2.66197 1.31813,1.18502 2.17661,1.45746 2.75873,0.87533 z M 99.02704,167.67718 c -7.78004,-0.46459 -14.19368,-0.89327 -14.252401,-0.95194 -0.126165,-0.12666 2.712631,-10.05142 2.949471,-10.3122 0.17472,-0.19223 31.32746,-6.14399 31.46704,-6.01173 0.0701,0.0666 -3.2833,14.13991 -4.10367,17.22065 -0.23328,0.87519 -0.33691,0.9643 -1.08634,0.93396 -0.45558,-0.015 -7.19411,-0.41402 -14.9741,-0.87874 z m 27.8355,-9.40246 c -5.71796,-8.20598 -6.74684,-9.5531 -7.29628,-9.5531 -0.52466,0 -12.69446,2.26037 -28.12387,5.22366 -1.59183,0.30588 -2.9653,0.4851 -3.0521,0.39798 -0.0865,-0.0876 0.045,-0.80009 0.29187,-1.58497 l 0.45005,-1.42737 4.92444,-1.17401 c 6.47371,-1.54353 54.51479,-12.90152 56.59397,-13.38012 0.89968,-0.20725 1.61261,-0.26533 1.61261,-0.13116 0,0.13116 -1.69997,3.10622 -3.7778,6.60963 -2.0778,3.50321 -6.18055,10.42709 -9.11716,15.38616 -2.9366,4.95928 -5.45404,9.05488 -5.59422,9.10173 -0.14016,0.045 -3.25034,-4.21404 -6.91151,-9.46829 z m -47.878361,0.84585 c -1.915794,-2.93265 -3.51693,-5.46476 -3.558039,-5.627 -0.06711,-0.26484 2.314385,-5.26297 11.87379,-24.92014 l 2.95959,-6.08578 2.49015,0.39399 c 1.36956,0.21677 2.49015,0.4871 2.49015,0.60155 0,0.11514 -2.55979,8.53858 -5.68834,18.72041 -3.12854,10.18193 -5.933087,19.35526 -6.232356,20.38504 -0.298871,1.02993 -0.613264,1.87067 -0.697824,1.86827 -0.08461,-0.001 -1.721242,-2.40378 -3.637121,-5.33619 z M 89.82522,149.04418 c 0.001,-0.24831 0.10066,-0.60371 0.21827,-0.78959 0.16922,-0.26683 28.40183,-11.57667 30.66159,-12.28275 0.56425,-0.17672 0.56371,-0.16871 -0.21526,2.73856 -0.42954,1.60355 -0.80116,2.93576 -0.82563,2.96033 -0.025,0.025 -3.17886,0.87344 -7.00953,1.88636 -3.83072,1.01271 -9.17107,2.42497 -11.86738,3.13806 -12.47063,3.29811 -10.96761,2.97605 -10.96211,2.34903 z m 1.02814,-3.8434 c 0,-1.03583 9.33366,-30.82624 9.87114,-31.50613 0.36645,-0.46358 7.21388,-0.42553 9.94588,0.0551 7.79621,1.37201 14.42948,4.83787 19.7538,10.32125 2.88045,2.96635 5.50236,6.86355 6.98386,10.38073 1.44223,3.42387 1.62131,3.02517 -1.71334,3.81445 -1.60175,0.37898 -5.33609,1.26589 -8.29854,1.97076 -2.96243,0.70484 -5.42376,1.2438 -5.46956,1.19815 -0.045,-0.045 0.43254,-1.99559 1.06268,-4.33271 0.63023,-2.33721 1.14667,-4.27842 1.14758,-4.31392 0.005,-0.28685 -2.57687,0.67484 -16.02261,5.96329 -8.4291,3.31507 -15.76113,6.21203 -16.29328,6.43731 -0.86714,0.36746 -0.96761,0.36846 -0.96761,0.0151 z m 50.06504,-8.92881 c -2.83658,-6.89745 -4.79306,-9.9955 -8.97407,-14.2101 -2.66533,-2.6866 -4.50582,-4.12053 -7.7084,-6.00553 -5.72358,-3.36875 -11.0412,-4.91908 -17.77204,-5.1813 -5.64507,-0.21978 -10.20991,0.49962 -15.09449,2.37896 -1.20625,0.46408 -4.28319,1.26898 -6.837665,1.78858 -2.554428,0.51944 -4.934702,1.01406 -5.289492,1.09896 -0.583573,0.13965 -0.610452,0.11161 -0.282348,-0.28588 0.597344,-0.72495 4.874474,-3.48434 7.250775,-4.67763 9.40607,-4.72403 21.29658,-5.64558 31.37672,-2.43197 10.80866,3.44604 19.91766,11.22027 24.9295,21.27674 1.15514,2.31769 2.33656,5.44949 2.20479,5.84478 -0.0902,0.26984 -2.32954,0.94373 -3.23657,0.97386 -0.18022,0 -0.43555,-0.25031 -0.56681,-0.5695 z M 86.0273,119.97726 c -4.853947,-0.87594 -8.890178,-1.65747 -8.969379,-1.73672 -0.07906,-0.0791 1.047509,-0.34793 2.503771,-0.59709 1.456311,-0.24881 6.086438,-1.07984 10.289168,-1.8461 4.20273,-0.7662 7.82104,-1.39313 8.04077,-1.39313 0.32239,0 0.1692,0.69531 -0.79806,3.61235 -1.02772,3.10051 -1.27137,3.60824 -1.71914,3.58281 -0.28685,-0.015 -4.49314,-0.74618 -9.34713,-1.62212 z m 51.65758,-1.94658 c -1.57456,-0.6444 -2.01271,-2.58416 -0.92786,-4.10776 1.94563,-2.73231 4.98811,-3.15353 5.95301,-0.82413 0.44656,1.07804 0.16922,1.91418 -1.08565,3.27568 -1.59439,1.72976 -2.66262,2.17886 -3.9395,1.65621 z m 2.4535,-2.23443 c 1.40375,-1.31309 1.74628,-2.00074 1.2776,-2.56554 -0.6004,-0.72346 -1.55584,-0.43054 -2.86482,0.87869 -1.33186,1.33176 -1.49898,1.81856 -0.84786,2.46963 0.63429,0.63433 1.06993,0.49411 2.43508,-0.78278 z m -70.044677,-0.60643 c -2.544068,-2.55373 -2.557985,-2.57466 -2.075835,-3.10752 l 0.48561,-0.53627 2.140062,2.1287 2.139966,2.12895 0.909624,-0.88165 c 0.859728,-0.83334 0.93392,-0.85732 1.352837,-0.43854 0.419025,0.41902 0.36546,0.52089 -0.973859,1.86016 l -1.416916,1.41702 z m 63.734817,-0.77001 c -0.40951,-0.45257 -0.42203,-0.6363 -0.12115,-1.81016 0.4771,-1.86072 0.0501,-2.17801 -1.05656,-0.78242 -0.84591,1.06798 -0.84671,1.06833 -1.36149,0.55359 -0.51485,-0.51489 -0.51385,-0.51685 1.65005,-3.24374 1.19089,-1.50082 2.28389,-2.72925 2.42887,-2.73005 0.58013,0 2.70362,2.24429 2.70232,2.86016 -0.001,0.98357 -0.83319,2.10072 -1.8066,2.42842 -0.76591,0.25782 -0.94468,0.48361 -1.2827,1.61777 -0.4881,1.63799 -0.58628,1.73231 -1.15274,1.10643 z m 2.60089,-4.54762 c 0.41352,-0.63093 0.40802,-0.6872 -0.10911,-1.2045 -0.46157,-0.46157 -0.60445,-0.49111 -0.9578,-0.19824 -0.71688,0.59514 -0.973,1.28194 -0.63133,1.69376 0.47259,0.56915 1.21812,0.44155 1.69817,-0.29137 z m -61.927668,1.04856 c -1.028631,-2.8503 -1.198742,-3.55368 -0.93596,-3.87032 0.176713,-0.21277 0.435537,-0.38698 0.575159,-0.38698 0.223279,0 4.228418,2.67988 5.809289,3.88699 l 0.579021,0.44205 -0.665332,0.43554 c -0.606855,0.398 -0.704873,0.4 -1.115341,0.03 -0.577767,-0.52285 -0.695966,-0.51389 -1.584926,0.11815 -0.646251,0.46007 -0.70713,0.61066 -0.484094,1.19719 0.198741,0.52365 0.159695,0.77627 -0.179223,1.15098 -0.2388,0.26383 -0.503526,0.4801 -0.587941,0.4801 -0.08461,0 -0.719236,-1.56765 -1.410652,-3.48349 z m 1.620122,-1.47544 c -0.465578,-0.38898 -0.901175,-0.65246 -0.967764,-0.58588 -0.06663,0.0661 0.08968,0.58813 0.346933,1.15895 0.452567,1.00415 0.484105,1.02327 0.967655,0.58587 0.490611,-0.44355 0.484105,-0.46557 -0.346933,-1.15894 z m 51.216226,0.21126 c -1.03884,-1.03889 -1.11464,-1.82392 -0.33241,-3.44003 1.37556,-2.84174 3.24004,-3.66792 4.90986,-2.17596 0.79694,0.71199 1.06868,1.87854 0.61031,2.62016 -0.31389,0.50809 -1.1273,-0.22678 -1.21096,-1.09426 -0.0631,-0.65396 -0.21377,-0.85702 -0.68665,-0.92395 -0.797,-0.11364 -1.61146,0.67759 -2.37256,2.30267 -0.69181,1.47704 -0.52299,2.11448 0.5955,2.249 0.75413,0.0906 1.21045,-0.7614 0.72259,-1.34938 -0.15619,-0.18774 -0.21226,-0.52771 -0.12515,-0.75489 0.14018,-0.36496 0.27584,-0.34593 1.1636,0.1602 0.55279,0.31539 1.006,0.66933 1.00711,0.78588 8.4e-4,0.11664 -0.29938,0.7262 -0.66759,1.35468 -0.61527,1.04971 -0.75359,1.14263 -1.70302,1.14263 -0.83123,0 -1.20499,-0.17172 -1.91072,-0.8773 z m -4.4226,-2.18076 c -0.88556,-0.397 -1.67024,-0.78137 -1.74373,-0.85492 -0.0736,-0.0726 0.49962,-1.57431 1.27328,-3.33535 0.97372,-2.21596 1.52411,-3.17976 1.78774,-3.13065 0.20925,0.0401 1.08821,0.39199 1.95282,0.78473 1.46308,0.66418 1.54698,0.74778 1.21121,1.2071 -0.35393,0.4836 -0.38197,0.4836 -1.43107,0.015 -1.1238,-0.50678 -1.38738,-0.41952 -1.6817,0.55574 -0.14468,0.4786 -0.005,0.6373 0.8881,1.03224 0.94994,0.41852 1.02358,0.51424 0.71699,0.92991 -0.32039,0.43404 -0.40349,0.43754 -1.332,0.0501 -0.54473,-0.22778 -1.01236,-0.37797 -1.03924,-0.33442 -0.13217,0.21527 -0.66944,1.53897 -0.66944,1.64901 0,0.0696 0.53452,0.35544 1.18783,0.63534 0.87509,0.37496 1.14683,0.61601 1.03209,0.91504 -0.0856,0.22328 -0.1557,0.45406 -0.1557,0.51374 0,0.21176 -0.41001,0.0826 -1.99718,-0.62789 z m -38.05885,-0.74783 c -0.761504,-0.80095 -1.744029,-3.10522 -1.744029,-4.09045 0,-0.92765 0.415018,-1.58532 1.284957,-2.03508 1.032882,-0.53417 1.874082,-0.48861 2.679642,0.14568 0.82612,0.64986 0.84965,0.90433 0.12009,1.29506 -0.45607,0.24431 -0.61711,0.22178 -0.86703,-0.12015 -0.57031,-0.78007 -1.927392,-0.35795 -1.926945,0.5995 2.05e-4,0.65181 1.498715,3.62251 1.906125,3.7787 0.20676,0.0796 0.62844,0.015 0.93752,-0.15719 0.41351,-0.22128 0.52946,-0.47059 0.43905,-0.94308 -0.0926,-0.4836 0.015,-0.69366 0.42602,-0.84991 0.7573,-0.28635 0.93567,-0.11815 0.93567,0.88521 0,1.95573 -2.80099,2.95257 -4.19051,1.4914 z m 34.21536,-0.77502 c -0.59919,-0.10062 -0.71114,-0.44305 -1.01127,-3.10121 -0.10066,-0.89021 -0.26833,-1.67118 -0.37246,-1.73571 -0.10416,-0.0646 -0.45456,0.81131 -0.77752,1.94642 -0.53241,1.86978 -0.63874,2.04805 -1.1308,1.89717 -0.29887,-0.0921 -0.5938,-0.21227 -0.65566,-0.26834 -0.062,-0.0566 0.3319,-1.65536 0.87573,-3.55382 l 0.98828,-3.452003 0.69827,0.243303 c 0.65412,0.227783 0.722,0.401999 1.07313,2.74737 l 0.37497,2.50397 0.70348,-2.23153 c 0.61417,-1.947725 0.76876,-2.214458 1.21601,-2.097462 0.28185,0.07259 0.56506,0.219273 0.62934,0.322901 0.13116,0.211764 -1.6444,6.505901 -1.89796,6.728381 -0.0891,0.0781 -0.41001,0.10063 -0.71329,0.0506 z m -28.37569,-0.43053 c -0.0851,-0.22128 -0.59173,-1.78808 -1.12616,-3.48149 l -0.9718,-3.079184 0.6419,-0.1602 c 0.35293,-0.08911 0.67404,-0.126658 0.71338,-0.0841 0.13016,0.141176 2.19604,6.736644 2.1278,6.794164 -0.035,0.03 -0.3289,0.13617 -0.64881,0.23529 -0.409,0.12666 -0.62772,0.0601 -0.73631,-0.22378 z m 3.51138,-0.84 c -1.28436,-0.49962 -1.77917,-1.88935 -0.6727,-1.88935 0.33943,0 0.68726,0.18222 0.77262,0.4045 0.10115,0.26383 0.4025,0.37597 0.86617,0.3224 0.555,-0.0631 0.71109,-0.21727 0.71109,-0.69872 0,-0.67253 -0.18723,-0.80886 -1.96134,-1.43118 -0.78027,-0.27384 -1.28886,-0.63955 -1.48365,-1.06708 -0.44805,-0.982773 -0.36745,-1.369104 0.45807,-2.194232 0.98574,-0.985677 2.34172,-1.03589 3.25691,-0.121651 0.81336,0.813412 0.79849,1.081146 -0.069,1.247102 -0.50373,0.09562 -0.80025,0 -1.04741,-0.357945 -0.46006,-0.657068 -1.41615,-0.205255 -1.29746,0.612914 0.0611,0.419522 0.4045,0.647962 1.43003,0.950032 1.57801,0.46508 2.06312,0.8844 2.28059,1.97186 0.12266,0.61201 0.02,0.94718 -0.44555,1.46837 -0.60556,0.67665 -2.0388,1.07725 -2.79763,0.78213 z m 4.53179,-2.64735 c -0.0907,-1.07318 -0.23329,-2.734853 -0.3174,-3.692896 l -0.15319,-1.741719 0.74293,2.01e-4 c 0.66368,1.99e-4 0.86177,0.220274 1.85706,2.064321 0.61282,1.135062 1.18031,2.063923 1.26112,2.063923 0.0811,0 0.0671,-0.987033 -0.0301,-2.193285 l -0.17772,-2.193231 h 0.75244 0.75248 l 0.18122,3.031776 c 0.0996,1.66748 0.24631,3.30146 0.32591,3.63112 0.13167,0.54598 0.069,0.59204 -0.70592,0.51619 -0.77307,-0.0761 -0.95605,-0.27684 -2.01256,-2.21025 -0.6392,-1.16986 -1.18944,-2.098812 -1.22277,-2.064269 -0.035,0.03504 0.015,1.069479 0.11466,2.299869 l 0.17472,2.23718 -0.68901,0.10063 c -0.68335,0.10062 -0.69046,0.0841 -0.85321,-1.85016 z m 7.53088,1.6022 -0.96761,-0.10063 10e-4,-1.85511 c 7.9e-4,-1.02027 0.0756,-2.638835 0.1667,-3.596828 l 0.16471,-1.741519 h 1.22062 c 1.94312,0 2.83323,0.253316 2.83323,0.806255 0,0.414516 -0.20376,0.483602 -1.41917,0.483602 h -1.41912 v 0.903074 c 0,0.898319 0.005,0.903175 1.1611,0.903175 0.98913,0 1.1611,0.0761 1.1611,0.516043 0,0.437548 -0.17172,0.516038 -1.13102,0.516038 -0.95473,0 -1.15523,0.0906 -1.2866,0.58053 -0.36395,1.35779 -0.25731,1.4837 1.25652,1.4837 1.34177,0 1.41916,0.035 1.41916,0.64505 0,0.59364 -0.0876,0.6416 -1.09661,0.60175 -0.60316,-0.025 -1.53206,-0.0896 -2.06418,-0.14418 z"
       id="path6527"
       inkscape:connector-curvature="0" />
  </g>
</svg>
