<?xml version="1.0" encoding="UTF-8" standalone="no"?>
<!-- Created with Inkscape (http://www.inkscape.org/) -->

<svg
   xmlns:dc="http://purl.org/dc/elements/1.1/"
   xmlns:cc="http://creativecommons.org/ns#"
   xmlns:rdf="http://www.w3.org/1999/02/22-rdf-syntax-ns#"
   xmlns:svg="http://www.w3.org/2000/svg"
   xmlns="http://www.w3.org/2000/svg"
   xmlns:sodipodi="http://sodipodi.sourceforge.net/DTD/sodipodi-0.dtd"
   xmlns:inkscape="http://www.inkscape.org/namespaces/inkscape"
   width="210mm"
   height="297mm"
   viewBox="0 0 210 297"
   version="1.1"
   id="svg484"
   inkscape:version="0.92.5 (2060ec1f9f, 2020-04-08)"
   sodipodi:docname="fdm_logo.svg">
  <defs
     id="defs478" />
  <sodipodi:namedview
     id="base"
     pagecolor="#ffffff"
     bordercolor="#666666"
     borderopacity="1.0"
     inkscape:pageopacity="0.0"
     inkscape:pageshadow="2"
     inkscape:zoom="0.35"
     inkscape:cx="-121.42857"
     inkscape:cy="560"
     inkscape:document-units="mm"
     inkscape:current-layer="layer1"
     showgrid="false"
     inkscape:window-width="1920"
     inkscape:window-height="1080"
     inkscape:window-x="0"
     inkscape:window-y="0"
     inkscape:window-maximized="1" />
  <metadata
     id="metadata481">
    <rdf:RDF>
      <cc:Work
         rdf:about="">
        <dc:format>image/svg+xml</dc:format>
        <dc:type
           rdf:resource="http://purl.org/dc/dcmitype/StillImage" />
        <dc:title></dc:title>
      </cc:Work>
    </rdf:RDF>
  </metadata>
  <g
     inkscape:label="Layer 1"
     inkscape:groupmode="layer"
     id="layer1">
    <path
       style="fill:#000000;stroke-width:0.43757522"
       d="m 50.822336,177.92743 0.13702,-1.42211 3.587717,-0.12648 3.587751,-0.12681 0.13142,-2.27993 c 0.128457,-2.22081 0.16864,-2.28346 1.553794,-2.41702 l 1.42211,-0.13702 v 3.96587 3.96591 h -5.27863 -5.278631 z m 35.799504,-0.74284 v -2.16501 l -2.29726,-0.13241 -2.29729,-0.13241 -0.13438,-1.85972 -0.13439,-1.85968 h 2.43181 2.43184 v -2.40664 -2.40668 h 1.75027 1.75033 v 2.40668 2.40664 h 2.43181 2.43181 l -0.13472,1.85968 -0.13438,1.85972 -2.29726,0.13241 -2.29726,0.13241 v 2.16501 2.16499 h -1.7503 -1.7503 z m 61.77768,0.77104 c 0.12846,-1.33924 0.25659,-1.45031 1.67072,-1.45031 1.40996,0 1.53153,0.10409 1.53153,1.31273 0,1.20535 -0.13669,1.32399 -1.67072,1.4503 -1.65102,0.13571 -1.66911,0.12055 -1.53153,-1.31272 z m 5.17132,-0.13735 v -1.53153 h 3.93818 3.93817 v 1.53153 1.53149 h -3.93817 -3.93818 z m -38.50661,-2.7458 v -2.52703 l 3.2818,-3.25993 3.28182,-3.25989 3.2818,3.25989 3.28183,3.25993 v 2.62544 2.62545 l -3.21767,-3.19619 -3.21766,-3.19619 -3.00041,3.09774 c -1.65024,1.70379 -3.15594,3.09778 -3.34599,3.09778 -0.19005,0 -0.34552,-1.13717 -0.34552,-2.527 z m -66.51142,-4.693 v -4.15698 h 3.938173 3.938172 v 1.53149 1.53153 h -2.625448 -2.625449 v 2.62548 2.62545 H 49.865534 48.55281 Z m 100.07958,3.88596 c -0.1716,-0.1716 -0.31258,-0.88223 -0.31258,-1.57866 0,-1.19556 0.0916,-1.25861 1.64092,-1.13038 1.50132,0.12417 1.64091,0.24736 1.64091,1.44852 0,1.14175 -0.17292,1.32969 -1.32847,1.44286 -0.73065,0.0718 -1.46908,-0.01 -1.64091,-0.18214 z m 10.18935,-1.26052 c 0,-1.40995 0.10408,-1.53149 1.31272,-1.53149 1.20858,0 1.31273,0.12154 1.31273,1.53149 0,1.40999 -0.10408,1.53153 -1.31273,1.53153 -1.20854,0 -1.31272,-0.12154 -1.31272,-1.53153 z M 58.347501,168.65474 c -0.513397,-1.33792 0.03524,-2.21123 1.476457,-2.35056 1.359923,-0.13142 1.418519,-0.0725 1.418519,1.42211 0,1.44438 -0.09782,1.55923 -1.326459,1.55923 -0.751535,0 -1.431398,-0.27338 -1.568517,-0.63078 z m 90.054099,-0.79129 0.13702,-1.42218 4.04756,-0.12582 4.04759,-0.12582 v 1.54796 1.54797 h -4.18471 -4.18468 z m 10.42014,-0.10969 c 0,-1.40998 0.10408,-1.53156 1.31272,-1.53156 1.20858,0 1.31273,0.12154 1.31273,1.53156 0,1.40996 -0.10408,1.5315 -1.31273,1.5315 -1.20854,0 -1.31272,-0.12154 -1.31272,-1.5315 z M 48.55281,144.99994 v -12.47086 h 11.158139 11.158172 v 3.28179 3.28183 h -7.876345 -7.876345 v 9.18907 9.18907 H 51.834604 48.55281 Z m 37.63146,9.18907 v -3.28179 l 6.23543,-0.01 c 10.51971,-0.0165 13.96619,-0.87314 17.00402,-4.23563 4.78276,-5.29392 3.73528,-16.32162 -1.91041,-20.11276 -2.85499,-1.91713 -5.34473,-2.33504 -13.91181,-2.33504 h -7.41723 v -3.28183 -3.28179 h 8.67208 c 9.75481,0 11.6994,0.35569 15.93487,2.9148 6.14265,3.71147 9.31291,11.40283 8.22248,19.94847 -0.7066,5.53742 -2.2689,8.74013 -5.88853,12.0713 -4.19706,3.86265 -8.19083,4.88476 -19.0861,4.88476 h -7.8548 z m 68.6993,-11.69966 v -14.98146 l -6.45849,6.44768 -6.45842,6.44768 -11.36959,-11.37589 -11.3696,-11.37589 h 4.149 4.14898 l 7.11542,7.10564 7.11542,7.10565 7.11546,-7.10565 7.11542,-7.10564 h 2.73003 2.72999 v 19.9097 19.90967 h -3.2818 -3.28182 z M 48.55281,120.9333 v -3.28183 H 63.649154 78.74547 v 3.28183 3.28183 H 63.649154 48.55281 Z"
       id="path9058"
       inkscape:connector-curvature="0" />
  </g>
</svg>
