<?xml version="1.0" encoding="utf-8"?>
<!-- Generator: Adobe Illustrator 25.0.0, SVG Export Plug-In . SVG Version: 6.00 Build 0)  -->
<svg version="1.1" id="Capa_1" xmlns="http://www.w3.org/2000/svg" xmlns:xlink="http://www.w3.org/1999/xlink" x="0px" y="0px"
	 viewBox="0 0 400 400" style="enable-background:new 0 0 400 400;" xml:space="preserve">
<style type="text/css">
	.st0{fill:#020203;}
	.st1{fill:#4F4D4D;}
	.st2{fill:none;}
</style>
<g id="layer1">
	<g id="g444" transform="matrix(3.1004846,0,0,3.1004846,-92.295908,-251.14057)">
		<path id="path9425" class="st0" d="M205.26,124.63c-0.99-0.99-0.51-3.12,1.36-5.99c2.5-3.83,4.11-5.58,5.88-6.38
			c1.37-0.62,2.81-0.68,16.53-0.69c8.84-0.01,15.57,0.15,16.37,0.37c1.71,0.48,3.61,2.38,6.17,6.19c2.27,3.38,2.86,5.35,1.88,6.33
			c-0.56,0.56-2.77,0.62-24.18,0.62C211.45,125.08,205.6,124.98,205.26,124.63L205.26,124.63z M213.3,109.28
			c-2.02-1.59-2.11-2.12-2.11-12.63c0-10.87,0.15-11.6,2.65-12.94c1.17-0.63,2.44-0.69,15.29-0.69c15.51,0,15.97,0.06,17.35,2.32
			c0.71,1.17,0.76,1.88,0.76,11.32c0,11.04-0.08,11.48-2.27,12.77c-0.92,0.54-2.81,0.61-15.86,0.61
			C214.66,110.06,214.28,110.05,213.3,109.28L213.3,109.28z M237.48,102.73v-1.7l-8.17,0.1l-8.17,0.1l-0.12,1.06
			c-0.25,2.17-0.41,2.13,8.37,2.13h8.09L237.48,102.73z M237.48,96.54v-1.51l-8.17,0.1l-8.17,0.1l-0.12,1.41l-0.12,1.41h8.28h8.28
			L237.48,96.54z M237.48,90.53v-1.51l-8.17,0.1l-8.17,0.1l-0.12,0.87c-0.28,1.95-0.31,1.94,8.37,1.94h8.09L237.48,90.53z
			 M179.62,99.2c-1.51-1.51-1.51-3.42,0-4.94c0.81-0.81,1.45-1.1,2.47-1.1c3.62,0,4.97,5.01,1.81,6.7
			C182.44,100.64,180.81,100.39,179.62,99.2L179.62,99.2z M191.55,99.53c-1.27-1-1.63-2.91-0.84-4.43c2.13-4.12,8.25-1.21,6.46,3.07
			c-0.3,0.72-0.89,1.5-1.31,1.72C194.65,100.54,192.61,100.37,191.55,99.53z M203.87,99.85c-1.23-0.7-1.67-1.52-1.67-3.11
			c0-1.63,0.46-2.45,1.74-3.13c2.39-1.27,5.38,0.46,5.38,3.13C209.32,99.41,206.21,101.19,203.87,99.85L203.87,99.85z M250.36,99.39
			c-0.87-0.75-1.05-1.2-1.05-2.66c0-1.46,0.18-1.91,1.05-2.66c2.81-2.42,7.03,0.33,5.88,3.83
			C255.45,100.32,252.35,101.1,250.36,99.39z M262.13,99.31c-0.76-0.76-0.99-1.36-0.98-2.53c0.01-1.67,0.46-2.49,1.75-3.17
			c2.39-1.27,5.38,0.46,5.38,3.13C268.27,99.86,264.33,101.51,262.13,99.31z M273.88,99.2c-0.81-0.81-1.1-1.45-1.1-2.47
			c0-1.02,0.28-1.66,1.1-2.47c2.94-2.94,7.37,0.45,5.62,4.29C278.59,100.55,275.57,100.9,273.88,99.2L273.88,99.2z"/>
		
			<text transform="matrix(0.1903 0 0 0.3225 174.5752 142.7305)" class="st0" style="font-family:'Arial-BoldMT'; font-size:66.1445px;">T0PL4Pv4LD1V14</text>
	</g>
</g>
<g id="layer1_1_">
	<path id="path9058" class="st0" d="M465.16,406.67l0.39-4.03l10.17-0.36l10.17-0.36l0.37-6.46c0.36-6.3,0.48-6.47,4.4-6.85
		l4.03-0.39v11.24v11.24h-14.96h-14.96L465.16,406.67z M566.64,404.57v-6.14l-6.51-0.38l-6.51-0.38l-0.38-5.27l-0.38-5.27h6.89h6.89
		v-6.82v-6.82h4.96h4.96v6.82v6.82h6.89h6.89l-0.38,5.27l-0.38,5.27l-6.51,0.38l-6.51,0.38v6.14v6.14h-4.96h-4.96L566.64,404.57z
		 M741.76,406.75c0.36-3.8,0.73-4.11,4.74-4.11c4,0,4.34,0.3,4.34,3.72c0,3.42-0.39,3.75-4.74,4.11
		C741.42,410.86,741.37,410.82,741.76,406.75z M756.42,406.36v-4.34h11.16h11.16v4.34v4.34h-11.16h-11.16V406.36z M647.27,398.58
		v-7.16l9.3-9.24l9.3-9.24l9.3,9.24l9.3,9.24v7.44v7.44l-9.12-9.06l-9.12-9.06l-8.51,8.78c-4.68,4.83-8.95,8.78-9.48,8.78
		C647.71,405.74,647.27,402.52,647.27,398.58L647.27,398.58z M458.73,385.28v-11.78h11.16h11.16v4.34v4.34h-7.44h-7.44v7.44v7.44
		h-3.72h-3.72L458.73,385.28z M742.42,396.29c-0.49-0.49-0.89-2.5-0.89-4.47c0-3.39,0.26-3.57,4.65-3.2
		c4.26,0.35,4.65,0.7,4.65,4.11c0,3.24-0.49,3.77-3.77,4.09C745,397.01,742.91,396.78,742.42,396.29L742.42,396.29z M771.3,392.72
		c0-4,0.29-4.34,3.72-4.34c3.43,0,3.72,0.34,3.72,4.34c0,4-0.3,4.34-3.72,4.34C771.6,397.06,771.3,396.72,771.3,392.72z
		 M486.49,380.39c-1.46-3.79,0.1-6.27,4.19-6.66c3.85-0.37,4.02-0.21,4.02,4.03c0,4.09-0.28,4.42-3.76,4.42
		C488.81,382.18,486.88,381.4,486.49,380.39z M741.77,378.15l0.39-4.03l11.47-0.36l11.47-0.36v4.39v4.39h-11.86h-11.86
		L741.77,378.15z M771.3,377.83c0-4,0.3-4.34,3.72-4.34c3.43,0,3.72,0.34,3.72,4.34c0,4-0.3,4.34-3.72,4.34
		C771.6,382.18,771.3,381.83,771.3,377.83z M458.73,313.34v-35.35h31.63h31.63v9.3v9.3h-22.33h-22.33v26.05v26.05h-9.3h-9.3V313.34z
		 M565.4,339.38v-9.3l17.68-0.03c29.82-0.05,39.59-2.48,48.2-12.01c13.56-15.01,10.59-46.27-5.42-57.01
		c-8.09-5.43-15.15-6.62-39.44-6.62H565.4v-9.3v-9.3h24.58c27.65,0,33.16,1.01,45.17,8.26c17.41,10.52,26.4,32.32,23.31,56.55
		c-2,15.7-6.43,24.78-16.69,34.22c-11.9,10.95-23.22,13.85-54.1,13.85H565.4L565.4,339.38z M760.14,306.22v-42.47l-18.31,18.28
		l-18.31,18.28l-32.23-32.25l-32.23-32.25h11.76h11.76l20.17,20.14l20.17,20.14l20.17-20.14l20.17-20.14h7.74h7.74v56.44v56.44h-9.3
		h-9.3L760.14,306.22z M458.73,245.11v-9.3h42.79h42.79v9.3v9.3h-42.79h-42.79V245.11z"/>
</g>
<g id="layer1_2_">
	<path id="path6527" class="st0" d="M580.81,446.41c-36.45-3.64-66.68-15.5-93.57-36.71c-12.76-10.06-28.47-27.76-37.56-42.31
		c-52.5-84.05-21.45-195.44,66.94-240.11c24.47-12.36,48.07-17.9,76.26-17.9c28.15,0,51.34,5.43,76,17.81
		c49,24.59,82.89,71.76,91.2,126.93c1.81,12,1.83,35.48,0.04,47.18c-8.65,56.6-42.82,103.65-93.01,128.02
		c-16.6,8.06-32.31,12.98-50.1,15.68C609.59,446.11,586.8,447,580.81,446.41L580.81,446.41z M606.88,434.38
		c38.79-3.88,72.53-20.12,99.07-47.68c22.94-23.82,37.3-52.98,42.47-86.21c1.78-11.42,1.78-33.76,0.01-45.15
		c-4.19-26.92-14.39-51.2-30.54-72.7c-5.75-7.65-22.65-24.53-30.18-30.13c-47.97-35.72-110.76-41.75-163.94-15.76
		c-37.81,18.48-66.97,51.97-80.06,91.97c-12.9,39.43-10.08,81.29,7.97,118.2c12.56,25.69,33.15,48.49,58.19,64.45
		c2.41,1.54,8.17,4.69,12.8,7C548.9,431.47,578.9,437.18,606.88,434.38L606.88,434.38z M592.63,427.72
		c-3.17-1.84-4.63-12.23-2.34-16.66c2.52-4.88,10.07-4.64,12.46,0.39c0.94,1.98,1.18,4.01,0.98,8.12c-0.25,4.91-0.49,5.66-2.31,7.23
		C599.21,428.69,595.05,429.13,592.63,427.72L592.63,427.72z M598.3,424.67c1.58-1.16,2.31-6.4,1.39-9.95
		c-1.24-4.78-5-4.91-6.34-0.22c-0.82,2.85,0.01,8.58,1.46,10.02C596.15,425.87,596.62,425.89,598.3,424.67L598.3,424.67z
		 M576.25,426.7c-2.27-1.59-3.12-5.39-2.38-10.65c1.06-7.53,4.02-10.19,9.63-8.68c2.29,0.62,3.13,1.32,3.95,3.28
		c1.47,3.51,1.33,4-1.1,4c-1.8,0-2.18-0.33-2.38-2.01c-0.18-1.54-0.67-2.06-2.12-2.23c-2.75-0.32-3.65,1.29-4.11,7.32
		c-0.33,4.34-0.18,5.55,0.75,6.32c1.6,1.33,3.65,0.78,4.52-1.21c0.53-1.21,1.24-1.61,2.56-1.46c2.21,0.26,2.13,2.28-0.19,4.78
		C583.54,428.15,578.71,428.43,576.25,426.7L576.25,426.7z M607.18,426.18c-0.57-2.64-2.6-16.34-2.6-17.56
		c0-0.72,0.88-1.22,2.52-1.41l2.52-0.29l2.71,6.46c1.49,3.55,2.95,6.61,3.24,6.79c0.29,0.18,0.77-2.87,1.07-6.79
		c0.3-3.96,0.9-7.36,1.37-7.66c1.1-0.71,4.86-0.72,4.87,0c0,0.3,0.66,4.66,1.45,9.69c0.79,5.03,1.45,9.39,1.45,9.69
		c0.01,0.77-3.47,0.69-3.96-0.1c-0.22-0.35-0.61-2.98-0.88-5.85c-0.27-2.87-0.73-5.21-1.03-5.21c-0.3,0-0.78,2.64-1.07,5.87
		c-0.42,4.71-0.8,6.02-1.92,6.62c-1.26,0.67-1.72,0.09-4.41-5.52c-1.66-3.45-3.1-6.18-3.22-6.06c-0.11,0.11,0.25,2.35,0.81,4.96
		c1.51,7.03,1.41,8.04-0.75,8.04C608.06,427.83,607.43,427.35,607.18,426.18L607.18,426.18z M629.23,423.65
		c-0.19-0.32-1.41-4.36-2.72-8.99c-1.3-4.63-2.52-8.8-2.7-9.28c-0.35-0.91,6.04-3.16,8.97-3.16c2.5,0,5.34,2.69,5.88,5.58
		c0.67,3.55-0.75,5.85-4.48,7.27l-3.09,1.18l1.01,3.35c0.55,1.84,0.92,3.42,0.82,3.5C632.19,423.72,629.5,424.11,629.23,423.65
		L629.23,423.65z M633.41,412.02c1.46-0.56,1.53-4.19,0.1-5.37c-0.58-0.48-1.82-0.77-2.74-0.64c-1.37,0.19-1.66,0.65-1.53,2.38
		C629.53,412.38,630.43,413.16,633.41,412.02L633.41,412.02z M553.67,422.41c-0.22-0.56-0.62-2.62-0.9-4.57
		c-0.66-4.59-2.2-4.66-3.51-0.17c-0.88,3.03-1.17,3.34-2.82,3.02c-1.01-0.19-1.84-0.69-1.84-1.1c0-0.41,1.32-4.96,2.94-10.1
		l2.94-9.36l4.38,1.48c4.59,1.55,6.56,3.44,6.56,6.29c0,2.37-1.92,5.83-3.51,6.34c-1.15,0.36-1.29,1.04-1.02,4.81
		c0.3,4.1,0.21,4.38-1.26,4.38C554.78,423.43,553.89,422.97,553.67,422.41L553.67,422.41z M556.1,410.82
		c2.03-2.63,1.3-5.33-1.58-5.8c-1.11-0.18-1.57,0.38-2.1,2.59c-0.53,2.18-0.45,2.97,0.32,3.46
		C554.16,411.97,555.28,411.88,556.1,410.82L556.1,410.82z M641.64,419.96c-0.3-0.5-1.58-16.2-1.58-19.48
		c0-0.76,0.73-1.65,1.62-1.98c1.43-0.53,2.4,0.34,8.23,7.39c3.64,4.39,6.61,8.17,6.61,8.4c0,0.23-0.74,0.71-1.65,1.07
		c-1.31,0.52-1.95,0.3-3.11-1.05c-1.4-1.64-1.57-1.66-4.17-0.61c-2.42,0.98-2.67,1.32-2.3,3.16c0.32,1.59,0.07,2.25-1.08,2.86
		C642.44,420.65,642.08,420.69,641.64,419.96L641.64,419.96z M646.95,410.31c0.87-0.55,0.75-1.1-0.73-3.28
		c-0.98-1.44-1.95-2.61-2.15-2.62c-0.2,0-0.25,1.48-0.11,3.29C644.22,410.99,644.92,411.6,646.95,410.31L646.95,410.31z
		 M536.75,416.91c-2.51-1.1-4.77-2.2-5.03-2.45c-0.26-0.26,1.29-4.59,3.44-9.64c4.36-10.23,3.5-9.7,10.61-6.55
		c4.06,1.8,4.37,2.16,3.3,3.85c-0.51,0.81-1.25,0.72-4.06-0.53l-3.43-1.52l-0.98,2.32c-0.97,2.31-0.96,2.33,1.87,3.6
		c2.96,1.33,3.25,1.78,2.2,3.43c-0.52,0.81-1.01,0.78-2.88-0.18c-3-1.55-3.41-1.49-4.4,0.7c-1.27,2.79-1.13,3.07,2.48,4.66
		c2.98,1.32,3.25,1.63,2.53,2.96c-0.44,0.82-0.87,1.45-0.95,1.41C541.38,418.93,539.26,418,536.75,416.91L536.75,416.91z
		 M523.58,410.58c-2.51-1.43-4.57-2.78-4.57-3.02c0-0.23,2.16-4.31,4.79-9.07c4.65-8.38,4.85-8.62,6.58-7.83l1.79,0.81l-4.09,7.62
		c-2.25,4.19-3.97,7.7-3.84,7.8c0.14,0.1,1.51,0.94,3.04,1.86c1.82,1.09,2.64,2.05,2.38,2.75c-0.23,0.59-0.41,1.21-0.41,1.38
		C529.24,413.58,527.92,413.04,523.58,410.58L523.58,410.58z M653.94,404.35c-2.67-4.86-4.75-8.93-4.62-9.05
		c1.48-1.27,7.99-4.05,9.49-4.05c3.04,0,5.99,3.94,5.53,7.37c-0.34,2.52-0.14,2.86,3.28,5.47l3.64,2.78l-1.95,1.02
		c-2.09,1.1-2.14,1.08-7.14-2.77c-1.68-1.29-2.08-1.37-2.43-0.46c-0.23,0.6,0.26,2.42,1.1,4.06c1.49,2.93,1.49,2.98,0.1,3.73
		c-0.78,0.42-1.58,0.76-1.78,0.76C658.97,413.19,656.62,409.22,653.94,404.35L653.94,404.35z M659.48,400.73
		c1.78-0.95,1.79-2.27,0.04-4.44c-1.21-1.5-1.6-1.6-3.29-0.83c-1.91,0.87-1.91,0.88-0.68,3.45
		C656.88,401.69,657.32,401.9,659.48,400.73L659.48,400.73z M511.98,403.55c-2.37-1.67-4.45-3.15-4.63-3.29
		c-0.69-0.55,11.17-16.99,11.94-16.55c2.69,1.52,2.61,1.84-2.27,8.84l-4.88,6.99l1.75,1.16c3.95,2.62,4.41,3.26,3.37,4.62
		C516.37,406.5,515.97,406.37,511.98,403.55L511.98,403.55z M671.07,396.69c-2.56-3.8-4.98-6.89-5.4-6.88
		c-0.41,0-1.38,0.5-2.15,1.08c-1.04,0.79-1.65,0.85-2.38,0.25c-0.53-0.45-0.97-1.06-0.97-1.36c0-0.3,2.5-2.28,5.55-4.39
		c5.01-3.47,5.66-3.73,6.69-2.71c1.02,1.02,0.94,1.3-0.89,2.88l-2.03,1.74l4.85,7l4.85,7l-1.73,1.14
		C675.73,403.58,675.67,403.52,671.07,396.69L671.07,396.69z M503.34,397.46c-1.21-0.92-1.28-1.32-0.52-3
		c0.77-1.7,0.68-2.16-0.74-3.67c-1.78-1.89-3.52-2.2-4.86-0.86c-0.66,0.66-1.29,0.63-2.71-0.13c-1.01-0.54-1.84-1.18-1.84-1.41
		c0-0.23,4.01-2.94,8.92-6.01c7.47-4.68,9.13-5.45,10.24-4.76c0.73,0.45,1.33,1.16,1.33,1.56c0.01,1.05-7.61,19.36-8.05,19.35
		C504.91,398.52,504.11,398.04,503.34,397.46L503.34,397.46z M506.8,385.74c1.68-3.52,1.64-3.55-1.7-1.35
		c-2.32,1.53-2.76,2.15-2.1,2.94C504.35,388.96,505.49,388.48,506.8,385.74L506.8,385.74z M583,397.02
		c-46.79-3.42-87.75-35.24-103-80.01c-4.62-13.56-5.97-22.26-5.95-38.4c0.01-16.04,0.85-21.83,5.19-35.84
		c2.68-8.66,9.19-22.67,13.46-28.97c3.02-4.46,12.01-15.86,13.44-17.05c0.84-0.7,2.4-0.62,7.33,0.36c3.45,0.68,6.27,1.46,6.27,1.72
		c0,0.26-1.84,2.27-4.09,4.47c-14.31,13.97-25.09,34.83-29.3,56.66c-1.79,9.28-1.76,28.3,0.04,37.67
		c8.48,43.86,40.81,77.06,84.17,86.44c10.54,2.28,28.51,2.61,39.5,0.72c40.16-6.89,72.21-34.27,84.89-72.53
		c2.39-7.22,15.82-30.54,16.28-28.27c0.47,2.34-1.32,15.45-3.14,22.93c-8.51,35.05-32.45,64.06-65.64,79.53
		C624.49,394.82,603.63,398.53,583,397.02L583,397.02z M678.94,388.53c-6.29-7.8-6.32-7.85-4.89-9.28c0.79-0.79,1.55-1.29,1.69-1.11
		c0.14,0.18,3.1,3.82,6.58,8.09c6.01,7.38,6.26,7.83,5.01,8.96c-0.72,0.66-1.49,1.19-1.69,1.19
		C685.44,396.37,682.42,392.84,678.94,388.53L678.94,388.53z M684.47,384.47c-3.71-3.73-6.75-7.15-6.75-7.6
		c0-1.22,4.87-5.27,6.96-5.8c2.85-0.72,5.3,0.24,8.77,3.44c3.42,3.16,5.17,6.95,4.36,9.49c-0.51,1.61-5.27,7.24-6.11,7.24
		C691.44,391.25,688.18,388.2,684.47,384.47L684.47,384.47z M693.79,384.72c1.19-2.23,0.96-2.81-2.63-6.66
		c-3.55-3.79-5.89-4.56-7.61-2.49c-0.81,0.97-0.26,1.82,3.73,5.85c2.57,2.59,4.92,4.71,5.22,4.71
		C692.78,386.13,693.37,385.49,693.79,384.72L693.79,384.72z M487.85,383.12c-1.34-1.48-1.28-1.57,4.8-7.17l6.15-5.67l-1.59-2.24
		c-1.42-1.99-1.47-2.34-0.47-3.17c0.96-0.79,1.74-0.33,5.17,3.03c4.99,4.89,5.8,6.25,4.6,7.69c-0.77,0.93-1.15,0.83-2.8-0.75
		l-1.91-1.83l-6.3,5.8C489.23,384.59,489.19,384.61,487.85,383.12L487.85,383.12z M575.54,377.7c-41.32-7.23-73.58-38.98-81.9-80.61
		c-1.93-9.66-1.74-28.85,0.38-38.75c4.1-19.13,13.59-36.68,27.35-50.57c3.33-3.36,6.64-6.42,7.36-6.81
		c0.89-0.48,3.14-0.32,6.95,0.48c3.1,0.65,6.38,1.33,7.28,1.52c0.91,0.19,1.65,0.61,1.65,0.94c0,0.33-6.86,14.73-15.25,31.99
		c-20.97,43.15-27.17,56.01-27.17,56.38c0,0.17,1.75,3.01,3.89,6.31c2.14,3.3,8.41,13.12,13.94,21.82l10.05,15.83l4.9,0.07
		c10.08,0.16,131.54,6.63,133.12,7.1c2.21,0.66-9.83,12.27-19.46,18.78c-9.48,6.41-22.86,12.02-35.31,14.81
		C605.7,378.7,583.6,379.11,575.54,377.7L575.54,377.7z M698.4,376.16c-1.3-0.64-3.68-2.6-5.3-4.36c-3.7-4.01-3.97-7.17-0.91-10.6
		c1.58-1.77,2.64-2.28,4.73-2.28c4.85,0,11.97,5.89,12.72,10.52c0.35,2.17,0.04,2.99-1.93,5.24
		C705.05,377.71,702.41,378.13,698.4,376.16L698.4,376.16z M705.37,372.82c1.5-1.5,0.98-3.11-1.87-5.88
		c-3.72-3.61-6.64-5.06-8.35-4.15c-2.44,1.3-1.59,3.96,2.4,7.55C701.28,373.7,703.72,374.47,705.37,372.82L705.37,372.82z
		 M575.82,332.35c-22.05-1.32-40.23-2.53-40.4-2.7c-0.36-0.36,7.69-28.49,8.36-29.23c0.5-0.54,88.8-17.42,89.2-17.04
		c0.2,0.19-9.31,40.08-11.63,48.81c-0.66,2.48-0.96,2.73-3.08,2.65C616.97,334.79,597.87,333.66,575.82,332.35L575.82,332.35z
		 M654.72,305.69c-16.21-23.26-19.12-27.08-20.68-27.08c-1.49,0-35.98,6.41-79.72,14.81c-4.51,0.87-8.41,1.38-8.65,1.13
		c-0.25-0.25,0.13-2.27,0.83-4.49l1.28-4.05l13.96-3.33c18.35-4.38,154.53-36.57,160.42-37.93c2.55-0.59,4.57-0.75,4.57-0.37
		c0,0.37-4.82,8.81-10.71,18.74c-5.89,9.93-17.52,29.56-25.84,43.61c-8.32,14.06-15.46,25.67-15.86,25.8
		C673.92,332.66,665.1,320.59,654.72,305.69L654.72,305.69z M519,308.09c-5.43-8.31-9.97-15.49-10.09-15.95
		c-0.19-0.75,6.56-14.92,33.66-70.64l8.39-17.25l7.06,1.12c3.88,0.61,7.06,1.38,7.06,1.71c0,0.33-7.26,24.2-16.12,53.07
		c-8.87,28.86-16.82,54.87-17.67,57.78c-0.85,2.92-1.74,5.3-1.98,5.3C529.07,323.21,524.44,316.4,519,308.09L519,308.09z
		 M549.74,279.53c0-0.7,0.29-1.71,0.62-2.24c0.48-0.76,80.51-32.82,86.91-34.82c1.6-0.5,1.6-0.48-0.61,7.76
		c-1.22,4.55-2.27,8.32-2.34,8.39c-0.07,0.07-9.01,2.48-19.87,5.35c-10.86,2.87-26,6.87-33.64,8.9
		C545.46,282.22,549.72,281.3,549.74,279.53L549.74,279.53z M552.65,268.63c0-2.94,26.46-87.38,27.98-89.31
		c1.04-1.31,20.45-1.21,28.19,0.16c22.1,3.89,40.9,13.71,55.99,29.26c8.17,8.41,15.6,19.46,19.8,29.43
		c4.09,9.71,4.6,8.58-4.86,10.81c-4.54,1.07-15.13,3.59-23.52,5.59c-8.4,2-15.37,3.53-15.5,3.4c-0.13-0.13,1.23-5.66,3.01-12.28
		c1.79-6.63,3.25-12.13,3.25-12.23c0.01-0.81-7.3,1.91-45.42,16.9c-23.89,9.4-44.68,17.61-46.19,18.25
		C552.93,269.64,552.65,269.64,552.65,268.63L552.65,268.63z M694.57,243.32c-8.04-19.55-13.59-28.33-25.44-40.28
		c-7.56-7.62-12.77-11.68-21.85-17.02c-16.22-9.55-31.3-13.94-50.38-14.69c-16-0.62-28.94,1.42-42.79,6.74
		c-3.42,1.32-12.14,3.6-19.38,5.07c-7.24,1.47-13.99,2.87-14.99,3.12c-1.65,0.4-1.73,0.32-0.8-0.81
		c1.69-2.05,13.82-9.88,20.55-13.26c26.66-13.39,60.37-16,88.94-6.89c30.64,9.77,56.46,31.81,70.67,60.31
		c3.27,6.57,6.62,15.45,6.25,16.57c-0.26,0.76-6.6,2.68-9.17,2.76C695.66,244.94,694.94,244.23,694.57,243.32L694.57,243.32z
		 M538.97,197.13c-13.76-2.48-25.2-4.7-25.43-4.92c-0.22-0.22,2.97-0.99,7.1-1.69c4.13-0.71,17.25-3.06,29.17-5.23
		c11.91-2.17,22.17-3.95,22.79-3.95c0.91,0,0.48,1.97-2.26,10.24c-2.91,8.79-3.6,10.23-4.87,10.16
		C564.65,201.69,552.73,199.62,538.97,197.13L538.97,197.13z M685.4,191.62c-4.46-1.83-5.71-7.33-2.63-11.64
		c5.52-7.75,14.14-8.94,16.87-2.34c1.27,3.06,0.48,5.43-3.08,9.29C692.05,191.82,689.02,193.1,685.4,191.62L685.4,191.62z
		 M692.36,185.28c3.98-3.72,4.95-5.67,3.62-7.27c-1.7-2.05-4.41-1.22-8.12,2.49c-3.78,3.78-4.25,5.15-2.4,7
		C687.25,189.3,688.49,188.9,692.36,185.28z M493.8,183.56c-7.21-7.24-7.25-7.3-5.88-8.81l1.38-1.52l6.07,6.03l6.07,6.03l2.58-2.5
		c2.44-2.36,2.65-2.43,3.83-1.24c1.19,1.19,1.04,1.48-2.76,5.27l-4.02,4.02L493.8,183.56z M674.47,181.38
		c-1.16-1.28-1.2-1.8-0.34-5.13c1.35-5.27,0.14-6.17-2.99-2.22c-2.4,3.03-2.4,3.03-3.86,1.57c-1.46-1.46-1.46-1.47,4.68-9.19
		c3.38-4.25,6.47-7.74,6.88-7.74c1.64,0,7.66,6.36,7.66,8.11c0,2.79-2.36,5.95-5.12,6.88c-2.17,0.73-2.68,1.37-3.64,4.59
		C676.35,182.89,676.07,183.15,674.47,181.38L674.47,181.38z M681.84,168.49c1.17-1.79,1.16-1.95-0.31-3.41
		c-1.31-1.31-1.71-1.39-2.72-0.56c-2.03,1.69-2.76,3.63-1.79,4.8C678.37,170.93,680.48,170.57,681.84,168.49L681.84,168.49z
		 M506.3,171.46c-2.92-8.08-3.4-10.07-2.65-10.97c0.5-0.6,1.23-1.1,1.63-1.1c0.63,0,11.99,7.6,16.47,11.02l1.64,1.25l-1.89,1.23
		c-1.72,1.13-2,1.13-3.16,0.09c-1.64-1.48-1.97-1.46-4.49,0.33c-1.83,1.3-2,1.73-1.37,3.39c0.56,1.48,0.45,2.2-0.51,3.26
		c-0.68,0.75-1.43,1.36-1.67,1.36C510.06,181.34,508.26,176.89,506.3,171.46L506.3,171.46z M510.89,167.28
		c-1.32-1.1-2.55-1.85-2.74-1.66c-0.19,0.19,0.25,1.67,0.98,3.29c1.28,2.85,1.37,2.9,2.74,1.66
		C513.26,169.31,513.25,169.24,510.89,167.28L510.89,167.28z M656.07,167.88c-2.94-2.94-3.16-5.17-0.94-9.75
		c3.9-8.06,9.18-10.4,13.92-6.17c2.26,2.02,3.03,5.32,1.73,7.43c-0.89,1.44-3.2-0.64-3.43-3.1c-0.18-1.85-0.61-2.43-1.95-2.62
		c-2.26-0.32-4.57,1.92-6.73,6.53c-1.96,4.19-1.48,5.99,1.69,6.38c2.14,0.26,3.43-2.16,2.05-3.83c-0.44-0.53-0.6-1.5-0.35-2.14
		c0.4-1.03,0.78-0.98,3.3,0.45c1.57,0.89,2.85,1.9,2.85,2.23c0,0.33-0.85,2.06-1.89,3.84c-1.74,2.98-2.14,3.24-4.83,3.24
		C659.13,170.36,658.07,169.88,656.07,167.88L656.07,167.88z M643.53,161.7c-2.51-1.13-4.73-2.21-4.94-2.42
		c-0.21-0.21,1.42-4.46,3.61-9.45c2.76-6.28,4.32-9.01,5.07-8.87c0.59,0.11,3.08,1.11,5.54,2.22c4.15,1.88,4.39,2.12,3.43,3.42
		c-1,1.37-1.08,1.37-4.06,0.04c-3.19-1.44-3.93-1.19-4.77,1.58c-0.41,1.36-0.01,1.81,2.52,2.93c2.69,1.19,2.9,1.46,2.03,2.64
		c-0.91,1.23-1.14,1.24-3.78,0.14c-1.54-0.65-2.87-1.07-2.95-0.95c-0.37,0.61-1.9,4.36-1.9,4.67c0,0.2,1.52,1.01,3.37,1.8
		c2.48,1.06,3.25,1.75,2.93,2.59c-0.24,0.63-0.44,1.29-0.44,1.46c0,0.6-1.16,0.23-5.66-1.78V161.7z M535.65,159.58
		c-2.16-2.27-4.94-8.8-4.94-11.59c0-2.63,1.18-4.49,3.64-5.77c2.93-1.51,5.31-1.39,7.6,0.41c2.34,1.84,2.41,2.56,0.34,3.67
		c-1.29,0.69-1.75,0.63-2.46-0.34c-1.62-2.21-5.46-1.01-5.46,1.7c0,1.85,4.25,10.27,5.4,10.71c0.59,0.23,1.78,0.04,2.66-0.45
		c1.17-0.63,1.5-1.33,1.24-2.67c-0.26-1.37,0.04-1.97,1.21-2.41c2.15-0.81,2.65-0.33,2.65,2.51
		C547.53,160.89,539.59,163.72,535.65,159.58L535.65,159.58z M632.64,157.38c-1.7-0.29-2.02-1.26-2.87-8.79
		c-0.29-2.52-0.76-4.74-1.06-4.92c-0.3-0.18-1.29,2.3-2.2,5.52c-1.51,5.3-1.81,5.81-3.21,5.38c-0.85-0.26-1.68-0.6-1.86-0.76
		c-0.18-0.16,0.94-4.69,2.48-10.07l2.8-9.79l1.98,0.69c1.85,0.65,2.05,1.14,3.04,7.79l1.06,7.1l1.99-6.33
		c1.74-5.52,2.18-6.28,3.45-5.95c0.8,0.21,1.6,0.62,1.78,0.92c0.37,0.6-4.66,18.44-5.38,19.07
		C634.41,157.46,633.5,157.52,632.64,157.38L632.64,157.38z M552.2,156.16c-0.24-0.63-1.68-5.07-3.19-9.87l-2.75-8.73l1.82-0.45
		c1-0.25,1.91-0.36,2.02-0.24c0.37,0.4,6.22,19.1,6.03,19.26c-0.1,0.09-0.93,0.39-1.84,0.67
		C553.13,157.15,552.51,156.97,552.2,156.16L552.2,156.16z M562.16,153.78c-3.64-1.42-5.04-5.36-1.91-5.36
		c0.96,0,1.95,0.52,2.19,1.15c0.29,0.75,1.14,1.07,2.46,0.91c1.57-0.18,2.02-0.62,2.02-1.98c0-1.91-0.53-2.29-5.56-4.06
		c-2.21-0.78-3.65-1.81-4.21-3.02c-1.27-2.79-1.04-3.88,1.3-6.22c2.79-2.79,6.64-2.94,9.23-0.34c2.31,2.31,2.26,3.06-0.2,3.54
		c-1.43,0.27-2.27,0-2.97-1.01c-1.3-1.86-4.01-0.58-3.68,1.74c0.17,1.19,1.15,1.84,4.05,2.69c4.47,1.32,5.85,2.51,6.46,5.59
		c0.35,1.73,0.06,2.68-1.26,4.16C568.37,153.48,564.31,154.61,562.16,153.78L562.16,153.78z M575,146.27
		c-0.26-3.04-0.66-7.75-0.9-10.47l-0.43-4.94l2.11,0c1.88,0,2.44,0.62,5.26,5.85c1.74,3.22,3.35,5.85,3.57,5.85
		c0.23,0,0.19-2.8-0.09-6.22l-0.5-6.22h2.13h2.13l0.51,8.59c0.28,4.73,0.7,9.36,0.92,10.29c0.37,1.55,0.2,1.68-2,1.46
		c-2.19-0.22-2.71-0.78-5.7-6.27c-1.81-3.32-3.37-5.95-3.47-5.85c-0.1,0.1,0.04,3.03,0.33,6.52l0.5,6.34l-1.95,0.29
		C575.49,151.8,575.47,151.75,575,146.27L575,146.27z M596.35,150.81l-2.74-0.29l0-5.26c0-2.89,0.21-7.48,0.47-10.2l0.47-4.94h3.46
		c5.51,0,8.03,0.72,8.03,2.29c0,1.17-0.58,1.37-4.02,1.37H598v2.56c0,2.55,0.01,2.56,3.29,2.56c2.8,0,3.29,0.22,3.29,1.46
		c0,1.24-0.49,1.46-3.21,1.46c-2.71,0-3.27,0.26-3.65,1.65c-1.03,3.85-0.73,4.21,3.56,4.21c3.8,0,4.02,0.1,4.02,1.83
		c0,1.68-0.25,1.82-3.11,1.71C600.49,151.16,597.86,150.97,596.35,150.81L596.35,150.81z"/>
</g>
<g>
	<g>
		<path class="st1" d="M198.53,327.81c-1.87,0.88-3.43,1.28-5.18,1.28c-4.15,0-6.1-2.92-6.1-7.31c0-4.21,2.09-7.06,6.43-7.06
			c2.12,0,3.47,0.51,4.56,1.23l-1.15,2.03c-0.78-0.52-1.95-0.88-3.39-0.88c-2.48,0-3.61,1.89-3.61,4.64c0,3.27,1.19,5.05,3.53,5.05
			c0.9,0,1.77-0.18,2.42-0.49v-2.54h-1.91l-0.14-2h4.54V327.81z"/>
		<path class="st1" d="M209.75,323.84c0,3.43-1.73,5.25-4.73,5.25c-3.02,0-4.72-1.81-4.72-5.25c0-2.96,1.65-5.22,4.72-5.22
			C208.06,318.62,209.75,320.88,209.75,323.84 M207,323.84c0-2.42-0.72-3.27-1.97-3.27c-1.25,0-1.95,0.86-1.95,3.27
			c0,2.34,0.63,3.28,1.95,3.28C206.34,327.12,207,326.24,207,323.84"/>
		<path class="st1" d="M214.25,319.85c0.45-0.61,1.54-1.23,2.67-1.23c2.36,0,4.06,1.69,4.06,5.22c0,3.47-2.05,5.26-4.39,5.26
			c-1.44,0-2.27-0.56-2.92-1.42l-0.49,1.21h-1.43v-14.16h2.69v3.51L214.25,319.85z M214.43,326.09c0.41,0.55,1.11,1.02,1.83,1.02
			c1.17,0,2.03-0.86,2.03-3.28c0-2.4-0.76-3.25-1.99-3.25c-0.68,0-1.41,0.35-1.87,0.8V326.09z"/>
		<path class="st1" d="M223.84,328.88v-8.09l-1.15-0.25v-1.72h3.82v10.06H223.84z M223.76,314.72h2.71v2.44h-2.71V314.72z"/>
		<path class="st1" d="M231.25,324.57c0,1.6,0.9,2.48,2.59,2.48c1.04,0,2.06-0.43,2.94-0.86l0.51,1.89
			c-0.84,0.45-2.18,1.01-3.78,1.01c-3.14,0-4.97-1.93-4.97-5.26c0-3.1,1.48-5.22,4.7-5.22c3.04,0,4.25,2.26,4.25,4.79v1.17H231.25z
			 M233.12,320.59c-1.33,0-1.87,1.21-1.87,2.4h3.67C234.93,321.7,234.52,320.59,233.12,320.59"/>
		<path class="st1" d="M245.24,321.06c-0.33-0.1-0.78-0.16-1.25-0.16c-0.72,0-1.35,0.31-1.81,0.68v7.3h-2.67v-10.06h1.87
			c0.1,0.47,0.21,0.91,0.29,1.35h0.08c0.3-0.72,1.21-1.54,2.4-1.54c0.54,0,0.92,0.08,1.15,0.15
			C245.28,319.54,245.28,320.3,245.24,321.06"/>
		<path class="st1" d="M253.11,328.88v-5.97c0-1.52-0.58-2.24-1.81-2.24c-0.7,0-1.3,0.31-1.77,0.62v7.59h-2.69v-10.06h1.85
			l0.41,1.15c0.57-0.68,1.68-1.35,3.18-1.35c2.54,0,3.55,1.5,3.55,4.05v6.22H253.11z"/>
		<path class="st1" d="M267.08,323.84c0,3.43-1.73,5.25-4.73,5.25c-3.01,0-4.72-1.81-4.72-5.25c0-2.96,1.65-5.22,4.72-5.22
			C265.39,318.62,267.08,320.88,267.08,323.84 M264.32,323.84c0-2.42-0.72-3.27-1.98-3.27c-1.25,0-1.94,0.86-1.94,3.27
			c0,2.34,0.63,3.28,1.94,3.28C263.66,327.12,264.32,326.24,264.32,323.84"/>
		<path class="st1" d="M280.12,319.61c-0.17-0.58-0.25-1.09-0.25-1.85v-3.04h2.68v14.16h-2.18l-0.31-1.11
			c-0.41,0.61-1.38,1.31-2.67,1.31c-2.28,0-4.11-1.64-4.11-5.23c0-3.33,1.89-5.24,4.33-5.24
			C278.7,318.62,279.56,318.99,280.12,319.61 M279.87,321.12c-0.41-0.25-1.04-0.49-1.82-0.49c-1.27,0-2.07,0.87-2.07,3.21
			c0,2.4,0.76,3.3,2.04,3.3c0.67,0,1.35-0.32,1.86-0.86V321.12z"/>
		<path class="st1" d="M287.29,324.57c0,1.6,0.9,2.48,2.58,2.48c1.05,0,2.05-0.43,2.94-0.86l0.51,1.89
			c-0.84,0.45-2.18,1.01-3.78,1.01c-3.14,0-4.97-1.93-4.97-5.26c0-3.1,1.48-5.22,4.7-5.22c3.04,0,4.25,2.26,4.25,4.79v1.17H287.29z
			 M289.15,320.59c-1.33,0-1.87,1.21-1.87,2.4h3.67C290.96,321.7,290.55,320.59,289.15,320.59"/>
		<path class="st1" d="M305.75,329.09c-3.9,0-5.97-2.63-5.97-7.25c0-4.25,2.05-7.13,5.97-7.13c1.89,0,3.59,0.41,4.72,1.17
			l-1.03,2.13c-0.72-0.53-1.97-0.94-3.41-0.94c-2.3,0-3.45,1.71-3.45,4.74c0,3.2,1.15,4.91,3.4,4.91c1.36,0,2.72-0.57,3.66-1.27
			l0.86,2.16C309.14,328.56,307.58,329.09,305.75,329.09"/>
		<path class="st1" d="M312.37,328.88v-14.16h2.69v3.72c0,0.7-0.22,1.39-0.26,1.56c0.57-0.7,1.41-1.37,2.85-1.37
			c2.9,0,3.72,1.5,3.72,4.05v6.22h-2.73v-5.97c0-0.27-0.04-0.47-0.15-0.61c-0.08-1.13-0.66-1.62-1.66-1.62
			c-0.7,0-1.3,0.31-1.77,0.62v7.59H312.37z"/>
		<path class="st1" d="M324.36,328.88v-8.09l-1.15-0.25v-1.72h3.82v10.06H324.36z M324.28,314.72h2.71v2.44h-2.71V314.72z"/>
		<path class="st1" d="M329.48,326.21v-11.5h2.65v11.35c0,0.84,0.51,0.97,1.62,0.97v1.89c0,0-0.78,0.16-1.48,0.16
			C330.21,329.09,329.48,328,329.48,326.21"/>
		<path class="st1" d="M337.82,324.57c0,1.6,0.9,2.48,2.58,2.48c1.05,0,2.05-0.43,2.94-0.86l0.51,1.89
			c-0.84,0.45-2.17,1.01-3.77,1.01c-3.14,0-4.97-1.93-4.97-5.26c0-3.1,1.48-5.22,4.7-5.22c3.04,0,4.25,2.26,4.25,4.79v1.17H337.82z
			 M339.68,320.59c-1.34,0-1.87,1.21-1.87,2.4h3.67C341.49,321.7,341.08,320.59,339.68,320.59"/>
		<path class="st1" d="M358.06,54.8H46.25h-5v5l0.01,283.53v5h5h311.81h5v-5L363.06,59.8v-5H358.06z M46.25,59.8h125.24l0.01,283.53
			H46.25L46.25,59.8z M358.06,343.33H176.49L176.49,59.8h181.57L358.06,343.33z"/>
	</g>
	<g>
		<g>
			<g>
				<path class="st1" d="M112.79,98.68c0.28-0.23,0.87-0.74,0.4-1.7c-0.23-0.45-0.83-0.49-0.57-0.55c3.2-0.75,4.92-5.43,4.82-7.22
					c1.65,1.52,5.34,1.95,8.02-0.33c1.73-1.67,2.57-6.05-0.4-8.24c-1.51-1.12-4.2-1.22-5.88,0.08c-0.53-0.89-1.45-1.53-2.44-1.54
					c-0.01-0.31,0.04-2.42-1.21-3.79c-1.6-1.75-6.1-1.88-7.74,0.03c-3.23-0.81-7.43,0.68-7.2,5.75c-2.27-0.9-3.57-0.91-4.77-0.8
					c-1.13,0.11-2.64,1.12-3.16,1.81c-0.24,0.31-0.51,0.74-0.7,1.12c-0.37,0.73-0.65,1.68-0.55,2.75c0.17,1.8,1.06,3.32,2.37,4.04
					c1.8,0.99,4.09,0.85,4.91,0.72c0.63-0.14,1.3-0.37,2.01-1.11c0.21-0.21,0.36-0.55,0.67-0.56c-0.01,0.46-0.17,2.88,2.54,4.04
					c0.01,0.12,0.05,0.23,0.08,0.4c0.86,3.34,3.11,2.93,3.14,3.16c-1,0.6-0.57,1.48-0.34,1.93c1.52-0.47,2.65-0.53,3.01-0.53
					C110.14,98.14,111.27,98.21,112.79,98.68z"/>
				<g>
					<polygon class="st2" points="109.43,102.04 107.4,108.73 100.2,108.73 100.22,108.73 106.06,112.91 103.83,119.52 
						109.43,115.27 115.03,119.52 112.8,112.91 118.64,108.73 118.65,108.73 111.45,108.73 					"/>
					<path class="st1" d="M120.39,108.76c-0.01-3.35,2.25-5.94,2.28-5.97c0.25-0.28,0.27-0.54,0.26-0.72
						c-0.05-0.31-0.29-0.52-0.33-0.53c-0.65-0.44-2.1-1.32-2.1-1.32l-0.12-0.1h-0.12c-0.16,0-0.28,0.09-0.48,0.24
						c-0.4,0.31-1.15,0.89-2.45,0.89c-0.23,0-0.47-0.02-0.72-0.05c-0.68-0.09-1.82-0.68-1.82-0.68c-0.37-0.19-0.84-0.4-1.03-0.48
						l-0.08-0.03c-1.87-0.77-3.46-0.84-3.9-0.84c-0.44,0-2.03,0.06-3.9,0.84l-0.09,0.03c-0.1,0.05-0.27,0.12-0.47,0.21l-1.14,0.54
						c-0.38,0.17-0.87,0.36-1.24,0.41c-0.24,0.03-0.48,0.05-0.72,0.05c-1.3,0-2.05-0.58-2.45-0.89c-0.2-0.15-0.32-0.24-0.47-0.24
						l-0.11,0.01l-0.07,0.05c-0.01,0-1.49,0.91-2.1,1.34c-0.1,0.04-0.33,0.24-0.38,0.56c-0.02,0.18,0,0.44,0.26,0.71
						c0.09,0.11,2.29,2.66,2.28,6.02c0.06,0.38,0.22,2.4-1.5,5.37c-0.08,0.15-1.97,3.61,0.1,6.64c0.01,0.03,1.56,2.85,6.08,2.85
						c0.37,0,3.71,0.06,4.86,2.2c0.05,0.08,0.59,0.94,0.8,1.36l0.26,0.51l0.25-0.51c0.22-0.42,0.75-1.26,0.82-1.38
						c1.13-2.12,4.47-2.18,4.84-2.18c4.46,0,6.06-2.81,6.06-2.81c2.12-3.11,0.14-6.67,0.12-6.69
						C120.17,111.22,120.33,109.19,120.39,108.76z M118.64,108.73l-5.84,4.18l2.23,6.61l-5.61-4.25l-5.6,4.25l2.23-6.61l-5.84-4.18
						l-0.02-0.01h7.21l2.02-6.69l2.02,6.69h7.2L118.64,108.73z"/>
					<g>
						<path class="st2" d="M89.88,140.96c3.18,3.27,7.79,1.46,7.79,1.46c0.73-0.11,1.12-2.37,1.31-4.13
							c-2.77-0.36-5.44-0.85-8.01-1.51C90.11,138.91,89.88,140.96,89.88,140.96z"/>
						<path class="st2" d="M89.04,127.13c-0.11-0.09-0.21-0.19-0.35-0.22c-0.4-0.07-0.69,0.27-1.15,0.18
							c-0.42-0.08-3.66-2.59-3.9-2.75c-0.7-0.48-1.85-1.13-2.36-1.85c-0.35-0.49-0.07-1.11-0.14-1.71
							c-0.04-0.44-0.57-1.47-1.46-1.76c-0.2,1.03-1.57,4.69-5.99,5.61c-0.6,2.37,0.34,6.99,0.88,7.56c0.41,0.07,0.79,0.28,1.13,0.55
							c0.04-0.91,0.29-1.52,0.29-1.52c1.23-2.51,4.12-1.73,4.12-1.73c1.01,0.31,1.22,1.2,1.22,1.2c0.39,1.99-1.26,2.16-1.26,2.16
							c-1.18,0.06-1.21-0.9-1.21-0.9c-0.15-0.93,1.17-0.98,1.17-0.98c-1.11-1.95-4.62,1.25-2.32,4.07c0.24,0.28,0.45,0.09,0.45,0.09
							c6.9-3.42,8.02-4.87,8.02-4.87c1.47-1.3,2.58-2.11,3.43-2.67C89.27,127.37,89.04,127.13,89.04,127.13z"/>
						<path class="st2" d="M121.7,99.58c0.12,0.09,0.26,0.2,0.42,0.33C121.96,99.79,121.82,99.67,121.7,99.58z"/>
						<path class="st2" d="M123.92,101.3c-0.23-0.17-0.49-0.37-0.74-0.57C123.45,100.94,123.69,101.13,123.92,101.3L123.92,101.3z"
							/>
						<path class="st2" d="M122.36,100.1c0.23,0.18,0.44,0.34,0.69,0.54C122.81,100.45,122.58,100.27,122.36,100.1z"/>
						<path class="st2" d="M88.52,139.76c0.22-0.26,0.5-1.48,0.5-1.48c0.17-0.68,0.41-1.25,0.66-1.82
							c-0.75-0.21-1.47-0.47-2.21-0.71C87.55,138.02,88.52,139.76,88.52,139.76z"/>
						<path class="st2" d="M121.08,138.29c0.19,1.76,0.57,4.02,1.31,4.12c0,0,4.62,1.81,7.79-1.46c0,0-0.22-2.04-1.08-4.17
							C126.52,137.44,123.85,137.93,121.08,138.29z"/>
						<path class="st2" d="M131.04,138.29c0,0,0.29,1.21,0.5,1.48c0,0,0.97-1.73,1.05-3.98c-0.73,0.24-1.45,0.49-2.2,0.7
							C130.63,137.05,130.87,137.61,131.04,138.29z"/>
						<path class="st2" d="M96.68,131.96c-1.49,0.02-2.66,0.61-3.57,1.47c1.73,0.4,3.76,0.77,6.01,1.08
							C98.74,131.94,96.68,131.96,96.68,131.96z"/>
						<path class="st2" d="M128.14,133.15c1.39-0.35,2.63-0.69,3.61-1c-0.2-0.39-0.41-0.78-0.72-1.17c0,0-3.91-4.75-10.93-2.08
							c-0.15,0.05,0.31,1.18,2.24,1.61C122.6,130.56,125.63,130.76,128.14,133.15z"/>
						<path class="st2" d="M123.38,131.96c0,0-2.07-0.03-2.44,2.56c2.25-0.32,4.28-0.68,6.02-1.08
							C126.04,132.58,124.87,131.99,123.38,131.96z"/>
						<path class="st2" d="M103.68,130.33c-0.5-0.69-1.23-0.71-1.23-0.71c-1.02-0.01-1.22,2.35-1.52,5.15
							c2.15,0.25,4.55,0.4,7.09,0.46C106.93,133.01,104.56,131.55,103.68,130.33z"/>
						<path class="st2" d="M89.02,130.98c-0.3,0.38-0.51,0.77-0.71,1.16c0.98,0.31,2.23,0.65,3.62,1c2.51-2.38,5.54-2.58,5.79-2.63
							c1.93-0.43,2.38-1.56,2.24-1.61C92.93,126.23,89.02,130.98,89.02,130.98z"/>
						<path class="st2" d="M117.61,129.62c0,0-0.73,0.02-1.23,0.71c-0.88,1.22-3.26,2.68-4.34,4.9c2.54-0.06,4.94-0.21,7.09-0.46
							C118.84,131.97,118.63,129.61,117.61,129.62z"/>
						<path class="st1" d="M159.45,136.51c-0.73-0.89-2.67-0.45-2.67-0.45c1.04-3.11-1.83-3.93-1.83-3.93
							c-1.03-0.27-1.7-0.08-2.14,0.22c0,0-0.02,0.01-0.03,0.02c-0.01,0.01-0.02,0.01-0.02,0.02c-0.08,0.05-0.14,0.1-0.21,0.17
							c-0.26,0.27-0.42,0.64-0.42,1.03c0,0.82,0.67,1.49,1.5,1.49c0.32,0,0.61-0.1,0.86-0.27c0.3-0.21,0.51-0.53,0.59-0.89
							c0.4,0.25,0.55,0.7,0.55,0.7c0.84,2.65-2.14,3.6-2.14,3.6c-6.57,1.97-10.59-1.42-10.59-1.42l1.15-0.61
							c0.4-0.17,0.76-0.23,1.04-0.23c-0.01,0.05-0.02,0.13-0.02,0.19c0,0.71,0.59,1.29,1.3,1.29c0.72,0,1.3-0.58,1.3-1.29
							c-0.01-0.54-0.26-0.8-0.26-0.8c-0.77-1.16-3.42-0.39-3.42-0.39c0.88-2.18,0.09-3.74,0.09-3.74c-1.23-2.51-4.12-1.73-4.12-1.73
							c-1.01,0.31-1.22,1.2-1.22,1.2c-0.39,1.99,1.26,2.16,1.26,2.16c1.19,0.06,1.2-0.9,1.2-0.9c0.15-0.93-1.16-0.98-1.16-0.98
							c1.11-1.95,4.6,1.25,2.32,4.07c-0.24,0.28-0.46,0.09-0.46,0.09c-4.09-2.03-6.12-3.35-7.12-4.1c-0.1-1.11-1.07-1.68-0.89-1.98
							c0.16-0.07,0.74,0.22,1.06-0.26c0.12-0.18,0.39-1.94,0.6-3.19c3.62,1.65,6.71,1.15,7.33,0.95c0.32-0.13,0.57-0.36,0.58-0.83
							c0.06-1.38-3.52-9.49-3.61-12.35c1.69,0.84,2.73-1.77,3.04-2.56c2.27,1.04,3.05,22.08,4.8,22.79c0.87,0.35,1.22-1.08,1.3-1.34
							c2.81-9.38,2.9-18.52,2.72-21.58c-0.28-4.8-0.67-9.1-1.83-13.05c-0.71-2.43-2.09-7.4-5.3-8.08c-1.5-0.32-2.64,1.08-2.62,2.34
							c0.02,1.09,0.78,1.62,0.44,2.69c-0.4,0.7-0.8,1.46-1,2.25c-0.19,0.78,0.5,1.1,0.28,1.93c-1.02-0.15-1.52,0.74-3.12,0.33
							c1.04-0.48,1.05-3.45-0.22-3.96c-0.19-0.08-0.41-0.11-0.44-0.28c0,0,0.41-0.44,0.62-0.86c0.73-1.5,0.73-2.82,0.15-3.82
							c0.53,0.05,1.08-0.93,1.15-1.7l0.01,0.01c0-0.01,0-0.05,0-0.06v-0.01c0.01-0.2-0.02-0.88,0.28-1.52c0.1-0.21,0-0.44-0.18-0.54
							c-0.18-0.08-0.42-0.01-0.53,0.2c-0.31,0.67-1.07,0.29-0.75-0.37c0.09-0.21,0-0.44-0.18-0.53c-0.18-0.08-0.42-0.02-0.52,0.19
							c-0.3,0.64-1.03,0.28-0.73-0.36c0.1-0.21,0-0.44-0.17-0.53c-0.17-0.08-0.42-0.02-0.52,0.2c-0.31,0.66-1.07,0.29-0.76-0.36
							c0.1-0.22,0-0.45-0.18-0.54c-0.18-0.08-0.41-0.01-0.52,0.2c-0.33,0.7-0.57,0.99-0.92,1.27c-0.71,0.13-0.52,0.94-0.44,1.5
							c-1.33-0.29-2.33,0.72-2.37,1.63h-0.15c-1.1,0.03-2.15,0.59-2.07,1.61c0.04,0.57,0.71,1.29,0.97,1.3
							c0.12-0.04-0.06-0.61,0.51-0.65c0.52-0.03,1.3,0.42,1.39,0.91c0.11,0.56-0.35,1.92,1.44,2.12c0,0-0.01,0.28-0.04,0.57
							c-0.64-0.04-0.81-0.08-1.45,0.02c-1.13,0.18-2.68,0.82-3.06,1.94c-0.07,0.19-0.1,0.58-0.07,0.85c0.02,0.23,0.24,0.52,0.21,0.8
							c-0.02,0.14-0.26,0.42-0.35,0.51c-0.47,0.5-1.35,0.97-2.12,1.01c-0.86,0.04-1.69-0.51-2.03-0.97
							c-1.14-1.53,0.34-4.18,0.31-5.17c-0.07-2.63-3.39-1.06-4.7-0.38c-1.57,0.82-2.82,2.15-3.87,3.45
							c-0.58,0.71-1.23,1.61-1.55,2.37c-0.06,0.14-0.18,0.16-0.32,0.16c0.67,0.3,1.86,0.75,2.8,0.76c0,0,1.83,0.25,3.15-0.85
							c0,0,0.19-0.16,0.45-0.16c0.19,0,0.36,0.08,0.5,0.21c0.01,0.02,0.18,0.15,0.38,0.31c0.12,0.09,0.26,0.21,0.42,0.33
							c0.08,0.06,0.16,0.12,0.24,0.19c0.22,0.17,0.45,0.35,0.69,0.54c0.04,0.03,0.08,0.07,0.13,0.1c0.26,0.2,0.52,0.4,0.74,0.57l0,0
							c0.27,0.2,0.53,0.39,0.68,0.49l0.01,0.01c0.03,0.02,0.09,0.08,0.11,0.19c0.01,0.1-0.04,0.22-0.13,0.33
							c-0.01,0.01-0.14,0.16-0.35,0.42c-0.44,0.56-1.18,1.65-1.75,2.99c0.62,1.08,1.66,2.36,3.15,2.38
							c1.19,0.01,1.68-0.58,1.86-1.35c0.02,0.02,0.08,0.1,0.09,0.1c0.14-0.13,0.8,3.43,1.67,4.4c-0.81,0.38-2.07,1.65-1.39,5.17
							c-0.67-0.54-1.9-1.47-2.49-2.08c-0.35-0.73-1.05-2.44-3.03-2.61c0.29,0.88,0.7,1.87,1.34,2.98c0.01,0.03,1.22,2.26,0.85,4.79
							c0.83-0.85,0.7-3.2,0.7-3.2c0.03-0.03,0.15-0.07,0.18-0.08c0.17-0.01,1,1.62,2.44,1.96c1.88,3.21,3.99,5.25,6.03,6.53
							c-0.04,0.78,0.06,2.63-0.44,2.63c-1.61,0.36-3.09-0.73-4.5-0.65c-0.12-0.06-0.25-0.11-0.25-0.11
							c-6.09-2.93-14.11,3.36-15.45,4.58c-0.7,0.65-1.52-0.24-1.52-0.24c-0.48-0.61-1.11-0.88-1.73-0.81
							c-0.61-0.07-1.25,0.2-1.72,0.81c0,0-0.82,0.89-1.52,0.24c-1.27-1.16-8.54-6.79-14.48-4.87c-0.02-0.32-0.82-0.49-1.04-0.57
							c-0.47-0.13-0.89-0.51-1.18-0.65c-0.65-0.32-1.7-0.12-2.44-0.21c-0.29-0.04-0.69-0.19-0.94-0.35
							c-0.95-0.59-2.04-1.3-2.64-2.16c-0.1-0.14-0.33-0.46-0.38-0.52c-0.3-0.37-0.44-0.65-0.67-1.26c-0.32-1.17,0.18-2.43,0.35-3.62
							c0.13-0.88,0.1-0.94,0.18-1.88c3.77-1.3,5.32-4.13,6.2-5.63c0.08-0.12,0.32-0.6,0.32-0.6c0.17,0.02,0.33,0.04,0.52,0.05
							c1.51,0.01,2.52-0.83,4.18-0.63c0,0.09,0.22,0.79,1.29,1.22c0.03,1.08,0.11,1.98,0.52,2.82c0.09,0.15,0.2,0.27,0.29,0.39
							c0.71-1.74,0.89-3.09,0.91-3.91c-0.05-0.07-0.1-0.17-0.13-0.33c-0.35-1.84-1.21-2.34-2.02-2.81c-0.4-0.22-0.84-0.28-1.22-0.56
							c-0.59-0.4-1.21-0.83-1.6-1.59c0,0,0.19-0.18,0.4-0.44c1.05-1.1,1.58-2.73,1.97-4.51c0.81-1.1,3.05-0.67,3.9-0.52
							c0.22,0.03,0.59,0.11,0.76,0.24c0.24,0.17,0.3,0.55,0.63,0.69c0.35,0.15,0.75,0.04,1.18,0c0.16,0.18,0.24,0.43,0.36,0.65
							c0,0,0.12,0.21,0.34,0.44c1.05-0.02,2.45-0.57,3.04-0.87c-0.07-0.05-0.13-0.09-0.16-0.14c-0.47-0.6-1.18-1.26-1.84-1.37
							c-0.83-0.14-1.01-0.88-1.81-1.04c-0.2-0.06-0.91-0.16-1.15-0.07c-1.77,0.23-3.01-0.44-4.67-0.56
							c-1.57-0.11-1.62,0.96-2.19,1.85c-0.21,0.33-0.46,0.72-0.72,0.97c-0.43,0.42-0.94,0.43-1.46,0.83L91.13,99
							c-0.15-0.54-0.35-1.11-0.7-1.64c-0.85-1.34-1.83-2.38-3.72-2.81c-0.36-0.15-0.42-0.17-0.66-0.36c-0.31-0.24-0.09-0.53,0-0.56
							c0.54-0.31,1.47-0.2,2.09-0.48c1.51-0.7,0.98-1.99,0.39-2.09c-0.76-0.14-2.13-0.5-2.4-0.66c-0.37-0.23-1-1.38-1.6-1.67
							c-0.66-0.18-0.43-1.26-1.05-1.5c-0.26-0.05-0.65,0.09-1.08,0.3c-0.03-0.23-0.19-1.46-0.87-1.86
							c-0.51-0.29-0.69,0.16-0.67,0.46c0.03,0.26,0.74,0.62,0.88,1.79c-0.12,0.08-0.24,0.15-0.37,0.23
							c-0.1-0.48-0.31-1.22-0.81-1.52c-0.51-0.29-0.69,0.16-0.67,0.45c0.02,0.25,0.65,0.58,0.85,1.56
							c-0.15,0.12-0.29,0.25-0.43,0.38c-1.02-0.28-1.29-0.97-1.54-1.02c-0.29-0.06-0.75,0.08-0.51,0.62
							c0.25,0.54,1.01,0.83,1.47,0.97c-0.1,0.11-0.19,0.22-0.28,0.33c-1.18-0.24-1.47-1-1.73-1.06c-0.29-0.05-0.76,0.09-0.52,0.62
							c0.34,0.75,1.68,1.04,1.8,1.06c-0.19,0.32-0.31,0.61-0.27,0.82c-0.92-0.11-2.54,0.39-2.24,1.47c0.3,0.22,1.39-0.67,2.38-0.17
							c0.66,1.02,1.71,1.06,1.95,1.25c0.37,0.29,0.43,0.82,0.59,1.29c0.29,0.88,0.91,1.59,1.43,2.37c0.56,0.86,1.15,1.76,1.74,2.5
							c0.07,0.2,0.14,0.41,0.1,0.73c-0.67,1.07-2.69,2.32-3.51,3.09c-0.83,0.79-8.72,6.79-9.71,9.4c-0.22,0.59-0.35,1.34-0.31,2.12
							c-0.48,0.26-1.54,0.67-1.87,0.2c-0.61-0.85,0.58-1.49,0.32-2.31c-0.12-0.31-0.58-0.53-0.87-0.31
							c-1.96,1.41-0.95,3.9,0.29,4.47c1.37,0.57,1.56-0.9,2.62-0.31c0.25,0.14,2.75,2.38,2.33,4.15c-0.03,0.09-0.12,0.35-0.17,0.41
							c-0.55,0.68-1.46,1.21-2.09,1.85c-1.3,0.82,1.24,6.01,1.02,8.68c-0.15,1.01,0.84,0.89,1.45,2.48
							c-0.62,0.02-1.22,0.17-1.53,0.63c0,0-0.26,0.26-0.26,0.8c0,0.71,0.58,1.29,1.3,1.29c0.72,0,1.3-0.58,1.3-1.29
							c0-0.07,0-0.14-0.01-0.19c0.28,0,0.65,0.05,1.04,0.23l1.15,0.61c0,0-4.02,3.39-10.59,1.42c0,0-2.98-0.95-2.14-3.6
							c0,0,0.15-0.44,0.55-0.7c0.08,0.36,0.3,0.68,0.59,0.89c0.24,0.17,0.54,0.27,0.86,0.27c0.82,0,1.49-0.67,1.49-1.49
							c0-0.4-0.15-0.76-0.41-1.03c-0.06-0.06-0.13-0.11-0.21-0.17c0-0.01-0.01-0.01-0.01-0.01c-0.02-0.02-0.03-0.02-0.03-0.02
							c-0.45-0.31-1.12-0.5-2.15-0.23c0,0-2.87,0.83-1.83,3.93c0,0-1.94-0.44-2.67,0.45c0,0-0.25,0.28-0.23,0.73v0.02v0.02
							c0.02,0.18,0.07,0.39,0.21,0.63c0.2,0.29,0.54,0.48,0.92,0.48c0.35,0,0.66-0.16,0.88-0.42c0-0.01,0.01-0.01,0.01-0.01
							c0.08-0.1,0.32-0.24,0.67,0.13c4.36,4.54,11.46,2.67,15.4-0.37c0,0,2.18-2.2,4.62-3.54c0.95,0.41,1.95,0.71,2.93,1.06
							c-0.07,1.41,0.22,3.44,1.8,5.79c0,0-1.11,2.05-2.99,0.93c0,0-1.39-1.07-0.21-2.35c0,0,0.79-0.66,1.13,0.17
							c-0.4,0.02-0.73,0.35-0.73,0.76c0,0.42,0.34,0.76,0.76,0.76c0.41,0,0.74-0.32,0.76-0.72c0.04-0.31,0.06-1.1-0.62-1.67
							c0,0-0.6-0.65-1.73-0.47c-1.65,0.26-2.59,3.71,0.68,5.15c0,0,2.57,1.17,3.89-0.75c0,0-0.02-0.28,0.48,0.2
							c2.72,2.63,8.78,1.87,11.19,0.08c0,0,0.61-0.39,1.28-0.7c0.03,1.01,0.86,1.84,1.89,1.84c1.04,0,1.88-0.85,1.88-1.89
							c0-0.93-0.67-1.7-1.56-1.86c-0.04-0.01-1.25-0.36-3,0.71c0,0-1.86,1.16-1.75,0.99c0.63-0.98,1.01-2.31,1.28-3.73
							c2.64,0.29,5.36,0.48,8.17,0.55c-0.03,0.82-0.15,1.82-0.46,2.58c0,0-0.99,0.41-1.01,1.11c0,0-0.11,0.51,0.77,1.22
							c0,0,0.64,0.71,0.83,1.26c0,0,0.05,0.77,1.11,0.77c0.08,0,0.14-0.01,0.2-0.02c0.07,0.01,0.13,0.02,0.2,0.02
							c1.06,0,1.11-0.77,1.11-0.77c0.19-0.55,0.83-1.26,0.83-1.26c0.88-0.71,0.77-1.22,0.77-1.22c-0.02-0.7-1.02-1.11-1.02-1.11
							c-0.31-0.76-0.43-1.76-0.46-2.58c2.81-0.06,5.53-0.25,8.17-0.54c0.27,1.42,0.66,2.74,1.28,3.73c0.11,0.18-1.75-0.99-1.75-0.99
							c-1.76-1.07-2.98-0.72-3.01-0.71c-0.89,0.16-1.55,0.93-1.55,1.86c0,1.04,0.84,1.89,1.88,1.89c1.03,0,1.86-0.83,1.89-1.84
							c0.67,0.32,1.28,0.7,1.28,0.7c2.4,1.79,8.47,2.55,11.19-0.08c0.49-0.48,0.47-0.2,0.47-0.2c1.32,1.91,3.89,0.75,3.89,0.75
							c3.26-1.43,2.32-4.89,0.68-5.15c-1.13-0.18-1.74,0.47-1.74,0.47c-0.67,0.57-0.66,1.36-0.62,1.67c0.02,0.4,0.35,0.72,0.76,0.72
							c0.42,0,0.76-0.33,0.76-0.76c0-0.41-0.33-0.74-0.73-0.76c0.34-0.82,1.13-0.17,1.13-0.17c1.18,1.29-0.21,2.35-0.21,2.35
							c-1.87,1.13-2.99-0.93-2.99-0.93c1.57-2.35,1.87-4.37,1.8-5.78c0.98-0.35,1.99-0.66,2.94-1.07c2.43,1.35,4.6,3.54,4.6,3.54
							c3.94,3.04,11.04,4.92,15.4,0.37c0.35-0.36,0.59-0.23,0.66-0.13c0,0,0.01,0,0.01,0.01c0.21,0.25,0.52,0.42,0.88,0.42
							c0.38,0,0.71-0.2,0.92-0.48c0.13-0.24,0.19-0.45,0.21-0.63v-0.01v-0.02C159.7,136.79,159.45,136.51,159.45,136.51z
							 M78.15,135.14c0,0-0.22,0.19-0.45-0.09c-2.29-2.82,1.21-6.01,2.32-4.07c0,0-1.32,0.05-1.17,0.98c0,0,0.02,0.96,1.21,0.9
							c0,0,1.65-0.17,1.26-2.16c0,0-0.21-0.9-1.22-1.2c0,0-2.89-0.79-4.12,1.73c0,0-0.25,0.6-0.29,1.52
							c-0.34-0.27-0.71-0.48-1.13-0.55c-0.54-0.57-1.49-5.18-0.88-7.56c4.42-0.92,5.78-4.58,5.99-5.61c0.9,0.29,1.42,1.33,1.46,1.76
							c0.07,0.6-0.21,1.22,0.14,1.71c0.52,0.72,1.66,1.37,2.36,1.85c0.24,0.15,3.48,2.66,3.9,2.75c0.46,0.1,0.75-0.25,1.15-0.18
							c0.14,0.03,0.24,0.13,0.35,0.22c0,0,0.23,0.23,0.56,0.47c-0.85,0.56-1.96,1.37-3.43,2.67
							C86.18,130.27,85.05,131.73,78.15,135.14z M89.02,138.29c0,0-0.28,1.21-0.5,1.48c0,0-0.97-1.74-1.05-4
							c0.73,0.24,1.46,0.5,2.21,0.71C89.43,137.04,89.19,137.6,89.02,138.29z M97.68,142.41c0,0-4.62,1.81-7.79-1.46
							c0,0,0.22-2.05,1.09-4.18c2.57,0.66,5.25,1.15,8.01,1.51C98.8,140.04,98.41,142.3,97.68,142.41z M93.11,133.43
							c0.92-0.86,2.09-1.45,3.57-1.47c0,0,2.06-0.03,2.44,2.55C96.88,134.2,94.84,133.83,93.11,133.43z M97.72,130.51
							c-0.25,0.05-3.28,0.26-5.79,2.63c-1.39-0.35-2.64-0.69-3.62-1c0.2-0.39,0.41-0.78,0.71-1.16c0,0,3.92-4.75,10.94-2.08
							C100.09,128.95,99.65,130.08,97.72,130.51z M100.93,134.77c0.29-2.8,0.5-5.16,1.52-5.15c0,0,0.73,0.02,1.23,0.71
							c0.88,1.22,3.25,2.68,4.34,4.9C105.48,135.16,103.08,135.02,100.93,134.77z M112.04,135.23c1.08-2.22,3.46-3.68,4.34-4.9
							c0.5-0.69,1.23-0.71,1.23-0.71c1.02-0.01,1.22,2.35,1.52,5.15C116.98,135.02,114.58,135.17,112.04,135.23z M120.11,128.9
							c7.02-2.67,10.93,2.08,10.93,2.08c0.31,0.38,0.51,0.78,0.72,1.17c-0.98,0.31-2.23,0.65-3.61,1c-2.51-2.38-5.55-2.58-5.8-2.64
							C120.42,130.08,119.96,128.95,120.11,128.9z M123.38,131.96c1.49,0.02,2.66,0.61,3.58,1.48c-1.74,0.4-3.77,0.77-6.02,1.08
							C121.31,131.93,123.38,131.96,123.38,131.96z M122.39,142.41c-0.73-0.11-1.12-2.37-1.31-4.12c2.77-0.36,5.44-0.85,8.02-1.5
							c0.86,2.13,1.08,4.17,1.08,4.17C127,144.22,122.39,142.41,122.39,142.41z M131.54,139.76c-0.22-0.26-0.5-1.48-0.5-1.48
							c-0.17-0.68-0.41-1.24-0.65-1.81c0.75-0.21,1.47-0.46,2.2-0.7C132.51,138.03,131.54,139.76,131.54,139.76z"/>
					</g>
				</g>
			</g>
		</g>
	</g>
</g>
<g>
	<path class="st1" d="M203.54,91.95l-0.36-14.82h-0.1c-0.31,1.87-0.62,3.22-0.86,4.24l-2.5,10.58h-5.02l-2.39-10.58
		c-0.23-1.01-0.55-2.37-0.88-4.24h-0.1l-0.23,14.82h-3.12l0.68-17.55h5.85c0,0,1.92,8.84,2.94,14.51h0.08
		c1.17-5.64,3.46-14.51,3.46-14.51h5.75l0.68,17.55H203.54z"/>
	<path class="st1" d="M211.36,91.95v-10.3l-1.48-0.31v-2.13h4.86v12.74H211.36z M211.26,74.01h3.43v3.09h-3.43V74.01z"/>
	<path class="st1" d="M225.74,91.95v-7.57c0-1.92-0.73-2.83-2.29-2.83c-0.88,0-1.64,0.39-2.24,0.78v9.62h-3.41V79.21h2.34l0.52,1.46
		c0.73-0.86,2.13-1.72,4.03-1.72c3.22,0,4.5,1.9,4.5,5.12v7.88H225.74z"/>
	<path class="st1" d="M233.02,91.95v-10.3l-1.48-0.31v-2.13h4.86v12.74H233.02z M232.92,74.01h3.43v3.09h-3.43V74.01z"/>
	<path class="st1" d="M242.43,82.56c0,1.98,5.51,1.38,5.51,5.54c0,2.31-1.72,4.11-5.02,4.11c-1.53,0-2.96-0.44-3.82-0.94l0.7-2.37
		c0.6,0.42,1.85,0.88,3.02,0.88c1.12,0,1.87-0.62,1.87-1.4c0-2.29-5.43-1.53-5.43-5.88c0-1.87,1.43-3.56,4.86-3.56
		c1.33,0,2.7,0.26,3.59,0.62l-0.47,2.47c-0.86-0.39-1.95-0.65-3.07-0.65C243.01,81.39,242.43,81.83,242.43,82.56z"/>
	<path class="st1" d="M255.33,92.21c-2.26,0-3.74-1.07-3.74-4.26v-6.32h-1.9v-2.42h1.9V77l3.35-1.09v3.3h3.41v2.42h-3.41v6.24
		c0,0.88,0.44,1.46,1.35,1.46c0.7,0,1.43-0.21,1.95-0.47l0.52,2.5C258.01,91.79,256.68,92.21,255.33,92.21z"/>
	<path class="st1" d="M263.21,86.49c0,2.03,1.14,3.15,3.28,3.15c1.3,0,2.63-0.49,3.74-1.07l0.65,2.39
		c-1.07,0.57-2.81,1.25-4.81,1.25c-3.93,0-6.27-2.44-6.27-6.66c0-3.93,1.9-6.6,5.98-6.6c3.85,0,5.36,2.86,5.36,6.06v1.48H263.21z
		 M265.6,81.44c-1.69,0-2.39,1.53-2.39,3.04h4.65C267.86,82.85,267.37,81.44,265.6,81.44z"/>
	<path class="st1" d="M280.94,82.04c-0.42-0.13-1.01-0.21-1.59-0.21c-0.91,0-1.72,0.39-2.29,0.86v9.26h-3.38V79.21h2.37l0.36,1.72
		h0.08c0.39-0.91,1.53-1.95,3.04-1.95c0.68,0,1.2,0.1,1.48,0.18L280.94,82.04z"/>
	<path class="st1" d="M284.03,91.95v-10.3l-1.48-0.31v-2.13h4.86v12.74H284.03z M283.93,74.01h3.43v3.09h-3.43V74.01z"/>
	<path class="st1" d="M301.95,85.55c0,4.34-2.18,6.66-5.98,6.66c-3.82,0-5.98-2.29-5.98-6.66c0-3.74,2.08-6.6,5.98-6.6
		C299.81,78.95,301.95,81.81,301.95,85.55z M298.46,85.55c0-3.07-0.91-4.13-2.5-4.13c-1.59,0-2.47,1.09-2.47,4.13
		c0,2.96,0.81,4.16,2.47,4.16C297.63,89.71,298.46,88.59,298.46,85.55z"/>
	<path class="st1" d="M318.46,80.2c-0.21-0.73-0.31-1.38-0.31-2.34v-3.85h3.38v17.94h-2.76l-0.39-1.4
		c-0.52,0.78-1.74,1.66-3.38,1.66c-2.89,0-5.2-2.08-5.2-6.63c0-4.21,2.39-6.63,5.49-6.63C316.66,78.95,317.75,79.41,318.46,80.2z
		 M318.14,82.12c-0.52-0.31-1.33-0.62-2.31-0.62c-1.61,0-2.63,1.09-2.63,4.06c0,3.04,0.96,4.19,2.57,4.19
		c0.86,0,1.72-0.42,2.37-1.09V82.12z"/>
	<path class="st1" d="M327.5,86.49c0,2.03,1.14,3.15,3.28,3.15c1.3,0,2.63-0.49,3.74-1.07l0.65,2.39c-1.07,0.57-2.81,1.25-4.81,1.25
		c-3.93,0-6.27-2.44-6.27-6.66c0-3.93,1.9-6.6,5.98-6.6c3.85,0,5.36,2.86,5.36,6.06v1.48H327.5z M329.9,81.44
		c-1.69,0-2.39,1.53-2.39,3.04h4.65C332.16,82.85,331.66,81.44,329.9,81.44z"/>
	<path class="st1" d="M188.15,115.07v-14.56h3.35v14.38c0,1.07,0.65,1.22,2.05,1.22v2.39c0,0-0.99,0.21-1.87,0.21
		C189.08,118.71,188.15,117.33,188.15,115.07z"/>
	<path class="st1" d="M203.62,118.45l-0.47-1.51c-0.65,0.88-1.92,1.77-3.72,1.77c-2.55,0-4.26-1.64-4.26-4.08
		c0-2.37,1.74-3.77,4.81-3.77h2.68v-0.65c0-1.64-0.94-2.16-2.24-2.16c-1.51,0-2.78,0.39-3.82,0.86l-0.86-2.42
		c1.27-0.55,3.02-1.04,5.02-1.04c3.61,0,5.17,1.66,5.17,4.91v8.09H203.62z M202.65,112.88h-2.11c-1.4,0-2.05,0.68-2.05,1.64
		c0,1.17,0.62,1.87,1.9,1.87c0.81,0,1.64-0.36,2.26-0.86V112.88z"/>
	<path class="st1" d="M211.83,109.06c0,1.98,5.51,1.38,5.51,5.54c0,2.31-1.72,4.11-5.02,4.11c-1.53,0-2.96-0.44-3.82-0.94l0.7-2.37
		c0.6,0.42,1.85,0.88,3.02,0.88c1.12,0,1.87-0.62,1.87-1.4c0-2.29-5.43-1.53-5.43-5.88c0-1.87,1.43-3.56,4.86-3.56
		c1.33,0,2.7,0.26,3.59,0.62l-0.47,2.47c-0.86-0.39-1.95-0.65-3.07-0.65C212.4,107.89,211.83,108.33,211.83,109.06z"/>
	<path class="st1" d="M232.94,118.71c-4.94,0-7.59-3.28-7.59-9.13c0-5.46,2.63-8.94,7.59-8.94c2.39,0,4.55,0.52,5.98,1.48l-1.3,2.76
		c-0.91-0.7-2.5-1.22-4.32-1.22c-2.91,0-4.37,2.05-4.37,5.9c0,4.06,1.46,6.14,4.32,6.14c1.72,0,3.43-0.73,4.63-1.61l1.09,2.76
		C237.23,118.03,235.26,118.71,232.94,118.71z"/>
	<path class="st1" d="M249.79,118.45l-0.52-1.56c-0.6,0.78-1.95,1.82-3.98,1.82c-3.17,0-4.63-1.77-4.63-5.28v-7.72h3.38v7.75
		c0,1.95,0.7,2.65,2.24,2.65c0.88,0,1.69-0.34,2.29-0.75v-9.65h3.46v12.74H249.79z"/>
	<path class="st1" d="M254.89,115.07v-14.56h3.35v14.38c0,1.07,0.65,1.22,2.05,1.22v2.39c0,0-0.99,0.21-1.87,0.21
		C255.82,118.71,254.89,117.33,254.89,115.07z"/>
	<path class="st1" d="M267.21,118.71c-2.26,0-3.74-1.07-3.74-4.26v-6.32h-1.9v-2.42h1.9v-2.21l3.35-1.09v3.3h3.41v2.42h-3.41v6.24
		c0,0.88,0.44,1.46,1.35,1.46c0.7,0,1.43-0.21,1.95-0.47l0.52,2.5C269.89,118.29,268.56,118.71,267.21,118.71z"/>
	<path class="st1" d="M281.72,118.45l-0.52-1.56c-0.6,0.78-1.95,1.82-3.98,1.82c-3.17,0-4.63-1.77-4.63-5.28v-7.72h3.38v7.75
		c0,1.95,0.7,2.65,2.24,2.65c0.88,0,1.69-0.34,2.29-0.75v-9.65h3.46v12.74H281.72z"/>
	<path class="st1" d="M294.02,108.54c-0.42-0.13-1.01-0.21-1.59-0.21c-0.91,0-1.72,0.39-2.29,0.86v9.26h-3.38v-12.74h2.37l0.36,1.72
		h0.08c0.39-0.91,1.53-1.95,3.04-1.95c0.68,0,1.2,0.1,1.48,0.18L294.02,108.54z"/>
	<path class="st1" d="M303.66,118.45l-0.47-1.51c-0.65,0.88-1.92,1.77-3.72,1.77c-2.55,0-4.26-1.64-4.26-4.08
		c0-2.37,1.74-3.77,4.81-3.77h2.68v-0.65c0-1.64-0.94-2.16-2.24-2.16c-1.51,0-2.78,0.39-3.82,0.86l-0.86-2.42
		c1.27-0.55,3.02-1.04,5.02-1.04c3.61,0,5.17,1.66,5.17,4.91v8.09H303.66z M302.7,112.88h-2.11c-1.4,0-2.05,0.68-2.05,1.64
		c0,1.17,0.62,1.87,1.9,1.87c0.81,0,1.64-0.36,2.26-0.86V112.88z"/>
	<path class="st1" d="M311.88,109.06c0,1.98,5.51,1.38,5.51,5.54c0,2.31-1.72,4.11-5.02,4.11c-1.53,0-2.96-0.44-3.82-0.94l0.7-2.37
		c0.6,0.42,1.85,0.88,3.02,0.88c1.12,0,1.87-0.62,1.87-1.4c0-2.29-5.43-1.53-5.43-5.88c0-1.87,1.43-3.56,4.86-3.56
		c1.33,0,2.7,0.26,3.59,0.62l-0.47,2.47c-0.86-0.39-1.95-0.65-3.07-0.65C312.45,107.89,311.88,108.33,311.88,109.06z"/>
	<path class="st1" d="M319.76,114.78h3.43v3.87c0,2.18-1.25,3.09-3.43,3.33v-1.77c0.47-0.1,0.81-0.55,0.81-1.77l-0.81-0.39V114.78z"
		/>
	<path class="st1" d="M188.15,141.57v-14.56h3.35v14.38c0,1.07,0.65,1.22,2.05,1.22V145c0,0-0.99,0.21-1.87,0.21
		C189.08,145.21,188.15,143.83,188.15,141.57z"/>
	<path class="st1" d="M203.62,144.95l-0.47-1.51c-0.65,0.88-1.92,1.77-3.72,1.77c-2.55,0-4.26-1.64-4.26-4.08
		c0-2.37,1.74-3.77,4.81-3.77h2.68v-0.65c0-1.64-0.94-2.16-2.24-2.16c-1.51,0-2.78,0.39-3.82,0.86l-0.86-2.42
		c1.27-0.55,3.02-1.04,5.02-1.04c3.61,0,5.17,1.66,5.17,4.91v8.09H203.62z M202.65,139.38h-2.11c-1.4,0-2.05,0.68-2.05,1.64
		c0,1.17,0.62,1.87,1.9,1.87c0.81,0,1.64-0.36,2.26-0.86V139.38z"/>
	<path class="st1" d="M211.83,135.56c0,1.98,5.51,1.38,5.51,5.54c0,2.31-1.72,4.11-5.02,4.11c-1.53,0-2.96-0.44-3.82-0.94l0.7-2.37
		c0.6,0.42,1.85,0.88,3.02,0.88c1.12,0,1.87-0.62,1.87-1.4c0-2.29-5.43-1.53-5.43-5.88c0-1.87,1.43-3.56,4.86-3.56
		c1.33,0,2.7,0.26,3.59,0.62l-0.47,2.47c-0.86-0.39-1.95-0.65-3.07-0.65C212.4,134.39,211.83,134.83,211.83,135.56z"/>
	<path class="st1" d="M227.87,144.95h-3.33l4.76-17.55h5.67l4.6,17.55h-3.82l-0.91-3.95h-6.03L227.87,144.95z M231.36,130.39
		l-1.92,7.85h4.78l-1.79-7.85H231.36z"/>
	<path class="st1" d="M248.67,135.04c-0.42-0.13-1.01-0.21-1.59-0.21c-0.91,0-1.72,0.39-2.29,0.86v9.26h-3.38v-12.74h2.37l0.36,1.72
		h0.08c0.39-0.91,1.53-1.95,3.04-1.95c0.68,0,1.2,0.1,1.48,0.18L248.67,135.04z"/>
	<path class="st1" d="M255.43,145.21c-2.26,0-3.74-1.07-3.74-4.26v-6.32h-1.9v-2.42h1.9V130l3.35-1.09v3.3h3.41v2.42h-3.41v6.24
		c0,0.88,0.44,1.46,1.35,1.46c0.7,0,1.43-0.21,1.95-0.47l0.52,2.5C258.11,144.79,256.79,145.21,255.43,145.21z"/>
	<path class="st1" d="M263.31,139.49c0,2.03,1.14,3.15,3.28,3.15c1.3,0,2.63-0.49,3.74-1.07l0.65,2.39
		c-1.07,0.57-2.81,1.25-4.81,1.25c-3.93,0-6.27-2.44-6.27-6.66c0-3.93,1.9-6.6,5.98-6.6c3.85,0,5.36,2.86,5.36,6.06v1.48H263.31z
		 M265.7,134.44c-1.69,0-2.39,1.53-2.39,3.04h4.65C267.97,135.85,267.47,134.44,265.7,134.44z"/>
	<path class="st1" d="M276.75,135.56c0,1.98,5.51,1.38,5.51,5.54c0,2.31-1.72,4.11-5.02,4.11c-1.53,0-2.96-0.44-3.82-0.94l0.7-2.37
		c0.6,0.42,1.85,0.88,3.02,0.88c1.12,0,1.87-0.62,1.87-1.4c0-2.29-5.43-1.53-5.43-5.88c0-1.87,1.43-3.56,4.86-3.56
		c1.33,0,2.7,0.26,3.59,0.62l-0.47,2.47c-0.86-0.39-1.95-0.65-3.07-0.65C277.33,134.39,276.75,134.83,276.75,135.56z"/>
	<path class="st1" d="M295.52,144.66l-2.37,0.42l-3.8-12.87h3.82l2.7,10.69h0.05l2.73-10.69h3.38l-3.93,13.05
		c-1.09,3.67-2.94,5.02-5.56,5.02c-1.43,0-3.04-0.81-3.59-1.27l1.07-2.31h0.31c0.1,0.08,1.17,0.91,2.37,0.91
		c1.35,0,2.24-0.94,2.7-2.57L295.52,144.66z"/>
	<path class="st1" d="M312.5,139.49c0,2.03,1.14,3.15,3.28,3.15c1.3,0,2.63-0.49,3.74-1.07l0.65,2.39
		c-1.07,0.57-2.81,1.25-4.81,1.25c-3.93,0-6.27-2.44-6.27-6.66c0-3.93,1.9-6.6,5.98-6.6c3.85,0,5.36,2.86,5.36,6.06v1.48H312.5z
		 M314.89,134.44c-1.69,0-2.39,1.53-2.39,3.04h4.65C317.16,135.85,316.66,134.44,314.89,134.44z"/>
	<path class="st1" d="M323.03,141.57v-14.56h3.35v14.38c0,1.07,0.65,1.22,2.05,1.22V145c0,0-0.99,0.21-1.87,0.21
		C323.97,145.21,323.03,143.83,323.03,141.57z"/>
	<path class="st1" d="M193.53,165.34h-1.92v6.11h-3.41V153.9h5.33c3.59,0,6.68,1.72,6.68,5.49
		C200.21,162.76,197.66,165.34,193.53,165.34z M193.45,156.78h-1.85v5.88h1.85c2,0,3.15-1.22,3.15-3.15
		C196.6,157.72,195.4,156.78,193.45,156.78z"/>
	<path class="st1" d="M209.44,171.45l-0.47-1.51c-0.65,0.88-1.92,1.77-3.72,1.77c-2.55,0-4.26-1.64-4.26-4.08
		c0-2.37,1.74-3.77,4.81-3.77h2.68v-0.65c0-1.64-0.94-2.16-2.24-2.16c-1.51,0-2.78,0.39-3.82,0.86l-0.86-2.42
		c1.27-0.55,3.02-1.04,5.02-1.04c3.61,0,5.17,1.66,5.17,4.91v8.09H209.44z M208.48,165.88h-2.11c-1.4,0-2.05,0.68-2.05,1.64
		c0,1.17,0.62,1.87,1.9,1.87c0.81,0,1.64-0.36,2.26-0.86V165.88z"/>
	<path class="st1" d="M219.43,171.71c-2.26,0-3.74-1.07-3.74-4.26v-6.32h-1.9v-2.42h1.9v-2.21l3.35-1.09v3.3h3.41v2.42h-3.41v6.24
		c0,0.88,0.44,1.46,1.35,1.46c0.7,0,1.43-0.21,1.95-0.47l0.52,2.5C222.1,171.29,220.78,171.71,219.43,171.71z"/>
	<path class="st1" d="M232.27,161.54c-0.42-0.13-1.01-0.21-1.59-0.21c-0.91,0-1.72,0.39-2.29,0.86v9.26h-3.38v-12.74h2.37l0.36,1.72
		h0.08c0.39-0.91,1.53-1.95,3.04-1.95c0.68,0,1.2,0.1,1.48,0.18L232.27,161.54z"/>
	<path class="st1" d="M235.36,171.45v-10.3l-1.48-0.31v-2.13h4.86v12.74H235.36z M235.26,153.51h3.43v3.09h-3.43V153.51z"/>
	<path class="st1" d="M253.09,163.57v7.88h-3.43v-7.57c0-1.92-0.7-2.83-2.29-2.83c-0.88,0-1.56,0.39-2.16,0.78v9.62h-3.41v-12.74
		h2.29l0.57,1.48c0.73-0.88,1.98-1.74,3.77-1.74c2.08,0,3.33,0.62,3.98,1.79c0.75-0.91,2.08-1.79,3.85-1.79
		c3.64,0,4.71,1.9,4.71,5.12v7.88h-3.46v-7.57c0-1.92-0.81-2.83-2.39-2.83c-0.83,0-1.59,0.39-2.16,0.78
		C253.07,162.35,253.09,162.95,253.09,163.57z"/>
	<path class="st1" d="M275.17,165.05c0,4.34-2.18,6.66-5.98,6.66c-3.82,0-5.98-2.29-5.98-6.66c0-3.74,2.08-6.6,5.98-6.6
		C273.04,158.45,275.17,161.31,275.17,165.05z M271.68,165.05c0-3.07-0.91-4.13-2.5-4.13c-1.59,0-2.47,1.09-2.47,4.13
		c0,2.96,0.81,4.16,2.47,4.16C270.85,169.21,271.68,168.09,271.68,165.05z"/>
	<path class="st1" d="M285.62,171.45v-7.57c0-1.92-0.73-2.83-2.29-2.83c-0.88,0-1.64,0.39-2.24,0.78v9.62h-3.41v-12.74h2.34
		l0.52,1.46c0.73-0.86,2.13-1.72,4.03-1.72c3.22,0,4.5,1.9,4.5,5.12v7.88H285.62z"/>
	<path class="st1" d="M292.9,171.45v-10.3l-1.48-0.31v-2.13h4.86v12.74H292.9z M292.8,153.51h3.43v3.09h-3.43V153.51z"/>
	<path class="st1" d="M310.81,165.05c0,4.34-2.18,6.66-5.98,6.66c-3.82,0-5.98-2.29-5.98-6.66c0-3.74,2.08-6.6,5.98-6.6
		C308.68,158.45,310.81,161.31,310.81,165.05z M307.33,165.05c0-3.07-0.91-4.13-2.5-4.13c-1.59,0-2.47,1.09-2.47,4.13
		c0,2.96,0.81,4.16,2.47,4.16C306.5,169.21,307.33,168.09,307.33,165.05z"/>
</g>
</svg>
