<?xml version="1.0" encoding="utf-8"?>
<!-- Generator: Adobe Illustrator 25.0.0, SVG Export Plug-In . SVG Version: 6.00 Build 0)  -->
<svg version="1.1" id="Capa_1" xmlns="http://www.w3.org/2000/svg" xmlns:xlink="http://www.w3.org/1999/xlink" x="0px" y="0px"
	 viewBox="0 0 400 400" style="enable-background:new 0 0 400 400;" xml:space="preserve">
<style type="text/css">
	.st0{fill:#020203;}
	.st1{font-family:'Arial-BoldMT';}
	.st2{font-size:66.1445px;}
</style>
<g id="layer1">
	<g id="g444" transform="matrix(3.1004846,0,0,3.1004846,-92.295908,-251.14057)">
		<path id="path9425" class="st0" d="M72.22,153.45c-0.99-0.99-0.51-3.12,1.36-5.99c2.5-3.83,4.11-5.58,5.88-6.38
			c1.37-0.62,2.81-0.68,16.53-0.69c8.84-0.01,15.57,0.15,16.37,0.37c1.71,0.48,3.61,2.38,6.17,6.19c2.27,3.38,2.86,5.35,1.88,6.33
			c-0.56,0.56-2.77,0.62-24.18,0.62C78.41,153.9,72.56,153.79,72.22,153.45L72.22,153.45z M80.26,138.1
			c-2.02-1.59-2.11-2.12-2.11-12.63c0-10.87,0.15-11.6,2.65-12.94c1.17-0.63,2.44-0.69,15.29-0.69c15.51,0,15.97,0.06,17.35,2.32
			c0.71,1.17,0.76,1.88,0.76,11.32c0,11.04-0.08,11.48-2.27,12.77c-0.92,0.54-2.81,0.61-15.86,0.61
			C81.62,138.88,81.24,138.86,80.26,138.1L80.26,138.1z M104.44,131.55v-1.7l-8.17,0.1l-8.17,0.1l-0.12,1.06
			c-0.25,2.17-0.41,2.13,8.37,2.13h8.09L104.44,131.55z M104.44,125.36v-1.51l-8.17,0.1l-8.17,0.1l-0.12,1.41l-0.12,1.41h8.28h8.28
			L104.44,125.36z M104.44,119.35v-1.51l-8.17,0.1l-8.17,0.1l-0.12,0.87c-0.28,1.95-0.31,1.94,8.37,1.94h8.09L104.44,119.35z
			 M46.58,128.02c-1.51-1.51-1.51-3.42,0-4.94c0.81-0.81,1.45-1.1,2.47-1.1c3.62,0,4.97,5.01,1.81,6.7
			C49.4,129.46,47.77,129.21,46.58,128.02L46.58,128.02z M58.5,128.35c-1.27-1-1.63-2.91-0.84-4.43c2.13-4.12,8.25-1.21,6.46,3.07
			c-0.3,0.72-0.89,1.5-1.31,1.72C61.6,129.36,59.57,129.19,58.5,128.35z M70.83,128.66c-1.23-0.7-1.67-1.52-1.67-3.11
			c0-1.63,0.46-2.45,1.74-3.13c2.39-1.27,5.38,0.46,5.38,3.13C76.28,128.23,73.17,130,70.83,128.66L70.83,128.66z M117.32,128.21
			c-0.87-0.75-1.05-1.2-1.05-2.66c0-1.46,0.18-1.91,1.05-2.66c2.81-2.42,7.03,0.33,5.88,3.83
			C122.4,129.13,119.31,129.92,117.32,128.21z M129.09,128.13c-0.76-0.76-0.99-1.36-0.98-2.53c0.01-1.67,0.46-2.49,1.75-3.17
			c2.39-1.27,5.38,0.46,5.38,3.13C135.23,128.67,131.29,130.33,129.09,128.13z M140.84,128.02c-0.81-0.81-1.1-1.45-1.1-2.47
			c0-1.02,0.28-1.66,1.1-2.47c2.94-2.94,7.37,0.45,5.62,4.29C145.55,129.37,142.53,129.72,140.84,128.02L140.84,128.02z"/>
		<text transform="matrix(0.1903 0 0 0.3225 41.5339 171.5475)" class="st0 st1 st2">T0PL4Pv4LD1V14</text>
	</g>
</g>
</svg>
