<?xml version="1.0" encoding="utf-8"?>
<!-- Generator: Adobe Illustrator 25.0.0, SVG Export Plug-In . SVG Version: 6.00 Build 0)  -->
<svg version="1.1" id="Capa_1" xmlns="http://www.w3.org/2000/svg" xmlns:xlink="http://www.w3.org/1999/xlink" x="0px" y="0px"
	 viewBox="0 0 400 400" style="enable-background:new 0 0 400 400;" xml:space="preserve">
<style type="text/css">
	.st0{fill:#020203;}
	.st1{fill:#FFFFFF;}
</style>
<g id="layer1">
	<g id="g444" transform="matrix(3.1004846,0,0,3.1004846,-92.295908,-251.14057)">
		<path id="path9425" class="st0" d="M205.3,124.6c-1-1-0.5-3.1,1.4-6c2.5-3.8,4.1-5.6,5.9-6.4c1.4-0.6,2.8-0.7,16.5-0.7
			c8.8,0,15.6,0.2,16.4,0.4c1.7,0.5,3.6,2.4,6.2,6.2c2.3,3.4,2.9,5.3,1.9,6.3c-0.6,0.6-2.8,0.6-24.2,0.6
			C211.4,125.1,205.6,125,205.3,124.6L205.3,124.6z M213.3,109.3c-2-1.6-2.1-2.1-2.1-12.6c0-10.9,0.1-11.6,2.6-12.9
			c1.2-0.6,2.4-0.7,15.3-0.7c15.5,0,16,0.1,17.4,2.3c0.7,1.2,0.8,1.9,0.8,11.3c0,11-0.1,11.5-2.3,12.8c-0.9,0.5-2.8,0.6-15.9,0.6
			C214.7,110.1,214.3,110,213.3,109.3L213.3,109.3z M237.5,102.7V101l-8.2,0.1l-8.2,0.1l-0.1,1.1c-0.2,2.2-0.4,2.1,8.4,2.1h8.1
			V102.7z M237.5,96.5V95l-8.2,0.1l-8.2,0.1l-0.1,1.4l-0.1,1.4h8.3h8.3L237.5,96.5z M237.5,90.5V89l-8.2,0.1l-8.2,0.1l-0.1,0.9
			c-0.3,1.9-0.3,1.9,8.4,1.9h8.1V90.5z M179.6,99.2c-1.5-1.5-1.5-3.4,0-4.9c0.8-0.8,1.4-1.1,2.5-1.1c3.6,0,5,5,1.8,6.7
			C182.4,100.6,180.8,100.4,179.6,99.2L179.6,99.2z M191.5,99.5c-1.3-1-1.6-2.9-0.8-4.4c2.1-4.1,8.2-1.2,6.5,3.1
			c-0.3,0.7-0.9,1.5-1.3,1.7C194.6,100.5,192.6,100.4,191.5,99.5z M203.9,99.8c-1.2-0.7-1.7-1.5-1.7-3.1c0-1.6,0.5-2.4,1.7-3.1
			c2.4-1.3,5.4,0.5,5.4,3.1C209.3,99.4,206.2,101.2,203.9,99.8L203.9,99.8z M250.4,99.4c-0.9-0.8-1.1-1.2-1.1-2.7
			c0-1.5,0.2-1.9,1.1-2.7c2.8-2.4,7,0.3,5.9,3.8C255.4,100.3,252.3,101.1,250.4,99.4z M262.1,99.3c-0.8-0.8-1-1.4-1-2.5
			c0-1.7,0.5-2.5,1.8-3.2c2.4-1.3,5.4,0.5,5.4,3.1C268.3,99.9,264.3,101.5,262.1,99.3z M273.9,99.2c-0.8-0.8-1.1-1.4-1.1-2.5
			c0-1,0.3-1.7,1.1-2.5c2.9-2.9,7.4,0.4,5.6,4.3C278.6,100.5,275.6,100.9,273.9,99.2L273.9,99.2z"/>
		
			<text transform="matrix(0.1903 0 0 0.3225 174.5751 142.7303)" class="st0" style="font-family:'Arial-BoldMT'; font-size:66.1383px;">T0PL4Pv4LD1V14</text>
	</g>
</g>
<g id="layer1_1_">
	<path id="path9058" class="st0" d="M465.2,406.7l0.4-4l10.2-0.4l10.2-0.4l0.4-6.5c0.4-6.3,0.5-6.5,4.4-6.9l4-0.4v11.2v11.2h-15h-15
		L465.2,406.7z M566.6,404.6v-6.1l-6.5-0.4l-6.5-0.4l-0.4-5.3l-0.4-5.3h6.9h6.9v-6.8v-6.8h5h5v6.8v6.8h6.9h6.9l-0.4,5.3l-0.4,5.3
		l-6.5,0.4l-6.5,0.4v6.1v6.1h-5h-5V404.6z M741.8,406.8c0.4-3.8,0.7-4.1,4.7-4.1c4,0,4.3,0.3,4.3,3.7s-0.4,3.8-4.7,4.1
		C741.4,410.9,741.4,410.8,741.8,406.8z M756.4,406.4V402h11.2h11.2v4.3v4.3h-11.2h-11.2V406.4z M647.3,398.6v-7.2l9.3-9.2l9.3-9.2
		l9.3,9.2l9.3,9.2v7.4v7.4l-9.1-9.1l-9.1-9.1l-8.5,8.8c-4.7,4.8-9,8.8-9.5,8.8S647.3,402.5,647.3,398.6L647.3,398.6z M458.7,385.3
		v-11.8h11.2h11.2v4.3v4.3h-7.4h-7.4v7.4v7.4h-3.7h-3.7V385.3z M742.4,396.3c-0.5-0.5-0.9-2.5-0.9-4.5c0-3.4,0.3-3.6,4.7-3.2
		c4.3,0.4,4.7,0.7,4.7,4.1c0,3.2-0.5,3.8-3.8,4.1C745,397,742.9,396.8,742.4,396.3L742.4,396.3z M771.3,392.7c0-4,0.3-4.3,3.7-4.3
		s3.7,0.3,3.7,4.3s-0.3,4.3-3.7,4.3S771.3,396.7,771.3,392.7z M486.5,380.4c-1.5-3.8,0.1-6.3,4.2-6.7c3.9-0.4,4-0.2,4,4
		c0,4.1-0.3,4.4-3.8,4.4C488.8,382.2,486.9,381.4,486.5,380.4z M741.8,378.1l0.4-4l11.5-0.4l11.5-0.4v4.4v4.4h-11.9h-11.9
		L741.8,378.1z M771.3,377.8c0-4,0.3-4.3,3.7-4.3c3.4,0,3.7,0.3,3.7,4.3s-0.3,4.3-3.7,4.3C771.6,382.2,771.3,381.8,771.3,377.8z
		 M458.7,313.3V278h31.6H522v9.3v9.3h-22.3h-22.3v26v26H468h-9.3L458.7,313.3L458.7,313.3z M565.4,339.4v-9.3l17.7,0
		c29.8,0,39.6-2.5,48.2-12c13.6-15,10.6-46.3-5.4-57c-8.1-5.4-15.2-6.6-39.4-6.6h-21v-9.3v-9.3H590c27.7,0,33.2,1,45.2,8.3
		c17.4,10.5,26.4,32.3,23.3,56.6c-2,15.7-6.4,24.8-16.7,34.2c-11.9,11-23.2,13.9-54.1,13.9h-22.3V339.4z M760.1,306.2v-42.5
		L741.8,282l-18.3,18.3l-32.2-32.2l-32.2-32.2h11.8h11.8l20.2,20.1l20.2,20.1l20.2-20.1l20.2-20.1h7.7h7.7v56.4v56.4h-9.3h-9.3
		V306.2z M458.7,245.1v-9.3h42.8h42.8v9.3v9.3h-42.8h-42.8L458.7,245.1L458.7,245.1z"/>
</g>
<g id="layer1_2_">
	<path id="path6527" class="st0" d="M580.8,446.4c-36.5-3.6-66.7-15.5-93.6-36.7c-12.8-10.1-28.5-27.8-37.6-42.3
		c-52.5-84-21.5-195.4,66.9-240.1c24.5-12.4,48.1-17.9,76.3-17.9c28.2,0,51.3,5.4,76,17.8c49,24.6,82.9,71.8,91.2,126.9
		c1.8,12,1.8,35.5,0,47.2c-8.7,56.6-42.8,103.6-93,128c-16.6,8.1-32.3,13-50.1,15.7C609.6,446.1,586.8,447,580.8,446.4L580.8,446.4z
		 M606.9,434.4c38.8-3.9,72.5-20.1,99.1-47.7c22.9-23.8,37.3-53,42.5-86.2c1.8-11.4,1.8-33.8,0-45.1c-4.2-26.9-14.4-51.2-30.5-72.7
		c-5.8-7.6-22.7-24.5-30.2-30.1c-48-35.7-110.8-41.8-163.9-15.8c-37.8,18.5-67,52-80.1,92c-12.9,39.4-10.1,81.3,8,118.2
		c12.6,25.7,33.1,48.5,58.2,64.5c2.4,1.5,8.2,4.7,12.8,7C548.9,431.5,578.9,437.2,606.9,434.4L606.9,434.4z M592.6,427.7
		c-3.2-1.8-4.6-12.2-2.3-16.7c2.5-4.9,10.1-4.6,12.5,0.4c0.9,2,1.2,4,1,8.1c-0.2,4.9-0.5,5.7-2.3,7.2
		C599.2,428.7,595,429.1,592.6,427.7L592.6,427.7z M598.3,424.7c1.6-1.2,2.3-6.4,1.4-10c-1.2-4.8-5-4.9-6.3-0.2
		c-0.8,2.9,0,8.6,1.5,10C596.2,425.9,596.6,425.9,598.3,424.7L598.3,424.7z M576.2,426.7c-2.3-1.6-3.1-5.4-2.4-10.6
		c1.1-7.5,4-10.2,9.6-8.7c2.3,0.6,3.1,1.3,4,3.3c1.5,3.5,1.3,4-1.1,4c-1.8,0-2.2-0.3-2.4-2c-0.2-1.5-0.7-2.1-2.1-2.2
		c-2.8-0.3-3.7,1.3-4.1,7.3c-0.3,4.3-0.2,5.5,0.8,6.3c1.6,1.3,3.7,0.8,4.5-1.2c0.5-1.2,1.2-1.6,2.6-1.5c2.2,0.3,2.1,2.3-0.2,4.8
		C583.5,428.1,578.7,428.4,576.2,426.7L576.2,426.7z M607.2,426.2c-0.6-2.6-2.6-16.3-2.6-17.6c0-0.7,0.9-1.2,2.5-1.4l2.5-0.3
		l2.7,6.5c1.5,3.5,3,6.6,3.2,6.8c0.3,0.2,0.8-2.9,1.1-6.8c0.3-4,0.9-7.4,1.4-7.7c1.1-0.7,4.9-0.7,4.9,0c0,0.3,0.7,4.7,1.5,9.7
		c0.8,5,1.5,9.4,1.5,9.7c0,0.8-3.5,0.7-4-0.1c-0.2-0.4-0.6-3-0.9-5.9s-0.7-5.2-1-5.2c-0.3,0-0.8,2.6-1.1,5.9c-0.4,4.7-0.8,6-1.9,6.6
		c-1.3,0.7-1.7,0.1-4.4-5.5c-1.7-3.5-3.1-6.2-3.2-6.1c-0.1,0.1,0.2,2.4,0.8,5c1.5,7,1.4,8-0.8,8
		C608.1,427.8,607.4,427.4,607.2,426.2L607.2,426.2z M629.2,423.6c-0.2-0.3-1.4-4.4-2.7-9c-1.3-4.6-2.5-8.8-2.7-9.3
		c-0.3-0.9,6-3.2,9-3.2c2.5,0,5.3,2.7,5.9,5.6c0.7,3.5-0.8,5.9-4.5,7.3l-3.1,1.2l1,3.4c0.5,1.8,0.9,3.4,0.8,3.5
		C632.2,423.7,629.5,424.1,629.2,423.6L629.2,423.6z M633.4,412c1.5-0.6,1.5-4.2,0.1-5.4c-0.6-0.5-1.8-0.8-2.7-0.6
		c-1.4,0.2-1.7,0.6-1.5,2.4C629.5,412.4,630.4,413.2,633.4,412L633.4,412z M553.7,422.4c-0.2-0.6-0.6-2.6-0.9-4.6
		c-0.7-4.6-2.2-4.7-3.5-0.2c-0.9,3-1.2,3.3-2.8,3c-1-0.2-1.8-0.7-1.8-1.1s1.3-5,2.9-10.1l2.9-9.4l4.4,1.5c4.6,1.5,6.6,3.4,6.6,6.3
		c0,2.4-1.9,5.8-3.5,6.3c-1.2,0.4-1.3,1-1,4.8c0.3,4.1,0.2,4.4-1.3,4.4C554.8,423.4,553.9,423,553.7,422.4L553.7,422.4z
		 M556.1,410.8c2-2.6,1.3-5.3-1.6-5.8c-1.1-0.2-1.6,0.4-2.1,2.6c-0.5,2.2-0.5,3,0.3,3.5C554.2,412,555.3,411.9,556.1,410.8
		L556.1,410.8z M641.6,420c-0.3-0.5-1.6-16.2-1.6-19.5c0-0.8,0.7-1.6,1.6-2c1.4-0.5,2.4,0.3,8.2,7.4c3.6,4.4,6.6,8.2,6.6,8.4
		c0,0.2-0.7,0.7-1.7,1.1c-1.3,0.5-2,0.3-3.1-1c-1.4-1.6-1.6-1.7-4.2-0.6c-2.4,1-2.7,1.3-2.3,3.2c0.3,1.6,0.1,2.2-1.1,2.9
		C642.4,420.6,642.1,420.7,641.6,420L641.6,420z M647,410.3c0.9-0.5,0.8-1.1-0.7-3.3c-1-1.4-2-2.6-2.2-2.6c-0.2,0-0.2,1.5-0.1,3.3
		C644.2,411,644.9,411.6,647,410.3L647,410.3z M536.8,416.9c-2.5-1.1-4.8-2.2-5-2.5c-0.3-0.3,1.3-4.6,3.4-9.6
		c4.4-10.2,3.5-9.7,10.6-6.5c4.1,1.8,4.4,2.2,3.3,3.9c-0.5,0.8-1.2,0.7-4.1-0.5l-3.4-1.5l-1,2.3c-1,2.3-1,2.3,1.9,3.6
		c3,1.3,3.2,1.8,2.2,3.4c-0.5,0.8-1,0.8-2.9-0.2c-3-1.5-3.4-1.5-4.4,0.7c-1.3,2.8-1.1,3.1,2.5,4.7c3,1.3,3.2,1.6,2.5,3
		c-0.4,0.8-0.9,1.5-1,1.4C541.4,418.9,539.3,418,536.8,416.9L536.8,416.9z M523.6,410.6c-2.5-1.4-4.6-2.8-4.6-3
		c0-0.2,2.2-4.3,4.8-9.1c4.7-8.4,4.8-8.6,6.6-7.8l1.8,0.8l-4.1,7.6c-2.2,4.2-4,7.7-3.8,7.8c0.1,0.1,1.5,0.9,3,1.9
		c1.8,1.1,2.6,2,2.4,2.8c-0.2,0.6-0.4,1.2-0.4,1.4C529.2,413.6,527.9,413,523.6,410.6L523.6,410.6z M653.9,404.4
		c-2.7-4.9-4.8-8.9-4.6-9c1.5-1.3,8-4,9.5-4c3,0,6,3.9,5.5,7.4c-0.3,2.5-0.1,2.9,3.3,5.5l3.6,2.8l-2,1c-2.1,1.1-2.1,1.1-7.1-2.8
		c-1.7-1.3-2.1-1.4-2.4-0.5c-0.2,0.6,0.3,2.4,1.1,4.1c1.5,2.9,1.5,3,0.1,3.7c-0.8,0.4-1.6,0.8-1.8,0.8
		C659,413.2,656.6,409.2,653.9,404.4L653.9,404.4z M659.5,400.7c1.8-1,1.8-2.3,0-4.4c-1.2-1.5-1.6-1.6-3.3-0.8
		c-1.9,0.9-1.9,0.9-0.7,3.5C656.9,401.7,657.3,401.9,659.5,400.7L659.5,400.7z M512,403.5c-2.4-1.7-4.5-3.1-4.6-3.3
		c-0.7-0.5,11.2-17,11.9-16.5c2.7,1.5,2.6,1.8-2.3,8.8l-4.9,7l1.8,1.2c4,2.6,4.4,3.3,3.4,4.6C516.4,406.5,516,406.4,512,403.5
		L512,403.5z M671.1,396.7c-2.6-3.8-5-6.9-5.4-6.9c-0.4,0-1.4,0.5-2.2,1.1c-1,0.8-1.7,0.9-2.4,0.2c-0.5-0.5-1-1.1-1-1.4
		s2.5-2.3,5.5-4.4c5-3.5,5.7-3.7,6.7-2.7c1,1,0.9,1.3-0.9,2.9l-2,1.7l4.8,7l4.8,7l-1.7,1.1C675.7,403.6,675.7,403.5,671.1,396.7
		L671.1,396.7z M503.3,397.5c-1.2-0.9-1.3-1.3-0.5-3c0.8-1.7,0.7-2.2-0.7-3.7c-1.8-1.9-3.5-2.2-4.9-0.9c-0.7,0.7-1.3,0.6-2.7-0.1
		c-1-0.5-1.8-1.2-1.8-1.4s4-2.9,8.9-6c7.5-4.7,9.1-5.5,10.2-4.8c0.7,0.5,1.3,1.2,1.3,1.6c0,1-7.6,19.4-8,19.4
		C504.9,398.5,504.1,398,503.3,397.5L503.3,397.5z M506.8,385.7c1.7-3.5,1.6-3.5-1.7-1.4c-2.3,1.5-2.8,2.1-2.1,2.9
		C504.4,389,505.5,388.5,506.8,385.7L506.8,385.7z M583,397c-46.8-3.4-87.8-35.2-103-80c-4.6-13.6-6-22.3-6-38.4
		c0-16,0.9-21.8,5.2-35.8c2.7-8.7,9.2-22.7,13.5-29c3-4.5,12-15.9,13.4-17.1c0.8-0.7,2.4-0.6,7.3,0.4c3.5,0.7,6.3,1.5,6.3,1.7
		s-1.8,2.3-4.1,4.5c-14.3,14-25.1,34.8-29.3,56.7c-1.8,9.3-1.8,28.3,0,37.7c8.5,43.9,40.8,77.1,84.2,86.4
		c10.5,2.3,28.5,2.6,39.5,0.7c40.2-6.9,72.2-34.3,84.9-72.5c2.4-7.2,15.8-30.5,16.3-28.3c0.5,2.3-1.3,15.5-3.1,22.9
		c-8.5,35-32.5,64.1-65.6,79.5C624.5,394.8,603.6,398.5,583,397L583,397z M678.9,388.5c-6.3-7.8-6.3-7.9-4.9-9.3
		c0.8-0.8,1.5-1.3,1.7-1.1c0.1,0.2,3.1,3.8,6.6,8.1c6,7.4,6.3,7.8,5,9c-0.7,0.7-1.5,1.2-1.7,1.2
		C685.4,396.4,682.4,392.8,678.9,388.5L678.9,388.5z M684.5,384.5c-3.7-3.7-6.8-7.1-6.8-7.6c0-1.2,4.9-5.3,7-5.8
		c2.8-0.7,5.3,0.2,8.8,3.4c3.4,3.2,5.2,7,4.4,9.5c-0.5,1.6-5.3,7.2-6.1,7.2C691.4,391.2,688.2,388.2,684.5,384.5L684.5,384.5z
		 M693.8,384.7c1.2-2.2,1-2.8-2.6-6.7c-3.5-3.8-5.9-4.6-7.6-2.5c-0.8,1-0.3,1.8,3.7,5.9c2.6,2.6,4.9,4.7,5.2,4.7
		C692.8,386.1,693.4,385.5,693.8,384.7L693.8,384.7z M487.9,383.1c-1.3-1.5-1.3-1.6,4.8-7.2l6.1-5.7l-1.6-2.2
		c-1.4-2-1.5-2.3-0.5-3.2c1-0.8,1.7-0.3,5.2,3c5,4.9,5.8,6.2,4.6,7.7c-0.8,0.9-1.1,0.8-2.8-0.8l-1.9-1.8l-6.3,5.8
		C489.2,384.6,489.2,384.6,487.9,383.1L487.9,383.1z M575.5,377.7c-41.3-7.2-73.6-39-81.9-80.6c-1.9-9.7-1.7-28.9,0.4-38.8
		c4.1-19.1,13.6-36.7,27.4-50.6c3.3-3.4,6.6-6.4,7.4-6.8c0.9-0.5,3.1-0.3,7,0.5c3.1,0.6,6.4,1.3,7.3,1.5c0.9,0.2,1.7,0.6,1.7,0.9
		s-6.9,14.7-15.2,32c-21,43.2-27.2,56-27.2,56.4c0,0.2,1.8,3,3.9,6.3s8.4,13.1,13.9,21.8l10,15.8l4.9,0.1
		c10.1,0.2,131.5,6.6,133.1,7.1c2.2,0.7-9.8,12.3-19.5,18.8c-9.5,6.4-22.9,12-35.3,14.8C605.7,378.7,583.6,379.1,575.5,377.7
		L575.5,377.7z M698.4,376.2c-1.3-0.6-3.7-2.6-5.3-4.4c-3.7-4-4-7.2-0.9-10.6c1.6-1.8,2.6-2.3,4.7-2.3c4.8,0,12,5.9,12.7,10.5
		c0.3,2.2,0,3-1.9,5.2C705,377.7,702.4,378.1,698.4,376.2L698.4,376.2z M705.4,372.8c1.5-1.5,1-3.1-1.9-5.9
		c-3.7-3.6-6.6-5.1-8.3-4.1c-2.4,1.3-1.6,4,2.4,7.5C701.3,373.7,703.7,374.5,705.4,372.8L705.4,372.8z M575.8,332.4
		c-22-1.3-40.2-2.5-40.4-2.7c-0.4-0.4,7.7-28.5,8.4-29.2c0.5-0.5,88.8-17.4,89.2-17c0.2,0.2-9.3,40.1-11.6,48.8
		c-0.7,2.5-1,2.7-3.1,2.6C617,334.8,597.9,333.7,575.8,332.4L575.8,332.4z M654.7,305.7c-16.2-23.3-19.1-27.1-20.7-27.1
		c-1.5,0-36,6.4-79.7,14.8c-4.5,0.9-8.4,1.4-8.7,1.1c-0.2-0.2,0.1-2.3,0.8-4.5l1.3-4l14-3.3c18.3-4.4,154.5-36.6,160.4-37.9
		c2.5-0.6,4.6-0.8,4.6-0.4c0,0.4-4.8,8.8-10.7,18.7s-17.5,29.6-25.8,43.6c-8.3,14.1-15.5,25.7-15.9,25.8S665.1,320.6,654.7,305.7
		L654.7,305.7z M519,308.1c-5.4-8.3-10-15.5-10.1-16c-0.2-0.8,6.6-14.9,33.7-70.6l8.4-17.2l7.1,1.1c3.9,0.6,7.1,1.4,7.1,1.7
		s-7.3,24.2-16.1,53.1c-8.9,28.9-16.8,54.9-17.7,57.8c-0.8,2.9-1.7,5.3-2,5.3C529.1,323.2,524.4,316.4,519,308.1L519,308.1z
		 M549.7,279.5c0-0.7,0.3-1.7,0.6-2.2c0.5-0.8,80.5-32.8,86.9-34.8c1.6-0.5,1.6-0.5-0.6,7.8c-1.2,4.6-2.3,8.3-2.3,8.4
		s-9,2.5-19.9,5.4s-26,6.9-33.6,8.9C545.5,282.2,549.7,281.3,549.7,279.5L549.7,279.5z M552.7,268.6c0-2.9,26.5-87.4,28-89.3
		c1-1.3,20.5-1.2,28.2,0.2c22.1,3.9,40.9,13.7,56,29.3c8.2,8.4,15.6,19.5,19.8,29.4c4.1,9.7,4.6,8.6-4.9,10.8
		c-4.5,1.1-15.1,3.6-23.5,5.6c-8.4,2-15.4,3.5-15.5,3.4s1.2-5.7,3-12.3c1.8-6.6,3.2-12.1,3.2-12.2c0-0.8-7.3,1.9-45.4,16.9
		c-23.9,9.4-44.7,17.6-46.2,18.2C552.9,269.6,552.7,269.6,552.7,268.6L552.7,268.6z M694.6,243.3c-8-19.6-13.6-28.3-25.4-40.3
		c-7.6-7.6-12.8-11.7-21.8-17c-16.2-9.6-31.3-13.9-50.4-14.7c-16-0.6-28.9,1.4-42.8,6.7c-3.4,1.3-12.1,3.6-19.4,5.1s-14,2.9-15,3.1
		c-1.7,0.4-1.7,0.3-0.8-0.8c1.7-2.1,13.8-9.9,20.5-13.3c26.7-13.4,60.4-16,88.9-6.9c30.6,9.8,56.5,31.8,70.7,60.3
		c3.3,6.6,6.6,15.4,6.2,16.6c-0.3,0.8-6.6,2.7-9.2,2.8C695.7,244.9,694.9,244.2,694.6,243.3L694.6,243.3z M539,197.1
		c-13.8-2.5-25.2-4.7-25.4-4.9c-0.2-0.2,3-1,7.1-1.7c4.1-0.7,17.2-3.1,29.2-5.2c11.9-2.2,22.2-3.9,22.8-3.9c0.9,0,0.5,2-2.3,10.2
		c-2.9,8.8-3.6,10.2-4.9,10.2C564.7,201.7,552.7,199.6,539,197.1L539,197.1z M685.4,191.6c-4.5-1.8-5.7-7.3-2.6-11.6
		c5.5-7.8,14.1-8.9,16.9-2.3c1.3,3.1,0.5,5.4-3.1,9.3C692,191.8,689,193.1,685.4,191.6L685.4,191.6z M692.4,185.3
		c4-3.7,5-5.7,3.6-7.3c-1.7-2.1-4.4-1.2-8.1,2.5c-3.8,3.8-4.2,5.1-2.4,7C687.2,189.3,688.5,188.9,692.4,185.3z M493.8,183.6
		c-7.2-7.2-7.2-7.3-5.9-8.8l1.4-1.5l6.1,6l6.1,6l2.6-2.5c2.4-2.4,2.6-2.4,3.8-1.2c1.2,1.2,1,1.5-2.8,5.3l-4,4L493.8,183.6z
		 M674.5,181.4c-1.2-1.3-1.2-1.8-0.3-5.1c1.3-5.3,0.1-6.2-3-2.2c-2.4,3-2.4,3-3.9,1.6c-1.5-1.5-1.5-1.5,4.7-9.2
		c3.4-4.2,6.5-7.7,6.9-7.7c1.6,0,7.7,6.4,7.7,8.1c0,2.8-2.4,5.9-5.1,6.9c-2.2,0.7-2.7,1.4-3.6,4.6
		C676.3,182.9,676.1,183.1,674.5,181.4L674.5,181.4z M681.8,168.5c1.2-1.8,1.2-1.9-0.3-3.4c-1.3-1.3-1.7-1.4-2.7-0.6
		c-2,1.7-2.8,3.6-1.8,4.8C678.4,170.9,680.5,170.6,681.8,168.5L681.8,168.5z M506.3,171.5c-2.9-8.1-3.4-10.1-2.6-11
		c0.5-0.6,1.2-1.1,1.6-1.1c0.6,0,12,7.6,16.5,11l1.6,1.2l-1.9,1.2c-1.7,1.1-2,1.1-3.2,0.1c-1.6-1.5-2-1.5-4.5,0.3
		c-1.8,1.3-2,1.7-1.4,3.4c0.6,1.5,0.5,2.2-0.5,3.3c-0.7,0.8-1.4,1.4-1.7,1.4C510.1,181.3,508.3,176.9,506.3,171.5L506.3,171.5z
		 M510.9,167.3c-1.3-1.1-2.5-1.9-2.7-1.7s0.2,1.7,1,3.3c1.3,2.9,1.4,2.9,2.7,1.7C513.3,169.3,513.2,169.2,510.9,167.3L510.9,167.3z
		 M656.1,167.9c-2.9-2.9-3.2-5.2-0.9-9.8c3.9-8.1,9.2-10.4,13.9-6.2c2.3,2,3,5.3,1.7,7.4c-0.9,1.4-3.2-0.6-3.4-3.1
		c-0.2-1.9-0.6-2.4-2-2.6c-2.3-0.3-4.6,1.9-6.7,6.5c-2,4.2-1.5,6,1.7,6.4c2.1,0.3,3.4-2.2,2-3.8c-0.4-0.5-0.6-1.5-0.3-2.1
		c0.4-1,0.8-1,3.3,0.4c1.6,0.9,2.8,1.9,2.8,2.2s-0.8,2.1-1.9,3.8c-1.7,3-2.1,3.2-4.8,3.2C659.1,170.4,658.1,169.9,656.1,167.9
		L656.1,167.9z M643.5,161.7c-2.5-1.1-4.7-2.2-4.9-2.4c-0.2-0.2,1.4-4.5,3.6-9.4c2.8-6.3,4.3-9,5.1-8.9c0.6,0.1,3.1,1.1,5.5,2.2
		c4.2,1.9,4.4,2.1,3.4,3.4c-1,1.4-1.1,1.4-4.1,0c-3.2-1.4-3.9-1.2-4.8,1.6c-0.4,1.4,0,1.8,2.5,2.9c2.7,1.2,2.9,1.5,2,2.6
		c-0.9,1.2-1.1,1.2-3.8,0.1c-1.5-0.6-2.9-1.1-3-0.9c-0.4,0.6-1.9,4.4-1.9,4.7c0,0.2,1.5,1,3.4,1.8c2.5,1.1,3.2,1.8,2.9,2.6
		c-0.2,0.6-0.4,1.3-0.4,1.5C649.2,164.1,648,163.7,643.5,161.7L643.5,161.7L643.5,161.7z M535.7,159.6c-2.2-2.3-4.9-8.8-4.9-11.6
		c0-2.6,1.2-4.5,3.6-5.8c2.9-1.5,5.3-1.4,7.6,0.4c2.3,1.8,2.4,2.6,0.3,3.7c-1.3,0.7-1.8,0.6-2.5-0.3c-1.6-2.2-5.5-1-5.5,1.7
		c0,1.9,4.2,10.3,5.4,10.7c0.6,0.2,1.8,0,2.7-0.4c1.2-0.6,1.5-1.3,1.2-2.7c-0.3-1.4,0-2,1.2-2.4c2.2-0.8,2.7-0.3,2.7,2.5
		C547.5,160.9,539.6,163.7,535.7,159.6L535.7,159.6z M632.6,157.4c-1.7-0.3-2-1.3-2.9-8.8c-0.3-2.5-0.8-4.7-1.1-4.9
		s-1.3,2.3-2.2,5.5c-1.5,5.3-1.8,5.8-3.2,5.4c-0.8-0.3-1.7-0.6-1.9-0.8c-0.2-0.2,0.9-4.7,2.5-10.1l2.8-9.8l2,0.7
		c1.8,0.6,2,1.1,3,7.8l1.1,7.1l2-6.3c1.7-5.5,2.2-6.3,3.5-5.9c0.8,0.2,1.6,0.6,1.8,0.9c0.4,0.6-4.7,18.4-5.4,19.1
		C634.4,157.5,633.5,157.5,632.6,157.4L632.6,157.4z M552.2,156.2c-0.2-0.6-1.7-5.1-3.2-9.9l-2.8-8.7l1.8-0.4c1-0.2,1.9-0.4,2-0.2
		c0.4,0.4,6.2,19.1,6,19.3c-0.1,0.1-0.9,0.4-1.8,0.7C553.1,157.1,552.5,157,552.2,156.2L552.2,156.2z M562.2,153.8
		c-3.6-1.4-5-5.4-1.9-5.4c1,0,2,0.5,2.2,1.1c0.3,0.8,1.1,1.1,2.5,0.9c1.6-0.2,2-0.6,2-2c0-1.9-0.5-2.3-5.6-4.1
		c-2.2-0.8-3.7-1.8-4.2-3c-1.3-2.8-1-3.9,1.3-6.2c2.8-2.8,6.6-2.9,9.2-0.3c2.3,2.3,2.3,3.1-0.2,3.5c-1.4,0.3-2.3,0-3-1
		c-1.3-1.9-4-0.6-3.7,1.7c0.2,1.2,1.2,1.8,4,2.7c4.5,1.3,5.8,2.5,6.5,5.6c0.3,1.7,0.1,2.7-1.3,4.2
		C568.4,153.5,564.3,154.6,562.2,153.8L562.2,153.8z M575,146.3c-0.3-3-0.7-7.8-0.9-10.5l-0.4-4.9h2.1c1.9,0,2.4,0.6,5.3,5.9
		c1.7,3.2,3.3,5.9,3.6,5.9c0.2,0,0.2-2.8-0.1-6.2l-0.5-6.2h2.1h2.1l0.5,8.6c0.3,4.7,0.7,9.4,0.9,10.3c0.4,1.6,0.2,1.7-2,1.5
		c-2.2-0.2-2.7-0.8-5.7-6.3c-1.8-3.3-3.4-5.9-3.5-5.9c-0.1,0.1,0,3,0.3,6.5l0.5,6.3l-2,0.3C575.5,151.8,575.5,151.8,575,146.3
		L575,146.3z M596.3,150.8l-2.7-0.3v-5.3c0-2.9,0.2-7.5,0.5-10.2l0.5-4.9h3.5c5.5,0,8,0.7,8,2.3c0,1.2-0.6,1.4-4,1.4h-4v2.6
		c0,2.6,0,2.6,3.3,2.6c2.8,0,3.3,0.2,3.3,1.5s-0.5,1.5-3.2,1.5c-2.7,0-3.3,0.3-3.7,1.6c-1,3.9-0.7,4.2,3.6,4.2c3.8,0,4,0.1,4,1.8
		c0,1.7-0.2,1.8-3.1,1.7C600.5,151.2,597.9,151,596.3,150.8L596.3,150.8z"/>
</g>
<g>
	<g>
		<path class="st1" d="M198.5,327.8c-1.9,0.9-3.4,1.3-5.2,1.3c-4.1,0-6.1-2.9-6.1-7.3c0-4.2,2.1-7.1,6.4-7.1c2.1,0,3.5,0.5,4.6,1.2
			l-1.1,2c-0.8-0.5-1.9-0.9-3.4-0.9c-2.5,0-3.6,1.9-3.6,4.6c0,3.3,1.2,5,3.5,5c0.9,0,1.8-0.2,2.4-0.5v-2.5h-1.9l-0.1-2h4.5
			L198.5,327.8L198.5,327.8z"/>
		<path class="st1" d="M209.8,323.8c0,3.4-1.7,5.2-4.7,5.2c-3,0-4.7-1.8-4.7-5.2c0-3,1.6-5.2,4.7-5.2
			C208.1,318.6,209.8,320.9,209.8,323.8 M207,323.8c0-2.4-0.7-3.3-2-3.3s-1.9,0.9-1.9,3.3c0,2.3,0.6,3.3,1.9,3.3
			C206.3,327.1,207,326.2,207,323.8"/>
		<path class="st1" d="M214.2,319.9c0.4-0.6,1.5-1.2,2.7-1.2c2.4,0,4.1,1.7,4.1,5.2c0,3.5-2.1,5.3-4.4,5.3c-1.4,0-2.3-0.6-2.9-1.4
			l-0.5,1.2h-1.4v-14.2h2.7v3.5L214.2,319.9z M214.4,326.1c0.4,0.5,1.1,1,1.8,1c1.2,0,2-0.9,2-3.3c0-2.4-0.8-3.2-2-3.2
			c-0.7,0-1.4,0.4-1.9,0.8V326.1z"/>
		<path class="st1" d="M223.8,328.9v-8.1l-1.1-0.2v-1.7h3.8v10.1H223.8z M223.8,314.7h2.7v2.4h-2.7V314.7z"/>
		<path class="st1" d="M231.2,324.6c0,1.6,0.9,2.5,2.6,2.5c1,0,2.1-0.4,2.9-0.9l0.5,1.9c-0.8,0.5-2.2,1-3.8,1c-3.1,0-5-1.9-5-5.3
			c0-3.1,1.5-5.2,4.7-5.2c3,0,4.2,2.3,4.2,4.8v1.2L231.2,324.6L231.2,324.6z M233.1,320.6c-1.3,0-1.9,1.2-1.9,2.4h3.7
			C234.9,321.7,234.5,320.6,233.1,320.6"/>
		<path class="st1" d="M245.2,321.1c-0.3-0.1-0.8-0.2-1.2-0.2c-0.7,0-1.4,0.3-1.8,0.7v7.3h-2.7v-10.1h1.9c0.1,0.5,0.2,0.9,0.3,1.4
			h0.1c0.3-0.7,1.2-1.5,2.4-1.5c0.5,0,0.9,0.1,1.1,0.1C245.3,319.5,245.3,320.3,245.2,321.1"/>
		<path class="st1" d="M253.1,328.9v-6c0-1.5-0.6-2.2-1.8-2.2c-0.7,0-1.3,0.3-1.8,0.6v7.6h-2.7v-10.1h1.9l0.4,1.1
			c0.6-0.7,1.7-1.4,3.2-1.4c2.5,0,3.6,1.5,3.6,4v6.2L253.1,328.9L253.1,328.9z"/>
		<path class="st1" d="M267.1,323.8c0,3.4-1.7,5.2-4.7,5.2c-3,0-4.7-1.8-4.7-5.2c0-3,1.6-5.2,4.7-5.2
			C265.4,318.6,267.1,320.9,267.1,323.8 M264.3,323.8c0-2.4-0.7-3.3-2-3.3c-1.2,0-1.9,0.9-1.9,3.3c0,2.3,0.6,3.3,1.9,3.3
			C263.7,327.1,264.3,326.2,264.3,323.8"/>
		<path class="st1" d="M280.1,319.6c-0.2-0.6-0.2-1.1-0.2-1.9v-3h2.7v14.2h-2.2l-0.3-1.1c-0.4,0.6-1.4,1.3-2.7,1.3
			c-2.3,0-4.1-1.6-4.1-5.2c0-3.3,1.9-5.2,4.3-5.2C278.7,318.6,279.6,319,280.1,319.6 M279.9,321.1c-0.4-0.2-1-0.5-1.8-0.5
			c-1.3,0-2.1,0.9-2.1,3.2c0,2.4,0.8,3.3,2,3.3c0.7,0,1.4-0.3,1.9-0.9L279.9,321.1L279.9,321.1z"/>
		<path class="st1" d="M287.3,324.6c0,1.6,0.9,2.5,2.6,2.5c1,0,2-0.4,2.9-0.9l0.5,1.9c-0.8,0.5-2.2,1-3.8,1c-3.1,0-5-1.9-5-5.3
			c0-3.1,1.5-5.2,4.7-5.2c3,0,4.2,2.3,4.2,4.8v1.2L287.3,324.6L287.3,324.6z M289.1,320.6c-1.3,0-1.9,1.2-1.9,2.4h3.7
			C291,321.7,290.5,320.6,289.1,320.6"/>
		<path class="st1" d="M305.8,329.1c-3.9,0-6-2.6-6-7.2c0-4.2,2-7.1,6-7.1c1.9,0,3.6,0.4,4.7,1.2l-1,2.1c-0.7-0.5-2-0.9-3.4-0.9
			c-2.3,0-3.5,1.7-3.5,4.7c0,3.2,1.1,4.9,3.4,4.9c1.4,0,2.7-0.6,3.7-1.3l0.9,2.2C309.1,328.6,307.6,329.1,305.8,329.1"/>
		<path class="st1" d="M312.4,328.9v-14.2h2.7v3.7c0,0.7-0.2,1.4-0.3,1.6c0.6-0.7,1.4-1.4,2.9-1.4c2.9,0,3.7,1.5,3.7,4v6.2h-2.7v-6
			c0-0.3,0-0.5-0.1-0.6c-0.1-1.1-0.7-1.6-1.7-1.6c-0.7,0-1.3,0.3-1.8,0.6v7.6L312.4,328.9L312.4,328.9z"/>
		<path class="st1" d="M324.4,328.9v-8.1l-1.1-0.2v-1.7h3.8v10.1H324.4z M324.3,314.7h2.7v2.4h-2.7V314.7z"/>
		<path class="st1" d="M329.5,326.2v-11.5h2.6v11.4c0,0.8,0.5,1,1.6,1v1.9c0,0-0.8,0.2-1.5,0.2C330.2,329.1,329.5,328,329.5,326.2"
			/>
		<path class="st1" d="M337.8,324.6c0,1.6,0.9,2.5,2.6,2.5c1,0,2-0.4,2.9-0.9l0.5,1.9c-0.8,0.5-2.2,1-3.8,1c-3.1,0-5-1.9-5-5.3
			c0-3.1,1.5-5.2,4.7-5.2c3,0,4.2,2.3,4.2,4.8v1.2L337.8,324.6L337.8,324.6z M339.7,320.6c-1.3,0-1.9,1.2-1.9,2.4h3.7
			C341.5,321.7,341.1,320.6,339.7,320.6"/>
		<path class="st1" d="M358.1,54.8H46.2h-5v5l0,283.5v5h5h311.8h5v-5l0-283.5v-5H358.1z M46.2,59.8h125.2l0,283.5H46.2V59.8z
			 M358.1,343.3H176.5V59.8h181.6V343.3z"/>
	</g>
	<g>
		<g>
			<g>
				<path class="st1" d="M112.8,98.7c0.3-0.2,0.9-0.7,0.4-1.7c-0.2-0.4-0.8-0.5-0.6-0.6c3.2-0.8,4.9-5.4,4.8-7.2
					c1.7,1.5,5.3,1.9,8-0.3c1.7-1.7,2.6-6.1-0.4-8.2c-1.5-1.1-4.2-1.2-5.9,0.1c-0.5-0.9-1.4-1.5-2.4-1.5c0-0.3,0-2.4-1.2-3.8
					c-1.6-1.8-6.1-1.9-7.7,0c-3.2-0.8-7.4,0.7-7.2,5.8c-2.3-0.9-3.6-0.9-4.8-0.8c-1.1,0.1-2.6,1.1-3.2,1.8c-0.2,0.3-0.5,0.7-0.7,1.1
					C91.6,84,91.3,85,91.4,86c0.2,1.8,1.1,3.3,2.4,4c1.8,1,4.1,0.8,4.9,0.7c0.6-0.1,1.3-0.4,2-1.1c0.2-0.2,0.4-0.6,0.7-0.6
					c0,0.5-0.2,2.9,2.5,4c0,0.1,0.1,0.2,0.1,0.4c0.9,3.3,3.1,2.9,3.1,3.2c-1,0.6-0.6,1.5-0.3,1.9c1.5-0.5,2.7-0.5,3-0.5
					C110.1,98.1,111.3,98.2,112.8,98.7z"/>
				<g>
					<polygon class="st1" points="109.4,102 107.4,108.7 100.2,108.7 100.2,108.7 106.1,112.9 103.8,119.5 109.4,115.3 115,119.5 
						112.8,112.9 118.6,108.7 118.7,108.7 111.4,108.7 					"/>
					<path class="st1" d="M120.4,108.8c0-3.3,2.2-5.9,2.3-6c0.2-0.3,0.3-0.5,0.3-0.7c-0.1-0.3-0.3-0.5-0.3-0.5
						c-0.7-0.4-2.1-1.3-2.1-1.3l-0.1-0.1h-0.1c-0.2,0-0.3,0.1-0.5,0.2c-0.4,0.3-1.2,0.9-2.4,0.9c-0.2,0-0.5,0-0.7-0.1
						c-0.7-0.1-1.8-0.7-1.8-0.7c-0.4-0.2-0.8-0.4-1-0.5l-0.1,0c-1.9-0.8-3.5-0.8-3.9-0.8s-2,0.1-3.9,0.8l-0.1,0
						c-0.1,0.1-0.3,0.1-0.5,0.2l-1.1,0.5c-0.4,0.2-0.9,0.4-1.2,0.4c-0.2,0-0.5,0.1-0.7,0.1c-1.3,0-2.1-0.6-2.4-0.9
						c-0.2-0.2-0.3-0.2-0.5-0.2l-0.1,0l-0.1,0.1c0,0-1.5,0.9-2.1,1.3c-0.1,0-0.3,0.2-0.4,0.6c0,0.2,0,0.4,0.3,0.7
						c0.1,0.1,2.3,2.7,2.3,6c0.1,0.4,0.2,2.4-1.5,5.4c-0.1,0.2-2,3.6,0.1,6.6c0,0,1.6,2.8,6.1,2.8c0.4,0,3.7,0.1,4.9,2.2
						c0.1,0.1,0.6,0.9,0.8,1.4l0.3,0.5l0.2-0.5c0.2-0.4,0.8-1.3,0.8-1.4c1.1-2.1,4.5-2.2,4.8-2.2c4.5,0,6.1-2.8,6.1-2.8
						c2.1-3.1,0.1-6.7,0.1-6.7C120.2,111.2,120.3,109.2,120.4,108.8z M118.6,108.7l-5.8,4.2l2.2,6.6l-5.6-4.2l-5.6,4.2l2.2-6.6
						l-5.8-4.2l0,0h7.2l2-6.7l2,6.7L118.6,108.7L118.6,108.7z"/>
					<g>
						<path class="st1" d="M89.9,141c3.2,3.3,7.8,1.5,7.8,1.5c0.7-0.1,1.1-2.4,1.3-4.1c-2.8-0.4-5.4-0.9-8-1.5
							C90.1,138.9,89.9,141,89.9,141z"/>
						<path class="st1" d="M89,127.1c-0.1-0.1-0.2-0.2-0.3-0.2c-0.4-0.1-0.7,0.3-1.2,0.2c-0.4-0.1-3.7-2.6-3.9-2.8
							c-0.7-0.5-1.8-1.1-2.4-1.8c-0.3-0.5-0.1-1.1-0.1-1.7c0-0.4-0.6-1.5-1.5-1.8c-0.2,1-1.6,4.7-6,5.6c-0.6,2.4,0.3,7,0.9,7.6
							c0.4,0.1,0.8,0.3,1.1,0.6c0-0.9,0.3-1.5,0.3-1.5c1.2-2.5,4.1-1.7,4.1-1.7c1,0.3,1.2,1.2,1.2,1.2c0.4,2-1.3,2.2-1.3,2.2
							c-1.2,0.1-1.2-0.9-1.2-0.9c-0.2-0.9,1.2-1,1.2-1c-1.1-1.9-4.6,1.2-2.3,4.1c0.2,0.3,0.4,0.1,0.4,0.1c6.9-3.4,8-4.9,8-4.9
							c1.5-1.3,2.6-2.1,3.4-2.7C89.3,127.4,89,127.1,89,127.1z"/>
						<path class="st1" d="M121.7,99.6c0.1,0.1,0.3,0.2,0.4,0.3C122,99.8,121.8,99.7,121.7,99.6z"/>
						<path class="st1" d="M123.9,101.3c-0.2-0.2-0.5-0.4-0.7-0.6C123.4,100.9,123.7,101.1,123.9,101.3L123.9,101.3z"/>
						<path class="st1" d="M122.4,100.1c0.2,0.2,0.4,0.3,0.7,0.5C122.8,100.4,122.6,100.3,122.4,100.1z"/>
						<path class="st1" d="M88.5,139.8c0.2-0.3,0.5-1.5,0.5-1.5c0.2-0.7,0.4-1.2,0.7-1.8c-0.8-0.2-1.5-0.5-2.2-0.7
							C87.6,138,88.5,139.8,88.5,139.8z"/>
						<path class="st1" d="M121.1,138.3c0.2,1.8,0.6,4,1.3,4.1c0,0,4.6,1.8,7.8-1.5c0,0-0.2-2-1.1-4.2
							C126.5,137.4,123.8,137.9,121.1,138.3z"/>
						<path class="st1" d="M131,138.3c0,0,0.3,1.2,0.5,1.5c0,0,1-1.7,1.1-4c-0.7,0.2-1.4,0.5-2.2,0.7
							C130.6,137.1,130.9,137.6,131,138.3z"/>
						<path class="st1" d="M96.7,132c-1.5,0-2.7,0.6-3.6,1.5c1.7,0.4,3.8,0.8,6,1.1C98.7,131.9,96.7,132,96.7,132z"/>
						<path class="st1" d="M128.1,133.1c1.4-0.4,2.6-0.7,3.6-1c-0.2-0.4-0.4-0.8-0.7-1.2c0,0-3.9-4.8-10.9-2.1
							c-0.2,0.1,0.3,1.2,2.2,1.6C122.6,130.6,125.6,130.8,128.1,133.1z"/>
						<path class="st1" d="M123.4,132c0,0-2.1,0-2.4,2.6c2.2-0.3,4.3-0.7,6-1.1C126,132.6,124.9,132,123.4,132z"/>
						<path class="st1" d="M103.7,130.3c-0.5-0.7-1.2-0.7-1.2-0.7c-1,0-1.2,2.4-1.5,5.1c2.2,0.2,4.6,0.4,7.1,0.5
							C106.9,133,104.6,131.6,103.7,130.3z"/>
						<path class="st1" d="M89,131c-0.3,0.4-0.5,0.8-0.7,1.2c1,0.3,2.2,0.6,3.6,1c2.5-2.4,5.5-2.6,5.8-2.6c1.9-0.4,2.4-1.6,2.2-1.6
							C92.9,126.2,89,131,89,131z"/>
						<path class="st1" d="M117.6,129.6c0,0-0.7,0-1.2,0.7c-0.9,1.2-3.3,2.7-4.3,4.9c2.5-0.1,4.9-0.2,7.1-0.5
							C118.8,132,118.6,129.6,117.6,129.6z"/>
						<path class="st1" d="M159.4,136.5c-0.7-0.9-2.7-0.4-2.7-0.4c1-3.1-1.8-3.9-1.8-3.9c-1-0.3-1.7-0.1-2.1,0.2c0,0,0,0,0,0
							c0,0,0,0,0,0c-0.1,0.1-0.1,0.1-0.2,0.2c-0.3,0.3-0.4,0.6-0.4,1c0,0.8,0.7,1.5,1.5,1.5c0.3,0,0.6-0.1,0.9-0.3
							c0.3-0.2,0.5-0.5,0.6-0.9c0.4,0.2,0.6,0.7,0.6,0.7c0.8,2.6-2.1,3.6-2.1,3.6c-6.6,2-10.6-1.4-10.6-1.4l1.1-0.6
							c0.4-0.2,0.8-0.2,1-0.2c0,0.1,0,0.1,0,0.2c0,0.7,0.6,1.3,1.3,1.3c0.7,0,1.3-0.6,1.3-1.3c0-0.5-0.3-0.8-0.3-0.8
							c-0.8-1.2-3.4-0.4-3.4-0.4c0.9-2.2,0.1-3.7,0.1-3.7c-1.2-2.5-4.1-1.7-4.1-1.7c-1,0.3-1.2,1.2-1.2,1.2c-0.4,2,1.3,2.2,1.3,2.2
							c1.2,0.1,1.2-0.9,1.2-0.9c0.1-0.9-1.2-1-1.2-1c1.1-1.9,4.6,1.2,2.3,4.1c-0.2,0.3-0.5,0.1-0.5,0.1c-4.1-2-6.1-3.4-7.1-4.1
							c-0.1-1.1-1.1-1.7-0.9-2c0.2-0.1,0.7,0.2,1.1-0.3c0.1-0.2,0.4-1.9,0.6-3.2c3.6,1.7,6.7,1.2,7.3,0.9c0.3-0.1,0.6-0.4,0.6-0.8
							c0.1-1.4-3.5-9.5-3.6-12.3c1.7,0.8,2.7-1.8,3-2.6c2.3,1,3.1,22.1,4.8,22.8c0.9,0.4,1.2-1.1,1.3-1.3c2.8-9.4,2.9-18.5,2.7-21.6
							c-0.3-4.8-0.7-9.1-1.8-13.1c-0.7-2.4-2.1-7.4-5.3-8.1c-1.5-0.3-2.6,1.1-2.6,2.3c0,1.1,0.8,1.6,0.4,2.7c-0.4,0.7-0.8,1.5-1,2.2
							c-0.2,0.8,0.5,1.1,0.3,1.9c-1-0.2-1.5,0.7-3.1,0.3c1-0.5,1.1-3.4-0.2-4c-0.2-0.1-0.4-0.1-0.4-0.3c0,0,0.4-0.4,0.6-0.9
							c0.7-1.5,0.7-2.8,0.1-3.8c0.5,0.1,1.1-0.9,1.1-1.7l0,0c0,0,0-0.1,0-0.1v0c0-0.2,0-0.9,0.3-1.5c0.1-0.2,0-0.4-0.2-0.5
							c-0.2-0.1-0.4,0-0.5,0.2c-0.3,0.7-1.1,0.3-0.8-0.4c0.1-0.2,0-0.4-0.2-0.5c-0.2-0.1-0.4,0-0.5,0.2c-0.3,0.6-1,0.3-0.7-0.4
							c0.1-0.2,0-0.4-0.2-0.5c-0.2-0.1-0.4,0-0.5,0.2c-0.3,0.7-1.1,0.3-0.8-0.4c0.1-0.2,0-0.4-0.2-0.5c-0.2-0.1-0.4,0-0.5,0.2
							c-0.3,0.7-0.6,1-0.9,1.3c-0.7,0.1-0.5,0.9-0.4,1.5c-1.3-0.3-2.3,0.7-2.4,1.6h-0.1c-1.1,0-2.1,0.6-2.1,1.6c0,0.6,0.7,1.3,1,1.3
							c0.1,0-0.1-0.6,0.5-0.7c0.5,0,1.3,0.4,1.4,0.9c0.1,0.6-0.4,1.9,1.4,2.1c0,0,0,0.3,0,0.6c-0.6,0-0.8-0.1-1.4,0
							c-1.1,0.2-2.7,0.8-3.1,1.9c-0.1,0.2-0.1,0.6-0.1,0.8c0,0.2,0.2,0.5,0.2,0.8c0,0.1-0.3,0.4-0.4,0.5c-0.5,0.5-1.3,1-2.1,1
							c-0.9,0-1.7-0.5-2-1c-1.1-1.5,0.3-4.2,0.3-5.2c-0.1-2.6-3.4-1.1-4.7-0.4c-1.6,0.8-2.8,2.2-3.9,3.4c-0.6,0.7-1.2,1.6-1.6,2.4
							c-0.1,0.1-0.2,0.2-0.3,0.2c0.7,0.3,1.9,0.8,2.8,0.8c0,0,1.8,0.2,3.2-0.8c0,0,0.2-0.2,0.4-0.2c0.2,0,0.4,0.1,0.5,0.2
							c0,0,0.2,0.2,0.4,0.3c0.1,0.1,0.3,0.2,0.4,0.3c0.1,0.1,0.2,0.1,0.2,0.2c0.2,0.2,0.4,0.3,0.7,0.5c0,0,0.1,0.1,0.1,0.1
							c0.3,0.2,0.5,0.4,0.7,0.6l0,0c0.3,0.2,0.5,0.4,0.7,0.5l0,0c0,0,0.1,0.1,0.1,0.2c0,0.1,0,0.2-0.1,0.3c0,0-0.1,0.2-0.3,0.4
							c-0.4,0.6-1.2,1.7-1.8,3c0.6,1.1,1.7,2.4,3.2,2.4c1.2,0,1.7-0.6,1.9-1.3c0,0,0.1,0.1,0.1,0.1c0.1-0.1,0.8,3.4,1.7,4.4
							c-0.8,0.4-2.1,1.7-1.4,5.2c-0.7-0.5-1.9-1.5-2.5-2.1c-0.3-0.7-1.1-2.4-3-2.6c0.3,0.9,0.7,1.9,1.3,3c0,0,1.2,2.3,0.8,4.8
							c0.8-0.8,0.7-3.2,0.7-3.2c0,0,0.2-0.1,0.2-0.1c0.2,0,1,1.6,2.4,2c1.9,3.2,4,5.2,6,6.5c0,0.8,0.1,2.6-0.4,2.6
							c-1.6,0.4-3.1-0.7-4.5-0.7c-0.1-0.1-0.2-0.1-0.2-0.1c-6.1-2.9-14.1,3.4-15.4,4.6c-0.7,0.6-1.5-0.2-1.5-0.2
							c-0.5-0.6-1.1-0.9-1.7-0.8c-0.6-0.1-1.2,0.2-1.7,0.8c0,0-0.8,0.9-1.5,0.2c-1.3-1.2-8.5-6.8-14.5-4.9c0-0.3-0.8-0.5-1-0.6
							c-0.5-0.1-0.9-0.5-1.2-0.7c-0.7-0.3-1.7-0.1-2.4-0.2c-0.3,0-0.7-0.2-0.9-0.3c-0.9-0.6-2-1.3-2.6-2.2c-0.1-0.1-0.3-0.5-0.4-0.5
							c-0.3-0.4-0.4-0.7-0.7-1.3c-0.3-1.2,0.2-2.4,0.3-3.6c0.1-0.9,0.1-0.9,0.2-1.9c3.8-1.3,5.3-4.1,6.2-5.6
							c0.1-0.1,0.3-0.6,0.3-0.6c0.2,0,0.3,0,0.5,0.1c1.5,0,2.5-0.8,4.2-0.6c0,0.1,0.2,0.8,1.3,1.2c0,1.1,0.1,2,0.5,2.8
							c0.1,0.2,0.2,0.3,0.3,0.4c0.7-1.7,0.9-3.1,0.9-3.9c-0.1-0.1-0.1-0.2-0.1-0.3c-0.3-1.8-1.2-2.3-2-2.8c-0.4-0.2-0.8-0.3-1.2-0.6
							c-0.6-0.4-1.2-0.8-1.6-1.6c0,0,0.2-0.2,0.4-0.4c1.1-1.1,1.6-2.7,2-4.5c0.8-1.1,3.1-0.7,3.9-0.5c0.2,0,0.6,0.1,0.8,0.2
							c0.2,0.2,0.3,0.6,0.6,0.7c0.3,0.2,0.8,0,1.2,0c0.2,0.2,0.2,0.4,0.4,0.7c0,0,0.1,0.2,0.3,0.4c1.1,0,2.4-0.6,3-0.9
							c-0.1-0.1-0.1-0.1-0.2-0.1c-0.5-0.6-1.2-1.3-1.8-1.4c-0.8-0.1-1-0.9-1.8-1c-0.2-0.1-0.9-0.2-1.2-0.1c-1.8,0.2-3-0.4-4.7-0.6
							c-1.6-0.1-1.6,1-2.2,1.8c-0.2,0.3-0.5,0.7-0.7,1c-0.4,0.4-0.9,0.4-1.5,0.8L91.1,99c-0.2-0.5-0.3-1.1-0.7-1.6
							c-0.8-1.3-1.8-2.4-3.7-2.8c-0.4-0.2-0.4-0.2-0.7-0.4c-0.3-0.2-0.1-0.5,0-0.6c0.5-0.3,1.5-0.2,2.1-0.5c1.5-0.7,1-2,0.4-2.1
							c-0.8-0.1-2.1-0.5-2.4-0.7c-0.4-0.2-1-1.4-1.6-1.7c-0.7-0.2-0.4-1.3-1.1-1.5c-0.3-0.1-0.7,0.1-1.1,0.3c0-0.2-0.2-1.5-0.9-1.9
							c-0.5-0.3-0.7,0.2-0.7,0.5c0,0.3,0.7,0.6,0.9,1.8c-0.1,0.1-0.2,0.2-0.4,0.2c-0.1-0.5-0.3-1.2-0.8-1.5
							c-0.5-0.3-0.7,0.2-0.7,0.4c0,0.2,0.7,0.6,0.8,1.6c-0.2,0.1-0.3,0.2-0.4,0.4c-1-0.3-1.3-1-1.5-1c-0.3-0.1-0.8,0.1-0.5,0.6
							c0.2,0.5,1,0.8,1.5,1c-0.1,0.1-0.2,0.2-0.3,0.3c-1.2-0.2-1.5-1-1.7-1.1c-0.3-0.1-0.8,0.1-0.5,0.6c0.3,0.8,1.7,1,1.8,1.1
							c-0.2,0.3-0.3,0.6-0.3,0.8c-0.9-0.1-2.5,0.4-2.2,1.5c0.3,0.2,1.4-0.7,2.4-0.2c0.7,1,1.7,1.1,1.9,1.2c0.4,0.3,0.4,0.8,0.6,1.3
							c0.3,0.9,0.9,1.6,1.4,2.4c0.6,0.9,1.2,1.8,1.7,2.5c0.1,0.2,0.1,0.4,0.1,0.7c-0.7,1.1-2.7,2.3-3.5,3.1
							c-0.8,0.8-8.7,6.8-9.7,9.4c-0.2,0.6-0.3,1.3-0.3,2.1c-0.5,0.3-1.5,0.7-1.9,0.2c-0.6-0.8,0.6-1.5,0.3-2.3
							c-0.1-0.3-0.6-0.5-0.9-0.3c-2,1.4-0.9,3.9,0.3,4.5c1.4,0.6,1.6-0.9,2.6-0.3c0.2,0.1,2.8,2.4,2.3,4.2c0,0.1-0.1,0.3-0.2,0.4
							c-0.6,0.7-1.5,1.2-2.1,1.8c-1.3,0.8,1.2,6,1,8.7c-0.2,1,0.8,0.9,1.4,2.5c-0.6,0-1.2,0.2-1.5,0.6c0,0-0.3,0.3-0.3,0.8
							c0,0.7,0.6,1.3,1.3,1.3s1.3-0.6,1.3-1.3c0-0.1,0-0.1,0-0.2c0.3,0,0.7,0.1,1,0.2l1.2,0.6c0,0-4,3.4-10.6,1.4c0,0-3-0.9-2.1-3.6
							c0,0,0.2-0.4,0.6-0.7c0.1,0.4,0.3,0.7,0.6,0.9c0.2,0.2,0.5,0.3,0.9,0.3c0.8,0,1.5-0.7,1.5-1.5c0-0.4-0.2-0.8-0.4-1
							c-0.1-0.1-0.1-0.1-0.2-0.2c0,0,0,0,0,0c0,0,0,0,0,0c-0.4-0.3-1.1-0.5-2.2-0.2c0,0-2.9,0.8-1.8,3.9c0,0-1.9-0.4-2.7,0.4
							c0,0-0.2,0.3-0.2,0.7v0v0c0,0.2,0.1,0.4,0.2,0.6c0.2,0.3,0.5,0.5,0.9,0.5c0.3,0,0.7-0.2,0.9-0.4c0,0,0,0,0,0
							c0.1-0.1,0.3-0.2,0.7,0.1c4.4,4.5,11.5,2.7,15.4-0.4c0,0,2.2-2.2,4.6-3.5c0.9,0.4,1.9,0.7,2.9,1.1c-0.1,1.4,0.2,3.4,1.8,5.8
							c0,0-1.1,2.1-3,0.9c0,0-1.4-1.1-0.2-2.4c0,0,0.8-0.7,1.1,0.2c-0.4,0-0.7,0.4-0.7,0.8c0,0.4,0.3,0.8,0.8,0.8
							c0.4,0,0.7-0.3,0.8-0.7c0-0.3,0.1-1.1-0.6-1.7c0,0-0.6-0.6-1.7-0.5c-1.7,0.3-2.6,3.7,0.7,5.1c0,0,2.6,1.2,3.9-0.8
							c0,0,0-0.3,0.5,0.2c2.7,2.6,8.8,1.9,11.2,0.1c0,0,0.6-0.4,1.3-0.7c0,1,0.9,1.8,1.9,1.8c1,0,1.9-0.9,1.9-1.9
							c0-0.9-0.7-1.7-1.6-1.9c0,0-1.2-0.4-3,0.7c0,0-1.9,1.2-1.8,1c0.6-1,1-2.3,1.3-3.7c2.6,0.3,5.4,0.5,8.2,0.6
							c0,0.8-0.2,1.8-0.5,2.6c0,0-1,0.4-1,1.1c0,0-0.1,0.5,0.8,1.2c0,0,0.6,0.7,0.8,1.3c0,0,0.1,0.8,1.1,0.8c0.1,0,0.1,0,0.2,0
							c0.1,0,0.1,0,0.2,0c1.1,0,1.1-0.8,1.1-0.8c0.2-0.6,0.8-1.3,0.8-1.3c0.9-0.7,0.8-1.2,0.8-1.2c0-0.7-1-1.1-1-1.1
							c-0.3-0.8-0.4-1.8-0.5-2.6c2.8-0.1,5.5-0.2,8.2-0.5c0.3,1.4,0.7,2.7,1.3,3.7c0.1,0.2-1.8-1-1.8-1c-1.8-1.1-3-0.7-3-0.7
							c-0.9,0.2-1.6,0.9-1.6,1.9c0,1,0.8,1.9,1.9,1.9c1,0,1.9-0.8,1.9-1.8c0.7,0.3,1.3,0.7,1.3,0.7c2.4,1.8,8.5,2.6,11.2-0.1
							c0.5-0.5,0.5-0.2,0.5-0.2c1.3,1.9,3.9,0.8,3.9,0.8c3.3-1.4,2.3-4.9,0.7-5.1c-1.1-0.2-1.7,0.5-1.7,0.5
							c-0.7,0.6-0.7,1.4-0.6,1.7c0,0.4,0.4,0.7,0.8,0.7c0.4,0,0.8-0.3,0.8-0.8c0-0.4-0.3-0.7-0.7-0.8c0.3-0.8,1.1-0.2,1.1-0.2
							c1.2,1.3-0.2,2.4-0.2,2.4c-1.9,1.1-3-0.9-3-0.9c1.6-2.4,1.9-4.4,1.8-5.8c1-0.4,2-0.7,2.9-1.1c2.4,1.4,4.6,3.5,4.6,3.5
							c3.9,3,11,4.9,15.4,0.4c0.4-0.4,0.6-0.2,0.7-0.1c0,0,0,0,0,0c0.2,0.2,0.5,0.4,0.9,0.4c0.4,0,0.7-0.2,0.9-0.5
							c0.1-0.2,0.2-0.4,0.2-0.6v0v0C159.7,136.8,159.4,136.5,159.4,136.5z M78.2,135.1c0,0-0.2,0.2-0.4-0.1c-2.3-2.8,1.2-6,2.3-4.1
							c0,0-1.3,0.1-1.2,1c0,0,0,1,1.2,0.9c0,0,1.7-0.2,1.3-2.2c0,0-0.2-0.9-1.2-1.2c0,0-2.9-0.8-4.1,1.7c0,0-0.2,0.6-0.3,1.5
							c-0.3-0.3-0.7-0.5-1.1-0.6c-0.5-0.6-1.5-5.2-0.9-7.6c4.4-0.9,5.8-4.6,6-5.6c0.9,0.3,1.4,1.3,1.5,1.8c0.1,0.6-0.2,1.2,0.1,1.7
							c0.5,0.7,1.7,1.4,2.4,1.8c0.2,0.2,3.5,2.7,3.9,2.8c0.5,0.1,0.8-0.2,1.2-0.2c0.1,0,0.2,0.1,0.3,0.2c0,0,0.2,0.2,0.6,0.5
							c-0.8,0.6-2,1.4-3.4,2.7C86.2,130.3,85.1,131.7,78.2,135.1z M89,138.3c0,0-0.3,1.2-0.5,1.5c0,0-1-1.7-1.1-4
							c0.7,0.2,1.5,0.5,2.2,0.7C89.4,137,89.2,137.6,89,138.3z M97.7,142.4c0,0-4.6,1.8-7.8-1.5c0,0,0.2-2.1,1.1-4.2
							c2.6,0.7,5.2,1.1,8,1.5C98.8,140,98.4,142.3,97.7,142.4z M93.1,133.4c0.9-0.9,2.1-1.4,3.6-1.5c0,0,2.1,0,2.4,2.6
							C96.9,134.2,94.8,133.8,93.1,133.4z M97.7,130.5c-0.2,0.1-3.3,0.3-5.8,2.6c-1.4-0.4-2.6-0.7-3.6-1c0.2-0.4,0.4-0.8,0.7-1.2
							c0,0,3.9-4.8,10.9-2.1C100.1,128.9,99.7,130.1,97.7,130.5z M100.9,134.8c0.3-2.8,0.5-5.2,1.5-5.1c0,0,0.7,0,1.2,0.7
							c0.9,1.2,3.2,2.7,4.3,4.9C105.5,135.2,103.1,135,100.9,134.8z M112,135.2c1.1-2.2,3.5-3.7,4.3-4.9c0.5-0.7,1.2-0.7,1.2-0.7
							c1,0,1.2,2.4,1.5,5.1C117,135,114.6,135.2,112,135.2z M120.1,128.9c7-2.7,10.9,2.1,10.9,2.1c0.3,0.4,0.5,0.8,0.7,1.2
							c-1,0.3-2.2,0.6-3.6,1c-2.5-2.4-5.6-2.6-5.8-2.6C120.4,130.1,120,128.9,120.1,128.9z M123.4,132c1.5,0,2.7,0.6,3.6,1.5
							c-1.7,0.4-3.8,0.8-6,1.1C121.3,131.9,123.4,132,123.4,132z M122.4,142.4c-0.7-0.1-1.1-2.4-1.3-4.1c2.8-0.4,5.4-0.9,8-1.5
							c0.9,2.1,1.1,4.2,1.1,4.2C127,144.2,122.4,142.4,122.4,142.4z M131.5,139.8c-0.2-0.3-0.5-1.5-0.5-1.5
							c-0.2-0.7-0.4-1.2-0.6-1.8c0.8-0.2,1.5-0.5,2.2-0.7C132.5,138,131.5,139.8,131.5,139.8z"/>
					</g>
				</g>
			</g>
		</g>
	</g>
</g>
<g>
	<path class="st1" d="M203.5,91.9l-0.4-14.8h-0.1c-0.3,1.9-0.6,3.2-0.9,4.2l-2.5,10.6h-5l-2.4-10.6c-0.2-1-0.6-2.4-0.9-4.2h-0.1
		l-0.2,14.8H188l0.7-17.6h5.9c0,0,1.9,8.8,2.9,14.5h0.1c1.2-5.6,3.5-14.5,3.5-14.5h5.8l0.7,17.6H203.5z"/>
	<path class="st1" d="M211.4,91.9V81.6l-1.5-0.3v-2.1h4.9v12.7H211.4z M211.3,74h3.4v3.1h-3.4V74z"/>
	<path class="st1" d="M225.7,91.9v-7.6c0-1.9-0.7-2.8-2.3-2.8c-0.9,0-1.6,0.4-2.2,0.8v9.6h-3.4V79.2h2.3l0.5,1.5
		c0.7-0.9,2.1-1.7,4-1.7c3.2,0,4.5,1.9,4.5,5.1v7.9H225.7z"/>
	<path class="st1" d="M233,91.9V81.6l-1.5-0.3v-2.1h4.9v12.7H233z M232.9,74h3.4v3.1h-3.4V74z"/>
	<path class="st1" d="M242.4,82.6c0,2,5.5,1.4,5.5,5.5c0,2.3-1.7,4.1-5,4.1c-1.5,0-3-0.4-3.8-0.9l0.7-2.4c0.6,0.4,1.9,0.9,3,0.9
		c1.1,0,1.9-0.6,1.9-1.4c0-2.3-5.4-1.5-5.4-5.9c0-1.9,1.4-3.6,4.9-3.6c1.3,0,2.7,0.3,3.6,0.6l-0.5,2.5c-0.9-0.4-1.9-0.7-3.1-0.7
		C243,81.4,242.4,81.8,242.4,82.6z"/>
	<path class="st1" d="M255.3,92.2c-2.3,0-3.7-1.1-3.7-4.3v-6.3h-1.9v-2.4h1.9V77l3.4-1.1v3.3h3.4v2.4h-3.4v6.2
		c0,0.9,0.4,1.5,1.4,1.5c0.7,0,1.4-0.2,2-0.5l0.5,2.5C258,91.8,256.7,92.2,255.3,92.2z"/>
	<path class="st1" d="M263.2,86.5c0,2,1.1,3.2,3.3,3.2c1.3,0,2.6-0.5,3.7-1.1l0.6,2.4c-1.1,0.6-2.8,1.2-4.8,1.2
		c-3.9,0-6.3-2.4-6.3-6.7c0-3.9,1.9-6.6,6-6.6c3.9,0,5.4,2.9,5.4,6.1v1.5C271.1,86.5,263.2,86.5,263.2,86.5z M265.6,81.4
		c-1.7,0-2.4,1.5-2.4,3h4.6C267.9,82.8,267.4,81.4,265.6,81.4z"/>
	<path class="st1" d="M280.9,82c-0.4-0.1-1-0.2-1.6-0.2c-0.9,0-1.7,0.4-2.3,0.9V92h-3.4V79.2h2.4l0.4,1.7h0.1c0.4-0.9,1.5-1.9,3-1.9
		c0.7,0,1.2,0.1,1.5,0.2L280.9,82z"/>
	<path class="st1" d="M284,91.9V81.6l-1.5-0.3v-2.1h4.9v12.7H284z M283.9,74h3.4v3.1h-3.4V74z"/>
	<path class="st1" d="M302,85.6c0,4.3-2.2,6.7-6,6.7c-3.8,0-6-2.3-6-6.7c0-3.7,2.1-6.6,6-6.6C299.8,78.9,302,81.8,302,85.6z
		 M298.5,85.6c0-3.1-0.9-4.1-2.5-4.1s-2.5,1.1-2.5,4.1c0,3,0.8,4.2,2.5,4.2C297.6,89.7,298.5,88.6,298.5,85.6z"/>
	<path class="st1" d="M318.5,80.2c-0.2-0.7-0.3-1.4-0.3-2.3V74h3.4V92h-2.8l-0.4-1.4c-0.5,0.8-1.7,1.7-3.4,1.7
		c-2.9,0-5.2-2.1-5.2-6.6c0-4.2,2.4-6.6,5.5-6.6C316.7,78.9,317.8,79.4,318.5,80.2z M318.1,82.1c-0.5-0.3-1.3-0.6-2.3-0.6
		c-1.6,0-2.6,1.1-2.6,4.1c0,3,1,4.2,2.6,4.2c0.9,0,1.7-0.4,2.4-1.1V82.1z"/>
	<path class="st1" d="M327.5,86.5c0,2,1.1,3.2,3.3,3.2c1.3,0,2.6-0.5,3.7-1.1l0.6,2.4c-1.1,0.6-2.8,1.2-4.8,1.2
		c-3.9,0-6.3-2.4-6.3-6.7c0-3.9,1.9-6.6,6-6.6c3.9,0,5.4,2.9,5.4,6.1v1.5C335.4,86.5,327.5,86.5,327.5,86.5z M329.9,81.4
		c-1.7,0-2.4,1.5-2.4,3h4.6C332.2,82.8,331.7,81.4,329.9,81.4z"/>
	<path class="st1" d="M188.1,115.1v-14.6h3.4v14.4c0,1.1,0.6,1.2,2.1,1.2v2.4c0,0-1,0.2-1.9,0.2
		C189.1,118.7,188.1,117.3,188.1,115.1z"/>
	<path class="st1" d="M203.6,118.4l-0.5-1.5c-0.6,0.9-1.9,1.8-3.7,1.8c-2.6,0-4.3-1.6-4.3-4.1c0-2.4,1.7-3.8,4.8-3.8h2.7v-0.7
		c0-1.6-0.9-2.2-2.2-2.2c-1.5,0-2.8,0.4-3.8,0.9l-0.9-2.4c1.3-0.6,3-1,5-1c3.6,0,5.2,1.7,5.2,4.9v8.1L203.6,118.4L203.6,118.4z
		 M202.6,112.9h-2.1c-1.4,0-2.1,0.7-2.1,1.6c0,1.2,0.6,1.9,1.9,1.9c0.8,0,1.6-0.4,2.3-0.9L202.6,112.9L202.6,112.9z"/>
	<path class="st1" d="M211.8,109.1c0,2,5.5,1.4,5.5,5.5c0,2.3-1.7,4.1-5,4.1c-1.5,0-3-0.4-3.8-0.9l0.7-2.4c0.6,0.4,1.9,0.9,3,0.9
		c1.1,0,1.9-0.6,1.9-1.4c0-2.3-5.4-1.5-5.4-5.9c0-1.9,1.4-3.6,4.9-3.6c1.3,0,2.7,0.3,3.6,0.6l-0.5,2.5c-0.9-0.4-1.9-0.7-3.1-0.7
		C212.4,107.9,211.8,108.3,211.8,109.1z"/>
	<path class="st1" d="M232.9,118.7c-4.9,0-7.6-3.3-7.6-9.1c0-5.5,2.6-8.9,7.6-8.9c2.4,0,4.6,0.5,6,1.5l-1.3,2.8
		c-0.9-0.7-2.5-1.2-4.3-1.2c-2.9,0-4.4,2.1-4.4,5.9c0,4.1,1.5,6.1,4.3,6.1c1.7,0,3.4-0.7,4.6-1.6l1.1,2.8
		C237.2,118,235.3,118.7,232.9,118.7z"/>
	<path class="st1" d="M249.8,118.4l-0.5-1.6c-0.6,0.8-1.9,1.8-4,1.8c-3.2,0-4.6-1.8-4.6-5.3v-7.7h3.4v7.8c0,1.9,0.7,2.7,2.2,2.7
		c0.9,0,1.7-0.3,2.3-0.8v-9.7h3.5v12.7H249.8z"/>
	<path class="st1" d="M254.9,115.1v-14.6h3.3v14.4c0,1.1,0.6,1.2,2,1.2v2.4c0,0-1,0.2-1.9,0.2C255.8,118.7,254.9,117.3,254.9,115.1z
		"/>
	<path class="st1" d="M267.2,118.7c-2.3,0-3.7-1.1-3.7-4.3v-6.3h-1.9v-2.4h1.9v-2.2l3.4-1.1v3.3h3.4v2.4h-3.4v6.2
		c0,0.9,0.4,1.5,1.4,1.5c0.7,0,1.4-0.2,2-0.5l0.5,2.5C269.9,118.3,268.6,118.7,267.2,118.7z"/>
	<path class="st1" d="M281.7,118.4l-0.5-1.6c-0.6,0.8-2,1.8-4,1.8c-3.2,0-4.6-1.8-4.6-5.3v-7.7h3.4v7.8c0,1.9,0.7,2.7,2.2,2.7
		c0.9,0,1.7-0.3,2.3-0.8v-9.7h3.5v12.7H281.7z"/>
	<path class="st1" d="M294,108.5c-0.4-0.1-1-0.2-1.6-0.2c-0.9,0-1.7,0.4-2.3,0.9v9.3h-3.4v-12.7h2.4l0.4,1.7h0.1
		c0.4-0.9,1.5-1.9,3-1.9c0.7,0,1.2,0.1,1.5,0.2L294,108.5z"/>
	<path class="st1" d="M303.7,118.4l-0.5-1.5c-0.6,0.9-1.9,1.8-3.7,1.8c-2.5,0-4.3-1.6-4.3-4.1c0-2.4,1.7-3.8,4.8-3.8h2.7v-0.7
		c0-1.6-0.9-2.2-2.2-2.2c-1.5,0-2.8,0.4-3.8,0.9l-0.9-2.4c1.3-0.6,3-1,5-1c3.6,0,5.2,1.7,5.2,4.9v8.1L303.7,118.4L303.7,118.4z
		 M302.7,112.9h-2.1c-1.4,0-2,0.7-2,1.6c0,1.2,0.6,1.9,1.9,1.9c0.8,0,1.6-0.4,2.3-0.9L302.7,112.9L302.7,112.9z"/>
	<path class="st1" d="M311.9,109.1c0,2,5.5,1.4,5.5,5.5c0,2.3-1.7,4.1-5,4.1c-1.5,0-3-0.4-3.8-0.9l0.7-2.4c0.6,0.4,1.9,0.9,3,0.9
		c1.1,0,1.9-0.6,1.9-1.4c0-2.3-5.4-1.5-5.4-5.9c0-1.9,1.4-3.6,4.9-3.6c1.3,0,2.7,0.3,3.6,0.6l-0.5,2.5c-0.9-0.4-2-0.7-3.1-0.7
		C312.5,107.9,311.9,108.3,311.9,109.1z"/>
	<path class="st1" d="M319.8,114.8h3.4v3.9c0,2.2-1.2,3.1-3.4,3.3v-1.8c0.5-0.1,0.8-0.6,0.8-1.8l-0.8-0.4V114.8z"/>
	<path class="st1" d="M188.1,141.6V127h3.4v14.4c0,1.1,0.6,1.2,2.1,1.2v2.4c0,0-1,0.2-1.9,0.2C189.1,145.2,188.1,143.8,188.1,141.6z
		"/>
	<path class="st1" d="M203.6,144.9l-0.5-1.5c-0.6,0.9-1.9,1.8-3.7,1.8c-2.6,0-4.3-1.6-4.3-4.1c0-2.4,1.7-3.8,4.8-3.8h2.7v-0.6
		c0-1.6-0.9-2.2-2.2-2.2c-1.5,0-2.8,0.4-3.8,0.9l-0.9-2.4c1.3-0.6,3-1,5-1c3.6,0,5.2,1.7,5.2,4.9v8.1L203.6,144.9L203.6,144.9z
		 M202.6,139.4h-2.1c-1.4,0-2.1,0.7-2.1,1.6c0,1.2,0.6,1.9,1.9,1.9c0.8,0,1.6-0.4,2.3-0.9L202.6,139.4L202.6,139.4z"/>
	<path class="st1" d="M211.8,135.6c0,2,5.5,1.4,5.5,5.5c0,2.3-1.7,4.1-5,4.1c-1.5,0-3-0.4-3.8-0.9l0.7-2.4c0.6,0.4,1.9,0.9,3,0.9
		c1.1,0,1.9-0.6,1.9-1.4c0-2.3-5.4-1.5-5.4-5.9c0-1.9,1.4-3.6,4.9-3.6c1.3,0,2.7,0.3,3.6,0.6l-0.5,2.5c-0.9-0.4-1.9-0.6-3.1-0.6
		C212.4,134.4,211.8,134.8,211.8,135.6z"/>
	<path class="st1" d="M227.9,144.9h-3.3l4.8-17.6h5.7l4.6,17.6h-3.8l-0.9-3.9h-6L227.9,144.9z M231.4,130.4l-1.9,7.9h4.8l-1.8-7.9
		H231.4z"/>
	<path class="st1" d="M248.7,135c-0.4-0.1-1-0.2-1.6-0.2c-0.9,0-1.7,0.4-2.3,0.9v9.3h-3.4v-12.7h2.4l0.4,1.7h0.1
		c0.4-0.9,1.5-1.9,3-1.9c0.7,0,1.2,0.1,1.5,0.2L248.7,135z"/>
	<path class="st1" d="M255.4,145.2c-2.3,0-3.7-1.1-3.7-4.3v-6.3h-1.9v-2.4h1.9V130l3.4-1.1v3.3h3.4v2.4H255v6.2
		c0,0.9,0.4,1.5,1.4,1.5c0.7,0,1.4-0.2,2-0.5l0.5,2.5C258.1,144.8,256.8,145.2,255.4,145.2z"/>
	<path class="st1" d="M263.3,139.5c0,2,1.1,3.1,3.3,3.1c1.3,0,2.6-0.5,3.7-1.1l0.6,2.4c-1.1,0.6-2.8,1.2-4.8,1.2
		c-3.9,0-6.3-2.4-6.3-6.7c0-3.9,1.9-6.6,6-6.6c3.9,0,5.4,2.9,5.4,6.1v1.5L263.3,139.5L263.3,139.5z M265.7,134.4
		c-1.7,0-2.4,1.5-2.4,3h4.6C268,135.9,267.5,134.4,265.7,134.4z"/>
	<path class="st1" d="M276.8,135.6c0,2,5.5,1.4,5.5,5.5c0,2.3-1.7,4.1-5,4.1c-1.5,0-3-0.4-3.8-0.9l0.7-2.4c0.6,0.4,1.9,0.9,3,0.9
		c1.1,0,1.9-0.6,1.9-1.4c0-2.3-5.4-1.5-5.4-5.9c0-1.9,1.4-3.6,4.9-3.6c1.3,0,2.7,0.3,3.6,0.6l-0.5,2.5c-0.9-0.4-2-0.6-3.1-0.6
		C277.3,134.4,276.8,134.8,276.8,135.6z"/>
	<path class="st1" d="M295.5,144.7l-2.4,0.4l-3.8-12.9h3.8l2.7,10.7h0l2.7-10.7h3.4l-3.9,13.1c-1.1,3.7-2.9,5-5.6,5
		c-1.4,0-3-0.8-3.6-1.3l1.1-2.3h0.3c0.1,0.1,1.2,0.9,2.4,0.9c1.4,0,2.2-0.9,2.7-2.6L295.5,144.7z"/>
	<path class="st1" d="M312.5,139.5c0,2,1.1,3.1,3.3,3.1c1.3,0,2.6-0.5,3.7-1.1l0.6,2.4c-1.1,0.6-2.8,1.2-4.8,1.2
		c-3.9,0-6.3-2.4-6.3-6.7c0-3.9,1.9-6.6,6-6.6c3.9,0,5.4,2.9,5.4,6.1v1.5L312.5,139.5L312.5,139.5z M314.9,134.4
		c-1.7,0-2.4,1.5-2.4,3h4.6C317.2,135.9,316.7,134.4,314.9,134.4z"/>
	<path class="st1" d="M323,141.6V127h3.4v14.4c0,1.1,0.6,1.2,2,1.2v2.4c0,0-1,0.2-1.9,0.2C324,145.2,323,143.8,323,141.6z"/>
	<path class="st1" d="M193.5,165.3h-1.9v6.1h-3.4v-17.6h5.3c3.6,0,6.7,1.7,6.7,5.5C200.2,162.8,197.7,165.3,193.5,165.3z
		 M193.4,156.8h-1.9v5.9h1.9c2,0,3.1-1.2,3.1-3.1C196.6,157.7,195.4,156.8,193.4,156.8z"/>
	<path class="st1" d="M209.4,171.4l-0.5-1.5c-0.6,0.9-1.9,1.8-3.7,1.8c-2.6,0-4.3-1.6-4.3-4.1c0-2.4,1.7-3.8,4.8-3.8h2.7v-0.6
		c0-1.6-0.9-2.2-2.2-2.2c-1.5,0-2.8,0.4-3.8,0.9l-0.9-2.4c1.3-0.6,3-1,5-1c3.6,0,5.2,1.7,5.2,4.9v8.1L209.4,171.4L209.4,171.4z
		 M208.5,165.9h-2.1c-1.4,0-2.1,0.7-2.1,1.6c0,1.2,0.6,1.9,1.9,1.9c0.8,0,1.6-0.4,2.3-0.9L208.5,165.9L208.5,165.9z"/>
	<path class="st1" d="M219.4,171.7c-2.3,0-3.7-1.1-3.7-4.3v-6.3h-1.9v-2.4h1.9v-2.2l3.4-1.1v3.3h3.4v2.4H219v6.2
		c0,0.9,0.4,1.5,1.4,1.5c0.7,0,1.4-0.2,1.9-0.5l0.5,2.5C222.1,171.3,220.8,171.7,219.4,171.7z"/>
	<path class="st1" d="M232.3,161.5c-0.4-0.1-1-0.2-1.6-0.2c-0.9,0-1.7,0.4-2.3,0.9v9.3H225v-12.7h2.4l0.4,1.7h0.1
		c0.4-0.9,1.5-1.9,3-1.9c0.7,0,1.2,0.1,1.5,0.2L232.3,161.5z"/>
	<path class="st1" d="M235.4,171.4v-10.3l-1.5-0.3v-2.1h4.9v12.7H235.4z M235.3,153.5h3.4v3.1h-3.4V153.5z"/>
	<path class="st1" d="M253.1,163.6v7.9h-3.4v-7.6c0-1.9-0.7-2.8-2.3-2.8c-0.9,0-1.6,0.4-2.2,0.8v9.6h-3.4v-12.7h2.3l0.6,1.5
		c0.7-0.9,2-1.7,3.8-1.7c2.1,0,3.3,0.6,4,1.8c0.8-0.9,2.1-1.8,3.9-1.8c3.6,0,4.7,1.9,4.7,5.1v7.9h-3.5v-7.6c0-1.9-0.8-2.8-2.4-2.8
		c-0.8,0-1.6,0.4-2.2,0.8C253.1,162.4,253.1,162.9,253.1,163.6z"/>
	<path class="st1" d="M275.2,165.1c0,4.3-2.2,6.7-6,6.7c-3.8,0-6-2.3-6-6.7c0-3.7,2.1-6.6,6-6.6C273,158.4,275.2,161.3,275.2,165.1z
		 M271.7,165.1c0-3.1-0.9-4.1-2.5-4.1s-2.5,1.1-2.5,4.1c0,3,0.8,4.2,2.5,4.2C270.9,169.2,271.7,168.1,271.7,165.1z"/>
	<path class="st1" d="M285.6,171.4v-7.6c0-1.9-0.7-2.8-2.3-2.8c-0.9,0-1.6,0.4-2.2,0.8v9.6h-3.4v-12.7h2.3l0.5,1.5
		c0.7-0.9,2.1-1.7,4-1.7c3.2,0,4.5,1.9,4.5,5.1v7.9L285.6,171.4L285.6,171.4z"/>
	<path class="st1" d="M292.9,171.4v-10.3l-1.5-0.3v-2.1h4.9v12.7H292.9z M292.8,153.5h3.4v3.1h-3.4V153.5z"/>
	<path class="st1" d="M310.8,165.1c0,4.3-2.2,6.7-6,6.7c-3.8,0-6-2.3-6-6.7c0-3.7,2.1-6.6,6-6.6
		C308.7,158.4,310.8,161.3,310.8,165.1z M307.3,165.1c0-3.1-0.9-4.1-2.5-4.1s-2.5,1.1-2.5,4.1c0,3,0.8,4.2,2.5,4.2
		C306.5,169.2,307.3,168.1,307.3,165.1z"/>
</g>
</svg>
