<?xml version="1.0" encoding="UTF-8" standalone="no"?>
<!-- Created with Inkscape (http://www.inkscape.org/) -->

<svg
   xmlns:dc="http://purl.org/dc/elements/1.1/"
   xmlns:cc="http://creativecommons.org/ns#"
   xmlns:rdf="http://www.w3.org/1999/02/22-rdf-syntax-ns#"
   xmlns:svg="http://www.w3.org/2000/svg"
   xmlns="http://www.w3.org/2000/svg"
   xmlns:sodipodi="http://sodipodi.sourceforge.net/DTD/sodipodi-0.dtd"
   xmlns:inkscape="http://www.inkscape.org/namespaces/inkscape"
   width="210mm"
   height="297mm"
   viewBox="0 0 210 297"
   version="1.1"
   id="svg414"
   inkscape:version="0.92.5 (2060ec1f9f, 2020-04-08)"
   sodipodi:docname="toplapValdivia.svg">
  <defs
     id="defs408" />
  <sodipodi:namedview
     id="base"
     pagecolor="#ffffff"
     bordercolor="#666666"
     borderopacity="1.0"
     inkscape:pageopacity="0.0"
     inkscape:pageshadow="2"
     inkscape:zoom="0.49497475"
     inkscape:cx="98.973878"
     inkscape:cy="437.34757"
     inkscape:document-units="mm"
     inkscape:current-layer="layer1"
     showgrid="false"
     inkscape:window-width="1920"
     inkscape:window-height="1080"
     inkscape:window-x="0"
     inkscape:window-y="0"
     inkscape:window-maximized="1" />
  <metadata
     id="metadata411">
    <rdf:RDF>
      <cc:Work
         rdf:about="">
        <dc:format>image/svg+xml</dc:format>
        <dc:type
           rdf:resource="http://purl.org/dc/dcmitype/StillImage" />
        <dc:title></dc:title>
      </cc:Work>
    </rdf:RDF>
  </metadata>
  <g
     inkscape:label="Layer 1"
     inkscape:groupmode="layer"
     id="layer1">
    <g
       id="g444"
       transform="matrix(3.1004846,0,0,3.1004846,-92.295908,-251.14057)">
      <path
         inkscape:connector-curvature="0"
         id="path9425"
         d="m 55.173978,133.01307 c -0.350409,-0.35042 -0.179623,-1.10014 0.481234,-2.11247 0.880905,-1.3494 1.450085,-1.96693 2.074355,-2.25052 0.485018,-0.22034 0.990108,-0.24143 5.829932,-0.24341 3.118687,-0.002 5.494297,0.0521 5.773785,0.12974 0.604591,0.16795 1.27422,0.83936 2.176163,2.18199 0.801594,1.19325 1.00779,1.88899 0.662233,2.23454 -0.199147,0.19915 -0.975453,0.21909 -8.528913,0.21909 -6.286562,0 -8.348524,-0.0387 -8.468789,-0.15896 z m 2.836882,-5.41659 c -0.71228,-0.56029 -0.743814,-0.74912 -0.743814,-4.45474 0,-3.83465 0.05253,-4.09107 0.935483,-4.5646 0.414016,-0.22203 0.860031,-0.24205 5.39228,-0.24205 5.470934,0 5.634725,0.0219 6.121275,0.81998 0.250589,0.41102 0.267387,0.66149 0.267852,3.99483 5.02e-4,3.89312 -0.02736,4.05038 -0.799615,4.50656 -0.32286,0.19071 -0.992899,0.21667 -5.594272,0.21667 -5.100572,0 -5.23603,-0.006 -5.579189,-0.27665 z m 8.529278,-2.30915 v -0.59871 l -2.881275,0.0357 -2.881284,0.0357 -0.04304,0.37549 c -0.08764,0.76508 -0.144869,0.75053 2.953244,0.75053 h 2.852321 z m 0,-2.18581 v -0.53247 l -2.881275,0.0357 -2.881284,0.0357 -0.04113,0.49677 -0.04113,0.49677 h 2.922394 2.922403 z m 0,-2.11956 v -0.53248 l -2.881275,0.0358 -2.881284,0.0357 -0.04359,0.30769 c -0.09754,0.6885 -0.10893,0.68585 2.953846,0.68585 h 2.852312 z m -20.410987,3.05965 c -0.534445,-0.53444 -0.534445,-1.20809 0,-1.74253 0.286683,-0.28668 0.512905,-0.38723 0.871256,-0.38723 1.275305,0 1.752928,1.76903 0.637958,2.36287 -0.516388,0.27503 -1.089618,0.18649 -1.509214,-0.23311 z m 4.205869,0.11654 c -0.448669,-0.35292 -0.576767,-1.02501 -0.298091,-1.56391 0.751593,-1.45342 2.911323,-0.42669 2.280123,1.08397 -0.106705,0.25539 -0.31437,0.52876 -0.461464,0.60749 -0.426791,0.22841 -1.14458,0.1682 -1.520568,-0.12755 z m 4.348806,0.11068 c -0.432911,-0.24827 -0.587702,-0.53759 -0.587702,-1.09848 0,-0.57409 0.160654,-0.86394 0.612114,-1.10439 0.844026,-0.44953 1.896447,0.16334 1.896447,1.10439 0,0.94367 -1.09695,1.57099 -1.920859,1.09848 z m 16.40089,-0.15971 c -0.308633,-0.26547 -0.371684,-0.42473 -0.371684,-0.93877 0,-0.51406 0.06301,-0.67332 0.371684,-0.93879 0.990829,-0.85227 2.481075,0.11808 2.074291,1.35064 -0.281375,0.85259 -1.373228,1.12995 -2.074291,0.52692 z m 4.150452,-0.0295 c -0.266375,-0.26637 -0.348248,-0.47856 -0.345029,-0.89419 0.0046,-0.58937 0.163655,-0.87834 0.616318,-1.11943 0.844027,-0.44953 1.896447,0.16334 1.896447,1.10438 0,1.10193 -1.39143,1.68555 -2.167736,0.90924 z m 4.144633,-0.038 c -0.286683,-0.28668 -0.387223,-0.51291 -0.387223,-0.87126 0,-0.35836 0.10054,-0.58458 0.387223,-0.87126 1.035851,-1.03585 2.6001,0.15768 1.982679,1.51279 -0.321108,0.70475 -1.384444,0.82797 -1.982679,0.22973 z"
         style="fill:#000000;stroke-width:0.13247274" />
      <text
         transform="scale(0.76813141,1.3018606)"
         id="text9446"
         y="107.07523"
         x="57.735149"
         style="font-style:normal;font-variant:normal;font-weight:bold;font-stretch:normal;font-size:5.7809763px;line-height:1.25;font-family:Mulish;-inkscape-font-specification:'Mulish Bold';text-align:end;letter-spacing:0px;word-spacing:0px;text-anchor:end;fill:#000000;fill-opacity:1;stroke:none;stroke-width:0.1445244"
         xml:space="preserve"><tspan
           id="tspan437"
           style="font-style:normal;font-variant:normal;font-weight:bold;font-stretch:normal;font-family:Mulish;-inkscape-font-specification:'Mulish Bold';text-align:start;text-anchor:start;stroke-width:0.1445244"
           y="107.07523"
           x="57.735149"
           sodipodi:role="line">T0PL4Pv4LD1V14</tspan></text>
    </g>
  </g>
</svg>
