<svg id="Capa_1" data-name="Capa 1" xmlns="http://www.w3.org/2000/svg" viewBox="0 0 16 16"><defs><style>.cls-1{fill:#0e0b10;}</style></defs><title>LOGO-ICLC-SVG1-01</title><polygon class="cls-1" points="8 6.3 3.3 6.3 3.3 5.3 3.9 5.3 3.9 4.1 3.6 4.1 3.6 3.1 4.9 3.1 4.9 5.3 8 5.3 8 6.3"/><polygon class="cls-1" points="12.4 10.7 7.5 10.7 7.5 8.5 5.3 8.5 5.3 5.8 6.3 5.8 6.3 7.5 8.5 7.5 8.5 9.7 12.4 9.7 12.4 10.7"/><polygon class="cls-1" points="12.4 12.9 9.7 12.9 9.7 10.2 10.7 10.2 10.7 11.9 12.4 11.9 12.4 12.9"/><rect class="cls-1" y="3.1" width="2.8" height="0.9"/><rect class="cls-1" x="13.2" y="11.9" width="2.8" height="0.9"/><path class="cls-1" d="M15.1,15.1H0.9V0.9H15.1V15.1ZM1.8,14.2H14.1V1.8H1.8V14.2Z"/></svg>